<?xml version="1.0" encoding="UTF-8" standalone="no"?>
<!-- Created with Inkscape (http://www.inkscape.org/) -->

<svg
   xmlns:dc="http://purl.org/dc/elements/1.1/"
   xmlns:cc="http://creativecommons.org/ns#"
   xmlns:rdf="http://www.w3.org/1999/02/22-rdf-syntax-ns#"
   xmlns:svg="http://www.w3.org/2000/svg"
   xmlns="http://www.w3.org/2000/svg"
   xmlns:sodipodi="http://sodipodi.sourceforge.net/DTD/sodipodi-0.dtd"
   xmlns:inkscape="http://www.inkscape.org/namespaces/inkscape"
   id="svg3619"
   version="1.1"
   inkscape:version="0.48.5 r10040"
   width="150"
   height="216"
   sodipodi:docname="chicken.svg">
  <metadata
     id="metadata3625">
    <rdf:RDF>
      <cc:Work
         rdf:about="">
        <dc:format>image/svg+xml</dc:format>
        <dc:type
           rdf:resource="http://purl.org/dc/dcmitype/StillImage" />
        <dc:title />
      </cc:Work>
    </rdf:RDF>
  </metadata>
  <defs
     id="defs3623" />
  <sodipodi:namedview
     pagecolor="#ffffff"
     bordercolor="#666666"
     borderopacity="1"
     objecttolerance="10"
     gridtolerance="10"
     guidetolerance="10"
     inkscape:pageopacity="0"
     inkscape:pageshadow="2"
     inkscape:window-width="1682"
     inkscape:window-height="1309"
     id="namedview3621"
     showgrid="false"
     inkscape:zoom="1.2461216"
     inkscape:cx="257.92744"
     inkscape:cy="226.01629"
     inkscape:window-x="711"
     inkscape:window-y="0"
     inkscape:window-maximized="0"
     inkscape:current-layer="svg3619" />
  <path
     style="fill:#a0a1a2;fill-opacity:1"
     d="m 82.474354,191.51643 c -0.06535,-0.96568 0.06605,-1.42681 0.956717,-3.35798 l 0.881072,-1.91025 -1.366687,0.94031 c -3.844924,2.64538 -8.998501,3.73532 -10.942058,2.31416 -0.397455,-0.29063 -0.500138,-0.62473 -0.361616,-1.17664 0.150993,-0.60162 0.595635,-0.92117 2.02604,-1.45611 1.007924,-0.37695 1.832593,-0.84617 1.832593,-1.04273 0,-0.87065 4.052442,-3.34752 6.243763,-3.81624 2.215026,-0.47378 3.282019,-4.2902 3.327123,-11.90033 0.01642,-2.76884 -0.07898,-5.42485 -0.21205,-5.90224 -0.181764,-0.65223 -0.143883,-0.83538 0.152386,-0.73681 0.221077,0.0735 0.504171,0.92346 0.644431,1.93472 0.316025,2.27854 0.0452,10.10403 -0.426254,12.31864 -0.924672,4.34313 -3.708181,7.15239 -9.119832,9.2042 -4.021957,1.52491 -4.335813,1.8377 -2.18849,2.18107 1.805335,0.28869 4.467152,-0.55697 7.574957,-2.40655 4.327731,-2.57562 4.892522,-2.23235 2.995116,1.82035 -0.586713,1.25316 -1.066749,2.38123 -1.066749,2.50682 0,0.44722 2.505098,-2.21274 3.844469,-4.08214 1.571922,-2.19399 2.055767,-2.5185 3.755101,-2.5185 1.639845,0 1.610829,-0.3668 -0.276047,-3.49061 -2.05056,-3.39481 -2.463885,-5.13741 -2.461334,-10.37708 0.0023,-3.8857 0.358041,-7.60771 0.767114,-8.01678 0.413185,-0.41319 0.456844,0.3419 0.138408,2.39425 -0.196301,1.26524 -0.288313,4.08956 -0.21233,6.51825 0.150453,4.80906 0.616767,6.50536 2.526427,9.19014 1.155219,1.62412 1.817042,3.26721 1.572586,3.90425 -0.08492,0.22112 -0.788687,0.47354 -1.564071,0.56094 -1.610048,0.18149 -2.258184,0.6777 -3.685525,2.82167 -1.61063,2.41927 -3.445076,4.11459 -4.452289,4.11459 -0.608636,0 -0.877624,-0.15889 -0.902971,-0.53337 z m -3.356535,-6.97073 c 1.210748,-0.77461 2.142572,-1.46718 2.070724,-1.53903 -0.138629,-0.13862 -4.773777,2.59742 -4.773777,2.81788 0,0.33794 0.675533,0.0184 2.703053,-1.27885 z m -23.117128,2.48297 c -0.259861,-0.31312 -0.308307,-1.00619 -0.159786,-2.28589 0.212201,-1.82832 0.209625,-1.83652 -0.57752,-1.83652 -0.43487,0 -1.579851,0.27087 -2.5444,0.60192 -5.279413,1.81199 -10.819485,2.45668 -12.37161,1.4397 -1.410536,-0.92423 -0.600141,-2.14537 1.776739,-2.67729 1.031153,-0.23077 1.575629,-0.49745 1.48702,-0.72836 -0.168714,-0.43966 1.734495,-2.12555 3.317536,-2.93872 0.769428,-0.39524 2.187701,-0.66943 4.325841,-0.8363 2.797684,-0.21835 3.314328,-0.34988 4.286495,-1.09139 1.986424,-1.51513 6.025767,-7.62397 8.241725,-12.46426 0.43621,-0.9528 0.91484,-1.65714 1.063627,-1.56519 0.722925,0.44679 -5.19799,10.95457 -7.551889,13.40224 -0.644836,0.67053 -1.715517,1.58987 -2.379289,2.04299 -2.10731,1.43851 -6.893208,3.51949 -10.04561,4.36795 -3.651604,0.98284 -4.380882,1.3101 -3.774786,1.69395 1.226199,0.77657 5.105835,0.16742 11.876383,-1.86471 1.506561,-0.45219 2.607596,-0.61903 3.163864,-0.47941 0.851642,0.21375 0.852901,0.21793 0.701654,2.33183 -0.08333,1.16472 -0.04902,2.11769 0.07627,2.11769 0.244374,0 2.232743,-2.21525 3.133866,-3.49145 0.680812,-0.9642 1.749981,-1.00574 3.698761,-0.14369 2.454823,1.08588 2.830583,-0.29934 0.867387,-3.1976 -2.275516,-3.35933 -2.215809,-4.15799 0.785368,-10.50545 1.316754,-2.78491 2.478249,-5.3035 2.581104,-5.59685 0.284155,-0.81045 0.898222,-0.6641 0.639402,0.15239 -0.119562,0.37717 -1.259574,2.88021 -2.533363,5.56232 -2.812353,5.92172 -2.926413,6.80096 -1.210997,9.33504 1.815013,2.68121 2.118096,3.62042 1.602172,4.96491 -0.246836,0.64324 -1.716144,0.62302 -3.592123,-0.0494 l -1.49124,-0.53454 -0.794644,1.05388 c -1.342405,1.78033 -3.28082,3.6696 -3.765067,3.6696 -0.252978,0 -0.62778,-0.20221 -0.832898,-0.44937 z m -6.940333,-6.93598 c 1.634407,-0.67326 2.971649,-1.35352 2.971649,-1.51169 0,-0.15817 -0.240018,-0.22174 -0.533373,-0.14126 -0.293355,0.0805 -1.287715,0.31407 -2.209688,0.51909 -1.824541,0.40573 -3.380621,1.12934 -4.571768,2.12594 l -0.761961,0.63751 1.066746,-0.20274 c 0.586709,-0.11148 2.403987,-0.75359 4.038395,-1.42685 z m 30.859439,-17.11897 c -1.852722,-0.58594 -3.137997,-1.33244 -4.575507,-2.6575 l -1.305556,-1.20342 -0.670117,1.08427 c -0.743886,1.20363 -1.741422,1.82518 -3.441052,2.14403 -1.248529,0.23423 -1.619399,-0.27666 -0.419463,-0.57782 0.793467,-0.19915 3.858826,-2.58629 3.858826,-3.00506 0,-0.14689 -0.339251,-0.76631 -0.753892,-1.3765 -0.414641,-0.6102 -0.693763,-1.16957 -0.620273,-1.24308 0.0735,-0.0735 1.163723,0.82839 2.422743,2.00417 2.508464,2.34263 6.633301,4.64768 8.316933,4.64768 0.528645,0 1.045945,0.13715 1.149547,0.30478 0.268032,0.43367 -2.472424,0.3496 -3.962189,-0.12155 z m -20.340094,-0.16494 c -2.229724,-0.71681 -4.846123,-3.16109 -6.10726,-5.70551 -0.402154,-0.81137 -1.185706,-2.61967 -1.741231,-4.01844 -0.555521,-1.39878 -1.582334,-3.31892 -2.281809,-4.26698 -2.806779,-3.80432 -8.482074,-8.13017 -16.8688,-12.8578 C 22.156005,130.08364 15.299314,122.195 12.322834,112.65343 10.50438,106.82408 10.408617,99.181533 12.072691,92.690053 c 2.737289,-10.67807 4.189662,-14.6337 8.977219,-24.45005 4.380223,-8.98117 4.595169,-9.56441 4.607961,-12.50354 0.0063,-1.436 0.129646,-2.31952 0.315059,-2.25583 0.17237,0.0592 0.29102,1.15095 0.273099,2.51293 -0.03809,2.89547 -0.48754,4.10911 -5.095965,13.7606 -4.309843,9.02617 -5.261862,11.65813 -7.910374,21.86914 -1.255928,4.84207 -1.264871,4.91534 -1.264631,10.362667 2.21e-4,5.01925 0.07024,5.73992 0.822759,8.46837 0.452383,1.64022 1.243942,3.99454 1.759018,5.23182 0.881715,2.11797 3.926749,6.97388 5.712513,9.10973 2.891843,3.45876 8.505159,7.99702 12.713625,10.27869 6.751684,3.66053 14.051155,9.23828 16.698174,12.75959 0.735766,0.97879 1.718989,2.72137 2.184937,3.87239 1.651405,4.07944 3.010814,6.63625 4.233769,7.963 1.982253,2.15049 4.404474,3.11428 6.424872,2.55642 1.018502,-0.28122 1.766409,-0.007 1.101327,0.40455 -0.543516,0.33591 -3.192874,0.45262 -4.04635,0.17825 z M 90.13007,162.6373 c 0,-0.0842 0.555262,-0.65483 1.233917,-1.26795 0.678644,-0.61313 1.789086,-1.90622 2.467625,-2.87356 1.698099,-2.42078 2.994324,-3.2417 6.019688,-3.8123 1.37736,-0.25979 2.95676,-0.6614 3.50978,-0.89246 1.37883,-0.57611 2.8287,-2.31221 3.23505,-3.87369 0.18597,-0.71464 0.46703,-1.79768 0.62458,-2.40677 0.40784,-1.57673 0.9305,-1.90442 2.70265,-1.69454 0.9855,0.11672 1.59761,0.053 1.79522,-0.18677 0.16492,-0.20013 0.507,-1.56764 0.76017,-3.03888 0.77415,-4.49879 1.6399,-5.91754 6.66829,-10.9277 2.51459,-2.50545 5.58789,-5.96428 7.1819,-8.08277 1.53251,-2.03675 3.20155,-3.99882 3.70902,-4.36017 0.50747,-0.36134 2.22019,-1.11471 3.80604,-1.67413 3.10041,-1.0937 5.65042,-2.5093 7.71846,-4.28477 2.41247,-2.07118 1.63313,-2.65947 -4.02747,-3.04019 -1.67031,-0.11229 -3.48758,-0.39255 -4.03839,-0.62269 -0.87719,-0.36651 -1.00149,-0.55891 -1.00149,-1.55016 0,-1.23243 0.60044,-2.3913 3.22317,-6.22092 0.9175,-1.3397 2.42175,-3.879217 3.34277,-5.643377 1.3699,-2.62395 1.61615,-3.31675 1.35341,-3.80768 -0.17664,-0.33007 -0.58085,-0.60013 -0.89825,-0.60013 -0.31739,0 -0.79263,-0.21555 -1.05608,-0.479 -0.43548,-0.43548 -0.4072,-0.60152 0.31123,-1.82745 0.72383,-1.2351 0.74541,-1.36565 0.25678,-1.55314 -0.2934,-0.11264 -1.30872,-0.0446 -2.25626,0.15113 -3.12194,0.64482 -3.26648,0.59231 -3.42526,-1.24429 -0.14421,-1.66794 -1.76369,-4.80036 -2.48183,-4.80036 -0.1974,0 -1.07172,0.48004 -1.94293,1.06675 -2.6457,1.78171 -3.16053,1.38594 -1.54199,-1.18542 1.32324,-2.10226 1.34478,-3.74292 0.0761,-5.79927 -1.43356,-2.32363 -2.85208,-3.31464 -4.96303,-3.46734 -1.62282,-0.11738 -2.07136,0.0116 -5.61794,1.60877 -4.6252,2.08362 -5.80669,2.8114 -9.34493,5.75627 -4.81041,4.00371 -10.005052,7.06644 -13.742599,8.10257 -2.624996,0.72771 -8.724935,1.22129 -15.175879,1.22799 -7.176229,0.007 -10.466074,-0.96413 -17.183979,-5.07487 -6.270177,-3.83676 -7.904964,-5.03225 -9.283785,-6.789 -2.872567,-3.65995 -3.997999,-6.88429 -4.846773,-13.88591 -0.495451,-4.08701 -2.054028,-10.85008 -3.365528,-14.60387 -1.728768,-4.94812 -5.27645,-9.11871 -9.337412,-10.97689 -7.813989,-3.57545 -15.301642,-2.49823 -19.638136,2.82528 -1.59647,1.95983 -3.014893,4.62786 -3.317285,6.23974 -0.115985,0.61826 -0.332774,1.12412 -0.481751,1.12412 -0.405587,0 -0.312125,-0.88867 0.272458,-2.59066 0.496114,-1.44442 0.495619,-1.57959 -0.0094,-2.59067 -1.063247,-2.12839 -0.355925,-3.94042 2.0139,-5.15926 0.784549,-0.40352 2.035784,-1.38508 2.780521,-2.18127 0.744738,-0.79618 1.66405,-1.66473 2.042916,-1.93009 0.94396,-0.66117 2.176361,-0.60524 2.840788,0.12894 0.708811,0.78323 0.344514,1.18237 -0.435157,0.47677 -0.846486,-0.76606 -1.54581,-0.42126 -3.347918,1.65066 -0.97287,1.11854 -2.258837,2.17371 -3.372653,2.76738 -2.04392,1.08939 -2.520431,1.93175 -2.057598,3.6373 l 0.28948,1.06674 0.651271,-0.88469 c 2.943953,-3.99904 4.649034,-5.38711 8.13494,-6.62248 3.908643,-1.38517 10.558524,-0.58833 15.063696,1.80506 0.841837,0.44723 2.572604,1.84459 3.846146,3.10523 1.871612,1.85266 2.58753,2.84719 3.734262,5.18754 1.797013,3.6675 3.948585,11.68921 4.618812,17.22034 0.621547,5.12938 1.128675,7.06197 2.66136,10.14201 1.474841,2.9638 3.47633,5.12417 6.509917,7.02669 11.778206,7.3867 13.380544,7.9651 22.067989,7.9659 6.018516,6.1e-4 11.366938,-0.41054 13.867691,-1.06593 3.76626,-0.98706 9.138626,-4.15474 14.573356,-8.59284 2.91673,-2.38185 3.88099,-2.9601 8.28549,-4.96862 3.25522,-1.48443 4.36264,-1.82086 5.99376,-1.82086 2.65271,0 4.61946,1.4574 6.21451,4.60509 0.97891,1.93179 0.93989,3.07721 -0.17188,5.04718 -0.50433,0.89361 -0.83806,1.62476 -0.74163,1.62476 0.0965,0 0.62339,-0.34175 1.17101,-0.75943 0.54761,-0.41769 1.42342,-0.84498 1.94625,-0.94955 0.90207,-0.18041 1.01339,-0.0911 2.18133,1.74998 0.9375,1.47783 1.23145,2.24875 1.23365,3.23544 0.004,1.50489 0.0867,1.5288 2.74914,0.78858 2.94808,-0.81964 4.05104,0.0947 2.8698,2.37892 -0.2638,0.51015 -0.43525,0.94908 -0.38098,0.97541 1.78863,0.86781 1.93033,1.0169 2.02278,2.12832 0.11602,1.39442 -1.94725,5.46125 -5.53504,10.910057 -2.38409,3.62074 -2.73885,4.60575 -1.799,4.99517 0.29336,0.12155 2.35708,0.39896 4.58605,0.61647 2.63269,0.25692 4.31464,0.56714 4.80036,0.88539 1.19022,0.77986 0.97716,1.84489 -0.70004,3.49921 -2.20375,2.1737 -4.58894,3.55571 -8.13639,4.71435 -3.37396,1.10196 -4.38327,1.87551 -6.89033,5.28083 -1.20775,1.64045 -4.50842,5.32886 -7.33484,8.19644 -5.78013,5.86434 -6.32426,6.72383 -7.08128,11.1851 -0.58287,3.43498 -0.78767,3.68323 -2.86203,3.46914 -1.88412,-0.19446 -2.20693,0.11543 -2.79976,2.68763 -0.47473,2.05978 -1.49764,3.80122 -2.71453,4.62128 -0.55393,0.37329 -2.06053,0.89696 -3.34799,1.1637 -4.83783,1.00235 -4.990671,1.09706 -7.875638,4.88088 -1.339255,1.7565 -2.527999,2.87198 -3.075375,2.88582 -0.209546,0.006 -0.380989,-0.0593 -0.380989,-0.14356 z M 17.414674,60.417793 c -1.057986,-0.64516 -1.429104,-1.42144 -2.09602,-4.38432 -0.255464,-1.13494 -0.690111,-2.40789 -0.965882,-2.82877 -0.275772,-0.42088 -0.404868,-0.86178 -0.28688,-0.97977 0.372507,-0.3725 1.375863,1.23523 1.857648,2.97661 0.913698,3.30252 2.088963,4.87655 3.641109,4.87655 0.231379,0 1.343857,-0.48117 2.472172,-1.0693 1.128316,-0.58812 2.117782,-1.00301 2.198816,-0.92197 0.483766,0.48377 -3.777162,2.89827 -5.120359,2.90151 -0.419079,9.2e-4 -1.18435,-0.25573 -1.700604,-0.57054 z M 6.9409263,55.430133 c 0.00932,-0.5448 0.2569701,-1.58164 0.5502311,-2.30408 0.5763636,-1.41986 2.6041406,-3.71541 3.2820086,-3.71541 0.639223,0 0.518404,0.2154 -0.77749,1.38616 -0.727047,0.65685 -1.383656,1.63287 -1.676316,2.49178 -0.6771992,1.98748 -0.6132907,2.11478 0.50944,1.01488 0.544802,-0.53372 1.710602,-1.38298 2.590669,-1.88723 0.880065,-0.50427 1.600118,-0.98984 1.600118,-1.07905 0,-0.0892 -0.348519,-0.57642 -0.774488,-1.08265 -1.024195,-1.21719 -0.684661,-1.49267 0.472882,-0.38367 1.407203,1.34819 1.216382,2.06044 -0.934833,3.48932 -1.015304,0.67438 -2.193296,1.63887 -2.617762,2.14333 -0.46509,0.55273 -1.063761,0.91718 -1.5066214,0.91718 -0.6293852,0 -0.7324234,-0.14218 -0.7178383,-0.99056 z m 11.8220767,-0.95814 c -1.337308,-0.4777 -3.804487,-1.89337 -4.081868,-2.34219 -0.397322,-0.64287 0.166316,-0.64638 1.248702,-0.008 1.892079,1.11637 4.563925,1.86037 6.680849,1.86037 2.30042,0 2.649666,0.4364 0.576644,0.72053 -2.037717,0.27931 -3.159873,0.22073 -4.424327,-0.23094 z m -1.47955,-7.50545 c -0.380955,-0.71183 0.11899,-2.01191 0.979049,-2.54596 0.711508,-0.4418 1.091976,0.0238 0.4206,0.51472 -0.847143,0.61944 -0.525074,1.86222 0.51354,1.98161 1.164644,0.13388 0.728715,0.66503 -0.545805,0.66503 -0.729376,0 -1.135967,-0.18299 -1.367384,-0.6154 z"
     id="path3001"
     inkscape:connector-curvature="0" />
  <path
     style="fill:#000000"
     d=""
     id="path2999"
     inkscape:connector-curvature="0" />
  <g
     inkscape:groupmode="layer"
     id="LAYER_EFO"
     inkscape:label="LAYER_EFO"
     transform="translate(0,-415)">
    <path
       style="fill:none;stroke:none"
       d="m 34.671415,465.10502 c -0.260511,-0.19034 -0.882082,-0.57631 -1.381273,-0.85769 -0.499195,-0.2814 -1.000639,-0.56532 -1.11432,-0.63095 -0.194306,-0.11217 -0.258466,-0.11229 -1.070714,-10e-4 -1.0067,0.13708 -1.692584,0.10204 -1.976482,-0.10111 -0.248308,-0.17762 -0.497603,-0.52007 -0.630855,-0.86658 l -0.112956,-0.29374 -1.130193,-0.13388 c -1.077307,-0.1276 -1.443526,-0.21901 -1.427656,-0.35637 0.01557,-0.13489 0.331044,-0.29055 0.813167,-0.40126 0.278406,-0.0639 0.508037,-0.13159 0.510295,-0.15036 0.0024,-0.0188 -0.110975,-0.0808 -0.251636,-0.13784 -0.439155,-0.17808 -1.626385,-1.19642 -2.343333,-2.00997 -0.230314,-0.26135 -0.232094,-0.26818 -0.202639,-0.77626 0.02883,-0.49722 0.03693,-0.52103 0.269902,-0.79398 0.776357,-0.90955 2.155543,-1.92599 2.827898,-2.08411 0.788246,-0.18538 2.471869,-0.094 3.452733,0.18734 1.449105,0.41567 2.331199,1.46816 2.198457,2.62314 -0.02587,0.22496 -0.09363,0.57393 -0.150613,0.7755 -0.05698,0.20158 -0.09309,0.37995 -0.08025,0.3964 0.01284,0.0164 0.105419,-0.0211 0.205735,-0.0833 0.216443,-0.13437 0.645982,-0.1053 0.811118,0.0549 0.146348,0.14197 0.200084,0.14443 0.215635,0.009 0.02076,-0.17988 0.226878,-0.37002 0.381227,-0.35173 0.07838,0.009 0.248018,0.11509 0.376964,0.23509 0.197226,0.18358 0.261169,0.2114 0.402766,0.17527 0.3823,-0.0975 0.823945,0.12134 0.932104,0.46196 0.02896,0.0912 0.09151,0.17043 0.138988,0.17606 0.04748,0.006 0.164971,0.0639 0.261091,0.12965 0.219024,0.14968 0.290036,0.40219 0.178521,0.63481 -0.07361,0.15354 -0.06548,0.18224 0.07983,0.28153 0.292743,0.20005 0.347665,0.37631 0.221204,0.70987 -0.05333,0.14065 -0.03818,0.17341 0.115017,0.2487 0.223666,0.10996 0.253147,0.31594 0.09335,0.65236 -0.117382,0.24715 -0.117318,0.26847 0.0015,0.49958 0.149987,0.29186 0.148225,0.31101 -0.05968,0.64833 -0.09067,0.14711 -0.262149,0.47122 -0.38106,0.72024 -0.214495,0.44916 -0.219484,0.45403 -0.631306,0.61574 -0.264639,0.1039 -0.533577,0.15892 -0.741971,0.15177 -0.29579,-0.0105 -0.371926,-0.0442 -0.800525,-0.35732 l 0,0 z"
       id="UBERON:0000955"
       inkscape:connector-curvature="0"
       inkscape:label="UBERON:0000955" />
    <path
       style="fill:none;stroke:none"
       d="m 42.808373,536.46512 c -1.351134,-1.03994 -2.106603,-2.03594 -2.535782,-3.34319 -0.633889,-1.93075 -1.185012,-4.12727 -1.388812,-5.53509 -0.156131,-1.07852 -0.118269,-1.26058 0.358658,-1.72474 0.307019,-0.2988 0.98805,-0.60698 1.605434,-0.72649 0.715397,-0.13848 1.153911,-0.35447 1.317691,-0.64902 0.268543,-0.48301 0.813565,-0.41738 2.675691,0.32217 1.039507,0.41284 1.042667,0.4211 0.302081,0.78816 -0.294846,0.14614 -0.520197,0.30012 -0.500786,0.34217 0.01942,0.0421 0.607632,0.28927 1.307161,0.54933 1.193551,0.44373 1.291191,0.51129 1.585797,1.09705 0.628766,1.25018 0.527136,3.57627 -0.313679,7.17956 -0.384958,1.64972 -0.881409,2.2821 -1.991846,2.53718 -0.772071,0.17736 -1.373853,-0.0306 -2.421608,-0.83709 z"
       id="UBERON:0000948"
       inkscape:connector-curvature="0"
       inkscape:label="UBERON:0000948" />
    <path
       style="fill:none;stroke:none"
       d="m 94.264821,515.73194 c -10.802858,-0.67953 -12.514563,-0.78318 -15.628273,-0.94635 -2.541895,-0.13322 -3.165033,-0.18187 -3.719992,-0.29044 -1.307792,-0.25584 -2.080148,-0.74841 -2.232278,-1.42366 -0.04182,-0.18534 -0.02574,-0.5509 0.02959,-0.67362 0.04881,-0.10833 0.254195,-0.27718 0.539071,-0.44313 1.031384,-0.60081 2.787342,-0.87684 5.141311,-0.80823 3.575505,0.10425 11.941199,0.75893 16.181112,1.26635 1.616117,0.19342 2.168012,0.30614 2.751592,0.562 0.410506,0.17997 0.602695,0.3102 0.861896,0.58401 0.30467,0.32184 0.37505,0.47879 0.37603,0.83849 6.1e-4,0.25189 -0.008,0.29069 -0.10333,0.4784 -0.12907,0.25349 -0.36172,0.47902 -0.666162,0.64575 -0.281673,0.15426 -0.458906,0.21679 -0.790679,0.27897 -0.355501,0.0666 -0.74709,0.0568 -2.739944,-0.0685 z"
       id="UBERON:0002113"
       inkscape:connector-curvature="0"
       inkscape:label="UBERON:0002113" />
    <path
       style="fill:none;stroke:none"
       d="m 63.525151,559.62116 c -0.622559,-0.16728 -0.99285,-0.41648 -1.741073,-1.1717 -0.547819,-0.55295 -2.108676,-1.93967 -2.956955,-2.62708 -2.21647,-1.79613 -3.717444,-2.73921 -5.458623,-3.42975 -1.658883,-0.65789 -3.589537,-2.06595 -5.789746,-4.22254 -0.904994,-0.88706 -3.798938,-4.27241 -4.320448,-5.05409 -0.708515,-1.06196 -1.190897,-2.22646 -1.386237,-3.34641 -0.142898,-0.8193 -0.128275,-0.97484 0.126508,-1.34549 0.51026,-0.74233 1.329564,-1.31639 1.881477,-1.31828 0.118704,-3e-4 0.215483,-0.003 0.215059,-0.007 -3.04e-4,-0.003 -0.05221,-0.1746 -0.115088,-0.37991 -0.582574,-1.90215 0.25445,-3.60182 2.098267,-4.26078 0.773852,-0.27656 1.23439,-0.31687 2.182011,-0.19099 0.879767,0.1167 1.250177,0.22839 2.340828,0.70476 0.887885,0.38782 2.407111,1.182 3.106917,1.62416 1.84079,1.16308 3.342634,2.79441 6.079413,6.60359 1.312531,1.82684 5.076854,7.25835 5.310325,7.66221 0.590529,1.0215 1.451924,2.07812 3.953211,4.84915 1.093945,1.21193 1.528896,1.79238 1.760231,2.35 0.22986,0.55375 0.173696,0.82466 -0.215077,1.03742 -0.752904,0.41203 -1.486629,0.61624 -2.13942,0.59544 l -0.383461,-0.0122 -0.03704,0.23796 c -0.117317,0.75358 -1.296644,1.52323 -2.685873,1.75286 -0.252161,0.0417 -0.610302,0.07 -0.795872,0.0629 -0.185574,-0.007 -0.421115,-0.0164 -0.523443,-0.0205 -0.102321,-0.005 -0.329966,-0.0461 -0.50587,-0.0934 l 0,0 z"
       id="UBERON:0002107"
       inkscape:connector-curvature="0"
       inkscape:label="UBERON:0002107" />
    <g
       id="CL:0000188"
       style="fill:none"
       transform="matrix(0.30258246,-0.03657135,0.03657135,0.30258246,-23.887012,439.0684)"
       inkscape:label="CL:0000188">
      <path
         inkscape:connector-curvature="0"
         id="path3037"
         d="m 299.99168,492.88016 c -0.59261,-0.78463 -2.13094,-3.27428 -3.41851,-5.53255 -1.72286,-3.02173 -3.59772,-5.21077 -7.10006,-8.28987 -11.16638,-9.81698 -32.80546,-33.26834 -35.3734,-38.33592 -2.69044,-5.30932 -3.94167,-11.06596 -3.95868,-18.21295 -0.0176,-7.40499 0.88297,-11.58363 3.85238,-17.87455 l 1.8749,-3.97213 8.58655,17.02338 c 7.93686,15.73532 9.73797,18.78374 23.80388,40.28867 8.36953,12.79591 16.56134,25.2499 18.20404,27.67553 2.84116,4.19533 3.21628,5.52007 1.56307,5.52007 -0.40574,0 -2.13698,0.7058 -3.84721,1.56846 l -3.1095,1.56847 -1.07746,-1.42661 0,0 z"
         style="fill:none;stroke:none" />
      <path
         inkscape:connector-curvature="0"
         id="path3039"
         d="m 296.03043,465.25582 c -11.86482,-18.16984 -20.91474,-33.01806 -24.56247,-40.2997 -2.21808,-4.42778 -6.3113,-12.01216 -9.09604,-16.85419 l -5.06317,-8.8037 1.34075,-0.87849 c 0.73742,-0.48318 1.55656,-0.8785 1.82032,-0.8785 1.70377,0 15.02577,18.81187 22.10165,31.20953 8.50294,14.89802 13.06729,24.50986 14.88955,31.35514 0.97676,3.66918 2.14976,7.73079 2.60666,9.02579 0.45691,1.29501 0.72191,2.46339 0.58889,2.5964 -0.13301,0.13302 -2.21478,-2.77951 -4.62614,-6.47228 z"
         style="fill:none;stroke:none" />
      <path
         sodipodi:nodetypes="csssscccsssc"
         inkscape:connector-curvature="0"
         id="path3041"
         d="m 310.09823,484.77031 c -4.14685,-6.86419 -8.16893,-16.98823 -11.99816,-30.20074 -1.54299,-5.324 -11.1922,-24.4093 -16.75934,-33.14852 -5.03543,-7.90455 -11.13543,-16.2581 -15.53394,-21.27273 -1.61666,-1.84311 -2.93937,-3.53481 -2.93937,-3.75933 0,-0.94885 12.24036,-2.81509 18.48086,-2.81771 13.73661,-0.006 25.25737,8.13714 32.7395,23.14037 2.17262,5.00467 2.97494,7.69237 3.14215,12.48382 0.27006,7.73857 -0.6733,14.14226 -3.27032,22.19965 -2.52225,7.82537 -3.24372,16.18529 -2.3475,27.20104 0.38954,4.78806 0.61108,8.80274 0.4923,8.92152 -0.11877,0.11877 -1.02156,-1.11754 -2.00618,-2.74737 z"
         style="fill:none;stroke:none" />
    </g>
  </g>
</svg>
