<?xml version="1.0" encoding="UTF-8" standalone="no"?>
<!-- Created with Inkscape (http://www.inkscape.org/) -->

<svg
   xmlns:dc="http://purl.org/dc/elements/1.1/"
   xmlns:cc="http://creativecommons.org/ns#"
   xmlns:rdf="http://www.w3.org/1999/02/22-rdf-syntax-ns#"
   xmlns:svg="http://www.w3.org/2000/svg"
   xmlns="http://www.w3.org/2000/svg"
   xmlns:sodipodi="http://sodipodi.sourceforge.net/DTD/sodipodi-0.dtd"
   xmlns:inkscape="http://www.inkscape.org/namespaces/inkscape"
   id="svg3619"
   version="1.1"
   inkscape:version="0.48.5 r10040"
   width="160"
   height="180"
   sodipodi:docname="chicken.svg">
  <metadata
     id="metadata3625">
    <rdf:RDF>
      <cc:Work
         rdf:about="">
        <dc:format>image/svg+xml</dc:format>
        <dc:type
           rdf:resource="http://purl.org/dc/dcmitype/StillImage" />
        <dc:title />
      </cc:Work>
    </rdf:RDF>
  </metadata>
  <defs
     id="defs3623" />
  <sodipodi:namedview
     pagecolor="#ffffff"
     bordercolor="#666666"
     borderopacity="1"
     objecttolerance="10"
     gridtolerance="10"
     guidetolerance="10"
     inkscape:pageopacity="0"
     inkscape:pageshadow="2"
     inkscape:window-width="1682"
     inkscape:window-height="1309"
     id="namedview3621"
     showgrid="false"
     inkscape:zoom="1.7622821"
     inkscape:cx="257.92744"
     inkscape:cy="226.01629"
     inkscape:window-x="711"
     inkscape:window-y="0"
     inkscape:window-maximized="0"
     inkscape:current-layer="LAYER_EFO" />
  <g
     id="group_all"
     transform="translate(0,-36)">
    <g
       inkscape:groupmode="layer"
       id="LAYER_EFO"
       inkscape:label="LAYER_EFO"
       transform="translate(0,-415)">
      <path
         style="fill:none;stroke:none"
         d="m 32.659049,484.15933 c -0.241607,-0.17653 -0.818073,-0.53449 -1.28104,-0.79546 -0.46297,-0.26098 -0.928027,-0.5243 -1.033459,-0.58516 -0.180206,-0.10403 -0.23971,-0.10415 -0.993017,-8.2e-4 -0.933648,0.12714 -1.569761,0.0946 -1.833058,-0.0938 -0.23029,-0.16473 -0.461495,-0.48233 -0.585077,-0.8037 l -0.104759,-0.27242 -1.04818,-0.12416 c -0.999132,-0.11834 -1.338776,-0.20312 -1.324057,-0.33051 0.01444,-0.1251 0.307021,-0.26947 0.754159,-0.37214 0.258203,-0.0592 0.47117,-0.12205 0.473265,-0.13945 0.0022,-0.0174 -0.102922,-0.075 -0.233376,-0.12784 -0.407288,-0.16516 -1.508366,-1.10961 -2.173289,-1.86412 -0.2136,-0.24239 -0.215251,-0.24872 -0.187934,-0.71993 0.02674,-0.46114 0.03425,-0.48322 0.250316,-0.73636 0.720021,-0.84355 1.999126,-1.78623 2.622691,-1.93288 0.731047,-0.17193 2.292497,-0.0872 3.202184,0.17375 1.34395,0.3855 2.162035,1.36161 2.038925,2.43279 -0.02399,0.20863 -0.08684,0.53228 -0.139683,0.71922 -0.05285,0.18695 -0.08633,0.35238 -0.07443,0.36764 0.01191,0.0152 0.09777,-0.0196 0.190806,-0.0772 0.200736,-0.12462 0.599106,-0.0977 0.752258,0.0509 0.135729,0.13166 0.185565,0.13395 0.199988,0.008 0.01925,-0.16683 0.210414,-0.34317 0.353563,-0.32621 0.0727,0.008 0.23002,0.10674 0.349609,0.21803 0.182914,0.17026 0.242218,0.19606 0.373539,0.16255 0.354559,-0.0904 0.764156,0.11254 0.864466,0.42844 0.02686,0.0846 0.08487,0.15807 0.128902,0.16329 0.04403,0.006 0.153,0.0592 0.242145,0.12024 0.20313,0.13882 0.26899,0.373 0.165567,0.58874 -0.06827,0.1424 -0.06072,0.16902 0.07404,0.2611 0.2715,0.18553 0.322436,0.34901 0.205152,0.65836 -0.04946,0.13044 -0.03541,0.16083 0.106671,0.23065 0.207436,0.10198 0.234777,0.29302 0.08657,0.60502 -0.108863,0.22922 -0.108804,0.249 0.0014,0.46333 0.139104,0.27068 0.137469,0.28844 -0.05535,0.60128 -0.08409,0.13644 -0.243126,0.43703 -0.353408,0.66798 -0.19893,0.41657 -0.203558,0.42108 -0.585495,0.57106 -0.245436,0.0964 -0.494858,0.14739 -0.68813,0.14075 -0.274326,-0.01 -0.344937,-0.041 -0.742435,-0.33138 l 0,0 z"
         id="UBERON:0000955"
         inkscape:connector-curvature="0"
         inkscape:label="UBERON:0000955" />
      <path
         style="fill:none;stroke:none"
         d="m 40.205546,550.34115 c -1.253088,-0.96447 -1.953737,-1.8882 -2.351772,-3.10059 -0.587891,-1.79065 -1.099021,-3.82777 -1.288032,-5.13343 -0.144801,-1.00026 -0.109687,-1.16911 0.332631,-1.59959 0.284741,-0.27712 0.916353,-0.56293 1.488935,-0.67377 0.663484,-0.12843 1.070177,-0.32875 1.222073,-0.60192 0.249056,-0.44796 0.754528,-0.3871 2.481528,0.29879 0.964075,0.38288 0.967006,0.39054 0.280161,0.73097 -0.273451,0.13553 -0.482449,0.27834 -0.464446,0.31733 0.01801,0.039 0.563538,0.26828 1.212306,0.50947 1.106941,0.41153 1.197495,0.4742 1.470723,1.01745 0.58314,1.15946 0.488884,3.31675 -0.290917,6.65857 -0.357023,1.53 -0.817449,2.1165 -1.847307,2.35307 -0.716045,0.16449 -1.274159,-0.0284 -2.245883,-0.77635 z"
         id="UBERON:0000948"
         inkscape:connector-curvature="0"
         inkscape:label="UBERON:0000948" />
      <path
         style="fill:none;stroke:none"
         d="m 87.928034,531.11248 c -10.018941,-0.63022 -11.606435,-0.72634 -14.494198,-0.87767 -2.357441,-0.12356 -2.935361,-0.16868 -3.450049,-0.26937 -1.212892,-0.23727 -1.929202,-0.6941 -2.070292,-1.32035 -0.03878,-0.17189 -0.02388,-0.51092 0.02744,-0.62474 0.04527,-0.10047 0.23575,-0.25707 0.499954,-0.41098 0.956541,-0.55721 2.585077,-0.81321 4.768229,-0.74958 3.316048,0.0967 11.074679,0.70386 15.006922,1.17446 1.498844,0.17939 2.010696,0.28393 2.551929,0.52122 0.380714,0.16691 0.558954,0.28769 0.799351,0.54163 0.282557,0.29849 0.347832,0.44405 0.34874,0.77764 5.64e-4,0.23362 -0.0074,0.2696 -0.09583,0.44369 -0.1197,0.2351 -0.335469,0.44426 -0.617823,0.59889 -0.261227,0.14307 -0.425599,0.20106 -0.733299,0.25873 -0.329701,0.0618 -0.692882,0.0527 -2.541121,-0.0635 z"
         id="UBERON:0002113"
         inkscape:connector-curvature="0"
         inkscape:label="UBERON:0002113" />
      <path
         style="fill:none;stroke:none"
         d="m 59.419003,571.81686 c -0.577382,-0.15514 -0.920803,-0.38626 -1.614731,-1.08667 -0.508067,-0.51282 -1.955659,-1.79892 -2.742383,-2.43645 -2.055631,-1.66579 -3.447686,-2.54043 -5.062516,-3.18087 -1.538505,-0.61015 -3.32906,-1.91603 -5.369611,-3.91612 -0.839322,-0.8227 -3.523266,-3.96239 -4.006932,-4.68734 -0.657102,-0.9849 -1.10448,-2.0649 -1.285645,-3.10358 -0.132528,-0.75985 -0.118967,-0.9041 0.117328,-1.24785 0.473233,-0.68846 1.233084,-1.22087 1.744947,-1.22262 0.110091,-2.8e-4 0.199846,-0.002 0.199454,-0.007 -2.83e-4,-0.002 -0.04842,-0.16193 -0.106737,-0.35234 -0.5403,-1.76413 0.235986,-3.34046 1.946005,-3.9516 0.717698,-0.25649 1.144816,-0.29388 2.023672,-0.17713 0.815927,0.10823 1.159458,0.21182 2.170966,0.65362 0.823455,0.35967 2.232437,1.09623 2.881462,1.5063 1.707212,1.07868 3.100074,2.59164 5.638258,6.1244 1.217287,1.69428 4.708451,6.73164 4.92498,7.10619 0.547676,0.94738 1.346564,1.92733 3.666344,4.49728 1.014562,1.12398 1.417951,1.66232 1.632499,2.17947 0.21318,0.51356 0.161092,0.76482 -0.19947,0.96214 -0.698269,0.38213 -1.378751,0.57152 -1.984172,0.55223 l -0.355635,-0.0113 -0.03435,0.22069 c -0.108804,0.69889 -1.202553,1.4127 -2.490972,1.62566 -0.233863,0.0387 -0.566015,0.0649 -0.738119,0.0583 -0.172107,-0.007 -0.390557,-0.0152 -0.485459,-0.019 -0.0949,-0.005 -0.306022,-0.0428 -0.469162,-0.0866 l 0,0 z"
         id="UBERON:0002107"
         inkscape:connector-curvature="0"
         inkscape:label="UBERON:0002107" />
      <g
         id="CL:0000188"
         style="fill:none"
         transform="matrix(0.28062545,-0.03391753,0.03391753,0.28062545,-21.650064,460.01206)"
         inkscape:label="CL:0000188">
        <path
           inkscape:connector-curvature="0"
           id="path3037"
           d="m 299.99168,492.88016 c -0.59261,-0.78463 -2.13094,-3.27428 -3.41851,-5.53255 -1.72286,-3.02173 -3.59772,-5.21077 -7.10006,-8.28987 -11.16638,-9.81698 -32.80546,-33.26834 -35.3734,-38.33592 -2.69044,-5.30932 -3.94167,-11.06596 -3.95868,-18.21295 -0.0176,-7.40499 0.88297,-11.58363 3.85238,-17.87455 l 1.8749,-3.97213 8.58655,17.02338 c 7.93686,15.73532 9.73797,18.78374 23.80388,40.28867 8.36953,12.79591 16.56134,25.2499 18.20404,27.67553 2.84116,4.19533 3.21628,5.52007 1.56307,5.52007 -0.40574,0 -2.13698,0.7058 -3.84721,1.56846 l -3.1095,1.56847 -1.07746,-1.42661 0,0 z"
           style="fill:none;stroke:none" />
        <path
           inkscape:connector-curvature="0"
           id="path3039"
           d="m 296.03043,465.25582 c -11.86482,-18.16984 -20.91474,-33.01806 -24.56247,-40.2997 -2.21808,-4.42778 -6.3113,-12.01216 -9.09604,-16.85419 l -5.06317,-8.8037 1.34075,-0.87849 c 0.73742,-0.48318 1.55656,-0.8785 1.82032,-0.8785 1.70377,0 15.02577,18.81187 22.10165,31.20953 8.50294,14.89802 13.06729,24.50986 14.88955,31.35514 0.97676,3.66918 2.14976,7.73079 2.60666,9.02579 0.45691,1.29501 0.72191,2.46339 0.58889,2.5964 -0.13301,0.13302 -2.21478,-2.77951 -4.62614,-6.47228 z"
           style="fill:none;stroke:none" />
        <path
           sodipodi:nodetypes="csssscccsssc"
           inkscape:connector-curvature="0"
           id="path3041"
           d="m 310.09823,484.77031 c -4.14685,-6.86419 -8.16893,-16.98823 -11.99816,-30.20074 -1.54299,-5.324 -11.1922,-24.4093 -16.75934,-33.14852 -5.03543,-7.90455 -11.13543,-16.2581 -15.53394,-21.27273 -1.61666,-1.84311 -2.93937,-3.53481 -2.93937,-3.75933 0,-0.94885 12.24036,-2.81509 18.48086,-2.81771 13.73661,-0.006 25.25737,8.13714 32.7395,23.14037 2.17262,5.00467 2.97494,7.69237 3.14215,12.48382 0.27006,7.73857 -0.6733,14.14226 -3.27032,22.19965 -2.52225,7.82537 -3.24372,16.18529 -2.3475,27.20104 0.38954,4.78806 0.61108,8.80274 0.4923,8.92152 -0.11877,0.11877 -1.02156,-1.11754 -2.00618,-2.74737 z"
           style="fill:none;stroke:none" />
      </g>
      <!-- CL:0000188 -->
    </g>
    <!-- LAYER_EFO -->
    <g
       inkscape:groupmode="layer"
       id="lines"
       inkscape:label="lines">
      <g
         id="g3905"
         transform="matrix(0.81817754,0,0,0.81817754,1.261785,38.262865)">
        <path
           inkscape:label="#path3001"
           inkscape:connector-curvature="0"
           id="chicken_outline"
           d="m 92.561042,198.05762 c -0.07408,-1.09463 0.07487,-1.61734 1.084474,-3.80639 l 0.998728,-2.16534 -1.549191,1.06587 c -4.358364,2.99864 -10.200135,4.23413 -12.403229,2.62319 -0.45053,-0.32944 -0.566925,-0.70816 -0.409905,-1.33377 0.171156,-0.68195 0.675174,-1.04418 2.296592,-1.65055 1.142519,-0.42729 2.077312,-0.95917 2.077312,-1.18197 0,-0.98692 4.593593,-3.79454 7.077537,-4.32585 2.510814,-0.53705 3.720291,-4.8631 3.771418,-13.48947 0.01861,-3.13858 -0.08953,-6.14927 -0.240367,-6.69041 -0.206036,-0.73933 -0.163097,-0.94693 0.172735,-0.8352 0.250599,0.0833 0.571497,1.04678 0.730487,2.19308 0.358226,2.58281 0.05124,11.45329 -0.483175,13.96363 -1.04815,4.9231 -4.203361,8.1075 -10.337668,10.43331 -4.559038,1.72854 -4.914805,2.0831 -2.480735,2.47232 2.046414,0.32724 5.063683,-0.63135 8.586495,-2.72791 4.905644,-2.91957 5.545856,-2.53046 3.395075,2.06343 -0.665061,1.4205 -1.209199,2.69921 -1.209199,2.84157 0,0.50694 2.839621,-2.50822 4.357848,-4.62725 1.781832,-2.48697 2.330286,-2.85482 4.256546,-2.85482 1.85883,0 1.82594,-0.41578 -0.31291,-3.95673 -2.324385,-3.84815 -2.792904,-5.82345 -2.790012,-11.76281 0.0026,-4.40458 0.405852,-8.62362 0.869552,-9.08732 0.46836,-0.46836 0.51785,0.38756 0.15689,2.71397 -0.222514,1.4342 -0.326813,4.63567 -0.240684,7.38868 0.170544,5.45125 0.699124,7.37407 2.863804,10.41737 1.30948,1.841 2.05968,3.7035 1.78258,4.42561 -0.0963,0.25065 -0.89401,0.53678 -1.77293,0.63585 -1.82505,0.20572 -2.55974,0.7682 -4.177682,3.19846 -1.825709,2.74234 -3.905122,4.66405 -5.046835,4.66405 -0.689912,0 -0.994819,-0.18011 -1.023551,-0.6046 z m -3.804757,-7.90158 c 1.372427,-0.87805 2.428685,-1.6631 2.347242,-1.74455 -0.157141,-0.15713 -5.411253,2.94427 -5.411253,3.19417 0,0.38307 0.765741,0.0209 3.064011,-1.44962 z m -26.204123,2.81454 c -0.294563,-0.35494 -0.349478,-1.14056 -0.181124,-2.59114 0.240538,-2.07247 0.237618,-2.08177 -0.65464,-2.08177 -0.492942,0 -1.79082,0.30704 -2.884172,0.6823 -5.984411,2.05396 -12.264288,2.78474 -14.02368,1.63196 -1.598894,-1.04765 -0.680282,-2.43186 2.014,-3.03481 1.16885,-0.26159 1.786034,-0.56388 1.685593,-0.82563 -0.191244,-0.49837 1.966114,-2.40939 3.76055,-3.33114 0.872175,-0.44802 2.47984,-0.75883 4.903501,-0.94798 3.171279,-0.24751 3.756914,-0.3966 4.858901,-1.23713 2.251686,-1.71746 6.830431,-8.64206 9.342302,-14.1287 0.49446,-1.08004 1.037005,-1.87843 1.205661,-1.7742 0.819462,0.50645 -5.892115,12.41741 -8.560347,15.19193 -0.730946,0.76007 -1.944602,1.80218 -2.697013,2.31581 -2.388714,1.6306 -7.813707,3.98947 -11.387072,4.95123 -4.139228,1.11409 -4.965892,1.48505 -4.27886,1.92016 1.389942,0.88027 5.787654,0.18977 13.462322,-2.11372 1.707742,-0.51258 2.955806,-0.7017 3.586357,-0.54343 0.965368,0.24229 0.966795,0.24703 0.795351,2.64321 -0.09446,1.32026 -0.05557,2.40049 0.08646,2.40049 0.277007,0 2.530897,-2.51107 3.552353,-3.95769 0.771726,-1.09296 1.983669,-1.14005 4.192683,-0.16288 2.782633,1.23088 3.208571,-0.33931 0.983215,-3.6246 -2.579381,-3.80792 -2.511701,-4.71324 0.890244,-11.90832 1.49259,-3.1568 2.809188,-6.01171 2.925778,-6.34423 0.3221,-0.91868 1.018168,-0.75279 0.724785,0.17274 -0.135528,0.42753 -1.427773,3.26482 -2.871661,6.30509 -3.187906,6.71249 -3.317197,7.70914 -1.37271,10.58162 2.057385,3.03925 2.400941,4.10388 1.816122,5.62791 -0.279798,0.72913 -1.945313,0.70621 -4.071805,-0.056 l -1.690376,-0.60592 -0.900758,1.19461 c -1.521666,2.01807 -3.718932,4.15963 -4.267844,4.15963 -0.28676,0 -0.711612,-0.22921 -0.944121,-0.50938 z m -7.867126,-7.86219 c 1.852661,-0.76317 3.368475,-1.53427 3.368475,-1.71356 0,-0.17929 -0.27207,-0.25135 -0.604598,-0.16012 -0.332529,0.0913 -1.459673,0.35601 -2.504764,0.5884 -2.068185,0.45991 -3.832059,1.28015 -5.182269,2.40984 l -0.863711,0.72264 1.209197,-0.22982 c 0.665056,-0.12636 2.725008,-0.85422 4.57767,-1.61738 z M 89.665357,165.7034 c -2.10013,-0.66419 -3.557037,-1.51037 -5.186508,-3.01238 l -1.479896,-1.36412 -0.759602,1.22906 c -0.843223,1.36436 -1.973967,2.06891 -3.900561,2.43034 -1.415254,0.26551 -1.835648,-0.3136 -0.475476,-0.65498 0.899424,-0.22574 4.374122,-2.93166 4.374122,-3.40635 0,-0.1665 -0.384553,-0.86864 -0.854564,-1.56031 -0.470011,-0.69169 -0.786407,-1.32575 -0.703103,-1.40908 0.08332,-0.0833 1.319123,0.93901 2.746269,2.2718 2.843437,2.65546 7.519093,5.26832 9.427553,5.26832 0.599238,0 1.185617,0.15547 1.303054,0.34548 0.303824,0.49158 -2.802585,0.39628 -4.491288,-0.13778 z m -23.056252,-0.18697 c -2.527475,-0.81253 -5.493261,-3.58321 -6.922806,-6.4674 -0.455857,-0.91972 -1.344042,-2.9695 -1.973751,-4.55506 -0.629703,-1.58556 -1.793634,-3.76211 -2.586515,-4.83678 C 51.944445,145.34486 45.511287,140.44134 36.004622,135.0824 24.187953,128.42127 16.415639,119.47921 13.041688,108.66348 10.980403,102.0557 10.871852,93.392586 12.758142,86.034252 15.860961,73.930263 17.50728,69.44641 22.934153,58.319212 c 4.965146,-10.180489 5.208795,-10.841614 5.223295,-14.173227 0.0071,-1.627759 0.146959,-2.629262 0.357131,-2.557067 0.195388,0.06711 0.329882,1.304645 0.309568,2.8485 -0.04318,3.282122 -0.552645,4.657828 -5.776466,15.598151 -4.885367,10.231499 -5.964516,13.214923 -8.966702,24.789482 -1.423641,5.488666 -1.433779,5.571721 -1.433506,11.746468 2.5e-4,5.689501 0.07962,6.506411 0.932627,9.599211 0.512793,1.85925 1.410055,4.52796 1.993913,5.93046 0.999456,2.4008 4.451115,7.90516 6.475345,10.32622 3.278012,3.92063 9.640914,9.06492 14.411366,11.65128 7.653285,4.14934 15.927506,10.47193 18.928001,14.46347 0.834018,1.10949 1.948538,3.08477 2.476707,4.38949 1.871929,4.6242 3.41287,7.52244 4.799134,9.02636 2.246958,2.43766 4.992635,3.53015 7.282831,2.8978 1.15451,-0.31878 2.002291,-0.008 1.248396,0.45857 -0.616096,0.38077 -3.619242,0.51306 -4.586688,0.20205 z m 34.629975,-0.19438 c 0,-0.0954 0.62941,-0.74227 1.39869,-1.43726 0.76927,-0.69501 2.028,-2.16078 2.79715,-3.25729 1.92485,-2.74405 3.39417,-3.67459 6.82354,-4.32138 1.56128,-0.29449 3.35159,-0.74973 3.97846,-1.01164 1.56296,-0.65304 3.20644,-2.62098 3.66705,-4.39097 0.2108,-0.81007 0.5294,-2.03774 0.70799,-2.72817 0.4623,-1.78728 1.05475,-2.15873 3.06355,-1.92082 1.1171,0.13231 1.81095,0.0601 2.03495,-0.21171 0.18694,-0.22686 0.5747,-1.77698 0.86168,-3.44468 0.87753,-5.09955 1.85889,-6.70776 7.55875,-12.38696 2.85038,-2.84002 6.33408,-6.76073 8.14095,-9.16212 1.73716,-2.30873 3.62908,-4.53281 4.20432,-4.94241 0.57523,-0.40959 2.51666,-1.26357 4.31428,-1.89769 3.51443,-1.23975 6.40496,-2.84439 8.74916,-4.85695 2.73463,-2.34776 1.85122,-3.01461 -4.56528,-3.44617 -1.89336,-0.12728 -3.9533,-0.44497 -4.57767,-0.70584 -0.99432,-0.41545 -1.13522,-0.63354 -1.13522,-1.75716 0,-1.39701 0.68062,-2.71063 3.65358,-7.051645 1.04002,-1.5186 2.74514,-4.397237 3.78915,-6.396978 1.55284,-2.974344 1.83197,-3.759659 1.53414,-4.316146 -0.20022,-0.374147 -0.65841,-0.68027 -1.0182,-0.68027 -0.35977,0 -0.89847,-0.244334 -1.1971,-0.542964 -0.49363,-0.493633 -0.46158,-0.681846 0.35279,-2.071483 0.82049,-1.400031 0.84495,-1.548015 0.29107,-1.760542 -0.33258,-0.127681 -1.48348,-0.05055 -2.55756,0.171312 -3.53883,0.730927 -3.70267,0.671405 -3.88266,-1.410449 -0.16346,-1.890672 -1.9992,-5.441386 -2.81324,-5.441386 -0.22376,0 -1.21484,0.544143 -2.20239,1.2092 -2.99899,2.019635 -3.58257,1.571015 -1.7479,-1.343717 1.49994,-2.38299 1.52436,-4.242739 0.0863,-6.573688 -1.62499,-2.633921 -3.23293,-3.757268 -5.62577,-3.930359 -1.83953,-0.133054 -2.34797,0.01315 -6.36815,1.823601 -5.24283,2.36186 -6.5821,3.186826 -10.59282,6.524946 -5.45278,4.538353 -11.3411,8.010072 -15.57775,9.184564 -2.97553,0.824886 -9.890038,1.384377 -17.202422,1.391972 -8.134523,0.0079 -11.863684,-1.092877 -19.478679,-5.752554 -7.107478,-4.34911 -8.96057,-5.704242 -10.523515,-7.695583 -3.256161,-4.14869 -4.53188,-7.803599 -5.493997,-15.740195 C 52.124655,48.407688 50.35795,40.741497 48.871316,36.486437 46.911693,30.877559 42.890264,26.15004 38.287013,24.043724 c -8.857447,-4.052905 -17.34498,-2.831836 -22.260557,3.20256 -1.809658,2.22154 -3.417493,5.245851 -3.760266,7.072977 -0.131473,0.700821 -0.377211,1.274232 -0.546082,1.274232 -0.459748,0 -0.353806,-1.007341 0.308841,-2.936609 0.562364,-1.637304 0.561802,-1.790524 -0.01066,-2.936621 -1.20523,-2.412609 -0.403455,-4.466612 2.28283,-5.848213 0.889316,-0.457405 2.307637,-1.57004 3.151824,-2.47255 0.844188,-0.9025 1.886262,-1.887034 2.315721,-2.187829 1.070014,-0.749461 2.466986,-0.686062 3.220139,0.146158 0.803463,0.88782 0.390519,1.34026 -0.493267,0.540437 -0.959523,-0.868358 -1.752233,-0.477514 -3.794989,1.871084 -1.102784,1.267907 -2.560476,2.463981 -3.823028,3.136928 -2.316859,1.234864 -2.857002,2.18971 -2.332363,4.123015 l 0.328136,1.209189 0.73824,-1.002829 c 3.33708,-4.53306 5.269853,-6.106489 9.221256,-7.506827 4.430592,-1.570142 11.96848,-0.666894 17.075259,2.046103 0.954254,0.506951 2.916142,2.090911 4.35975,3.519893 2.121541,2.100059 2.933061,3.227396 4.232924,5.880269 2.036981,4.157248 4.475868,13.250154 5.235595,19.519895 0.704547,5.814343 1.279395,8.005006 3.016751,11.496345 1.671787,3.359578 3.940549,5.808437 7.379232,7.965014 13.351034,8.373099 15.167344,9.028737 25.014885,9.029644 6.822212,6.91e-4 12.884846,-0.465362 15.719536,-1.208271 4.2692,-1.118869 10.35897,-4.709552 16.51944,-9.740304 3.30622,-2.699915 4.39925,-3.355383 9.39191,-5.632115 3.68992,-1.682656 4.94522,-2.064012 6.79415,-2.064012 3.00695,0 5.23633,1.652017 7.04438,5.22004 1.10963,2.189756 1.0654,3.488132 -0.19483,5.721166 -0.57168,1.01294 -0.94997,1.841726 -0.84067,1.841726 0.10939,0 0.70664,-0.387386 1.32739,-0.860842 0.62073,-0.473467 1.6135,-0.957816 2.20614,-1.07635 1.02253,-0.204502 1.14872,-0.103265 2.47262,1.983667 1.06269,1.675175 1.3959,2.549042 1.39839,3.667491 0.005,1.705849 0.0983,1.732952 3.11626,0.893885 3.34175,-0.929092 4.592,0.107346 3.25302,2.696594 -0.29902,0.578274 -0.49338,1.075818 -0.43186,1.105664 2.02748,0.983695 2.1881,1.152694 2.2929,2.41253 0.13151,1.580626 -2.20727,6.190529 -6.27418,12.366954 -2.70245,4.104248 -3.10458,5.220788 -2.03923,5.662208 0.33254,0.13779 2.67184,0.45224 5.19847,0.69879 2.98425,0.29123 4.8908,0.64288 5.44139,1.00363 1.34915,0.884 1.10764,2.09125 -0.79353,3.96648 -2.49803,2.46397 -5.20173,4.03053 -9.2229,5.34389 -3.8245,1.24912 -4.96861,2.12596 -7.81044,5.98602 -1.36904,1.85951 -5.11046,6.04046 -8.31432,9.29097 -6.55199,6.64745 -7.16879,7.62171 -8.02689,12.67872 -0.6607,3.89368 -0.89285,4.17508 -3.24422,3.9324 -2.13572,-0.22042 -2.50163,0.13085 -3.17363,3.04653 -0.53812,2.33484 -1.69763,4.30883 -3.07702,5.23839 -0.6279,0.42314 -2.33569,1.01674 -3.79507,1.3191 -5.48386,1.1362 -5.65711,1.24356 -8.92733,5.53266 -1.51809,1.99106 -2.86558,3.2555 -3.48605,3.27118 -0.23753,0.007 -0.43186,-0.0672 -0.43186,-0.16273 z M 18.813478,49.452447 c -1.199266,-0.731313 -1.619942,-1.611255 -2.375916,-4.96979 -0.289578,-1.286496 -0.782267,-2.729433 -1.094863,-3.206516 -0.312598,-0.477083 -0.458933,-0.976859 -0.32519,-1.110605 0.422251,-0.422243 1.559592,1.400179 2.105713,3.374098 1.035711,3.743529 2.367918,5.52775 4.127333,5.52775 0.262276,0 1.523312,-0.545424 2.802298,-1.212091 1.278989,-0.666656 2.400585,-1.136949 2.49244,-1.045087 0.548367,0.548371 -4.281553,3.285296 -5.804117,3.288969 -0.475042,10e-4 -1.342505,-0.289879 -1.927698,-0.646728 z M 6.9410962,43.798749 c 0.010565,-0.617551 0.2912851,-1.792848 0.6237073,-2.61176 0.6533296,-1.609464 2.9518905,-4.211556 3.7202785,-4.211556 0.724583,0 0.58763,0.244164 -0.881314,1.571264 -0.8241344,0.744564 -1.5684251,1.850919 -1.900166,2.824525 -0.7676305,2.252883 -0.6951878,2.397182 0.5774691,1.150405 0.6175533,-0.604992 1.9390309,-1.56766 2.9366199,-2.139246 0.997586,-0.571608 1.813793,-1.12202 1.813793,-1.223143 0,-0.101111 -0.395059,-0.653393 -0.877911,-1.227224 -1.160963,-1.37973 -0.776089,-1.691997 0.536029,-0.434904 1.595117,1.528223 1.378814,2.335585 -1.059668,3.955274 -1.150884,0.764434 -2.4861822,1.85772 -2.9673302,2.429544 -0.5271967,0.62654 -1.2058126,1.039657 -1.7078113,1.039657 -0.7134315,0 -0.8302291,-0.161166 -0.8136963,-1.122836 z M 20.341859,42.712662 c -1.515888,-0.541491 -4.312527,-2.146206 -4.626949,-2.65496 -0.450379,-0.728717 0.188526,-0.732695 1.41545,-0.0091 2.144742,1.265447 5.173379,2.108798 7.572991,2.108798 2.607611,0 3.003495,0.494676 0.653647,0.816748 -2.309828,0.316608 -3.581833,0.250206 -5.015139,-0.261779 z m -1.677125,-8.507707 c -0.431826,-0.806885 0.13488,-2.280574 1.109789,-2.88594 0.80652,-0.500797 1.237795,0.02698 0.476765,0.583454 -0.960268,0.702159 -0.59519,2.110896 0.582117,2.246229 1.320167,0.151758 0.826026,0.753836 -0.61869,0.753836 -0.826775,0 -1.287661,-0.207426 -1.549981,-0.697579 z"
           style="fill:#a0a1a2;fill-opacity:1" />
        <path
           inkscape:label="bracket"
           inkscape:connector-curvature="0"
           id="bracket"
           d="m 170.05789,210.39264 c 0,-0.0417 0.20577,-0.58531 0.45728,-1.20798 0.59084,-1.46281 1.31244,-3.92054 1.69269,-5.76525 0.76337,-3.7032 0.92047,-8.18108 1.09483,-31.20364 0.1744,-23.02768 0.32279,-28.26885 1.01901,-35.99109 0.43637,-4.84005 0.97594,-8.08777 1.79644,-10.81293 1.64642,-5.46828 5.48768,-10.45283 12.05088,-15.63765 l 0.89304,-0.70549 -0.88799,-0.64934 c -4.41968,-3.23183 -8.4833,-7.55326 -10.21373,-10.86163 -1.73753,-3.32201 -3.18137,-9.001985 -3.805,-14.9686 -0.53462,-5.11502 -0.84734,-18.072838 -0.85539,-35.442433 -0.006,-12.091839 -0.19982,-23.401269 -0.46279,-26.946542 -0.33438,-4.508028 -0.78655,-6.813866 -2.00673,-10.2331445 -0.3399,-0.9525339 -0.61802,-1.7659363 -0.61802,-1.8075587 0,-0.2263549 1.37337,1.2007911 2.00733,2.0859252 2.09145,2.920106 3.05503,5.983585 3.61698,11.499481 0.71424,7.01059 0.87709,12.447158 1.03076,34.412627 0.0769,10.997451 0.17615,20.342931 0.22044,20.76772 0.0443,0.424798 0.15426,1.737795 0.24433,2.917781 0.35518,4.653036 1.08891,9.124022 2.00996,12.24769 0.77694,2.634934 2.31903,5.91445 3.89071,8.274284 1.49021,2.23746 4.42849,5.53804 6.4094,7.1996 1.01011,0.84728 1.42919,1.305 1.42924,1.56104 6e-5,0.25528 -0.51334,0.82048 -1.73818,1.91354 -5.83784,5.20971 -9.36605,11.17985 -10.77617,18.23446 -0.62098,3.10661 -0.94693,5.74326 -1.46401,11.84274 -0.0441,0.5192 -0.14349,10.01913 -0.22103,21.11099 -0.13871,19.83945 -0.25861,25.02178 -0.72065,31.15159 -0.55248,7.3297 -1.35393,10.80005 -3.18125,13.77523 -0.80098,1.30416 -2.91238,3.65203 -2.91238,3.23858 z"
           style="fill:#d0d6d3;fill-opacity:1" />
      </g>
      <!-- g3905 -->
    </g>
    <!-- lines -->
  </g>
  <!-- group_all -->
</svg>
