<?xml version="1.0" encoding="UTF-8" standalone="no"?>
<!-- Created with Inkscape (http://www.inkscape.org/) -->

<svg
   xmlns:dc="http://purl.org/dc/elements/1.1/"
   xmlns:cc="http://creativecommons.org/ns#"
   xmlns:rdf="http://www.w3.org/1999/02/22-rdf-syntax-ns#"
   xmlns:svg="http://www.w3.org/2000/svg"
   xmlns="http://www.w3.org/2000/svg"
   xmlns:sodipodi="http://sodipodi.sourceforge.net/DTD/sodipodi-0.dtd"
   xmlns:inkscape="http://www.inkscape.org/namespaces/inkscape"
   id="svg3619"
   version="1.1"
   inkscape:version="0.48.5 r10040"
   width="519"
   height="631"
   sodipodi:docname="chicken.svg">
  <metadata
     id="metadata3625">
    <rdf:RDF>
      <cc:Work
         rdf:about="">
        <dc:format>image/svg+xml</dc:format>
        <dc:type
           rdf:resource="http://purl.org/dc/dcmitype/StillImage" />
        <dc:title />
      </cc:Work>
    </rdf:RDF>
  </metadata>
  <defs
     id="defs3623" />
  <sodipodi:namedview
     pagecolor="#ffffff"
     bordercolor="#666666"
     borderopacity="1"
     objecttolerance="10"
     gridtolerance="10"
     guidetolerance="10"
     inkscape:pageopacity="0"
     inkscape:pageshadow="2"
     inkscape:window-width="1682"
     inkscape:window-height="1309"
     id="namedview3621"
     showgrid="false"
     inkscape:zoom="1.2461216"
     inkscape:cx="257.92744"
     inkscape:cy="226.01629"
     inkscape:window-x="711"
     inkscape:window-y="0"
     inkscape:window-maximized="0"
     inkscape:current-layer="svg3619" />
  <path
     style="fill:#a0a1a2;fill-opacity:1"
     d="m 292.07903,590.05249 c -0.21452,-3.16839 0.21654,-4.68135 3.13901,-11.01754 l 2.89081,-6.26754 -4.48411,3.08514 c -12.61523,8.67951 -29.52416,12.25564 -35.90096,7.59281 -1.30406,-0.95356 -1.64096,-2.04976 -1.18647,-3.86059 0.49541,-1.9739 1.95428,-3.02238 6.64745,-4.77751 3.30701,-1.23674 6.01275,-2.77629 6.01275,-3.42121 0,-2.85656 13.2961,-10.98323 20.48584,-12.5211 7.26749,-1.55449 10.76833,-14.07618 10.91628,-39.04504 0.0538,-9.08458 -0.25925,-17.79896 -0.69574,-19.36529 -0.59635,-2.13999 -0.47206,-2.7409 0.5,-2.4175 0.72535,0.24131 1.65417,3.02987 2.11437,6.34787 1.0369,7.47586 0.14847,33.15136 -1.39853,40.4175 -3.03386,14.24984 -12.16658,23.46704 -29.92222,30.19903 -13.19608,5.00324 -14.22584,6.02952 -7.18045,7.15612 5.9233,0.94718 14.65673,-1.82743 24.85346,-7.89592 14.19931,-8.45059 16.0524,-7.32433 9.82699,5.9726 -1.925,4.11163 -3.5,7.81283 -3.5,8.22488 0,1.46736 8.21926,-7.26002 12.61374,-13.39354 5.1575,-7.19847 6.74499,-8.26317 12.32052,-8.26317 5.38031,0 5.28513,-1.20348 -0.90572,-11.45274 -6.72789,-11.13838 -8.08402,-16.85585 -8.07567,-34.04726 0.006,-12.74901 1.17474,-24.96094 2.51691,-26.30311 1.35568,-1.35569 1.49891,1.1218 0.45414,7.85553 -0.64409,4.15126 -0.94596,13.41792 -0.69667,21.38643 0.49362,15.77857 2.02363,21.34413 8.28921,30.15291 3.79029,5.32876 5.96172,10.71975 5.15967,12.80985 -0.27841,0.72552 -2.58769,1.55375 -5.13174,1.8405 -5.28254,0.59542 -7.40908,2.22351 -12.0922,9.25789 -5.28449,7.93767 -11.30333,13.5 -14.60799,13.5 -1.99696,0 -2.87949,-0.5213 -2.96268,-1.75 z m -11.0128,-22.87098 c 3.97246,-2.54155 7.02979,-4.81385 6.79407,-5.04957 -0.45485,-0.45484 -15.66279,8.52211 -15.66279,9.24544 0,1.10882 2.21642,0.0602 8.86872,-4.19587 z m -75.84744,8.14662 c -0.85261,-1.02733 -1.01156,-3.30133 -0.52426,-7.5 0.69623,-5.99875 0.68778,-6.02564 -1.89485,-6.02564 -1.42681,0 -5.1835,0.88869 -8.34819,1.97487 -17.32179,5.94514 -35.4988,8.06042 -40.59133,4.72366 -4.62798,-3.03237 -1.96907,-7.03894 5.82949,-8.78418 3.38322,-0.75714 5.16965,-1.63215 4.87892,-2.38976 -0.55355,-1.44253 5.69089,-6.97395 10.88486,-9.64196 2.5245,-1.29677 7.17786,-2.19639 14.19311,-2.7439 9.17922,-0.7164 10.87433,-1.14799 14.06402,-3.58089 6.51747,-4.97112 19.77058,-25.01425 27.04115,-40.89526 1.43121,-3.12618 3.0016,-5.43711 3.48977,-5.13541 2.37192,1.46593 -17.05464,35.942 -24.7778,43.97283 -2.11571,2.2 -5.62862,5.21637 -7.80646,6.70304 -6.9141,4.7198 -22.61666,11.54748 -32.95971,14.33131 -11.98094,3.22467 -14.3737,4.29842 -12.3851,5.55782 4.02317,2.54793 16.75228,0.54933 38.96649,-6.11812 4.94304,-1.48362 8.55554,-2.03101 10.38066,-1.57293 2.79424,0.70131 2.79837,0.71505 2.30213,7.65073 -0.27343,3.82148 -0.16081,6.94815 0.25027,6.94815 0.80179,0 7.32564,-7.26824 10.28223,-11.45547 2.23375,-3.16352 5.7417,-3.29979 12.13566,-0.47143 8.05429,3.56279 9.28716,-0.98213 2.8459,-10.49133 -7.46598,-11.02198 -7.27008,-13.64241 2.5768,-34.46845 4.32028,-9.13732 8.13115,-17.40082 8.46862,-18.36332 0.93231,-2.65909 2.94707,-2.1789 2.09788,0.5 -0.39228,1.2375 -4.13267,9.45 -8.31198,18.25 -9.22735,19.4292 -9.60158,22.31401 -3.97329,30.62835 5.95507,8.79707 6.94949,11.87863 5.25674,16.28986 -0.80987,2.11049 -5.63068,2.04417 -11.78578,-0.16215 l -4.89277,-1.75383 -2.60723,3.45779 c -4.40444,5.84129 -10.76439,12.03998 -12.35321,12.03998 -0.83002,0 -2.05975,-0.66346 -2.73274,-1.47436 z m -22.77128,-22.757 c 5.3625,-2.20898 9.75,-4.44092 9.75,-4.95987 0,-0.51895 -0.7875,-0.72751 -1.75,-0.46347 -0.9625,0.26404 -4.225,1.03045 -7.25,1.70315 -5.98633,1.33122 -11.09184,3.70535 -15,6.97521 l -2.5,2.09168 3.5,-0.66519 c 1.925,-0.36585 7.8875,-2.47253 13.25,-4.68151 z m 101.25,-56.16746 c -6.07876,-1.92246 -10.29577,-4.37174 -15.01225,-8.71924 l -4.28354,-3.94843 -2.19865,3.55749 c -2.4407,3.94913 -5.71362,5.9884 -11.29012,7.03456 -4.09643,0.7685 -5.31326,-0.90772 -1.37626,-1.89584 2.60337,-0.6534 12.66082,-8.48563 12.66082,-9.8596 0,-0.48193 -1.11308,-2.51427 -2.47351,-4.51633 -1.36043,-2.00205 -2.27623,-3.83738 -2.03511,-4.07851 0.24113,-0.24112 3.81819,2.71793 7.94902,6.57567 8.2303,7.6862 21.7639,15.24905 27.28792,15.24905 1.7345,0 3.43176,0.45 3.77168,1 0.87939,1.42288 -8.11204,1.14703 -13,-0.39882 z m -66.73596,-0.54116 c -7.31574,-2.35183 -15.90016,-10.37154 -20.03796,-18.71981 -1.31947,-2.66211 -3.89031,-8.59516 -5.71299,-13.18454 -1.82267,-4.58939 -5.19165,-10.88939 -7.48663,-14 -9.20906,-12.48199 -27.82974,-26.67511 -55.34664,-42.18652 -34.203173,-19.28049 -56.700019,-45.16317 -66.46587,-76.46915 -5.966362,-19.12612 -6.280557,-44.20139 -0.82072,-65.5 8.981062,-35.03477 13.746306,-48.01322 29.454309,-80.22075 14.371541,-29.46727 15.076781,-31.38091 15.118751,-41.02417 0.0205,-4.71154 0.42537,-7.61038 1.03371,-7.4014 0.56555,0.19427 0.95484,3.77626 0.89604,8.24491 -0.12499,9.5001 -1.59962,13.48203 -16.719893,45.14864 -14.140622,29.61491 -17.264202,38.2504 -25.953989,71.75277 -4.120707,15.88686 -4.150046,16.12728 -4.14926,34 7.25e-4,16.46816 0.230457,18.83271 2.699475,27.78475 1.484276,5.38162 4.081383,13.10615 5.771349,17.16563 2.892916,6.9491 12.88369,22.88137 18.742792,29.88911 9.488156,11.34823 27.905486,26.23826 41.713486,33.72446 22.15232,12.01021 46.10193,30.31085 54.78682,41.86431 2.41405,3.21139 5.64001,8.92879 7.16879,12.70532 5.41827,13.38463 9.8785,21.77357 13.89102,26.12664 6.50379,7.05578 14.45111,10.21797 21.08005,8.38764 3.34171,-0.9227 5.7956,-0.0213 3.61346,1.32734 -1.78328,1.10212 -10.47584,1.48503 -13.2761,0.58482 z m 100.23596,-0.56262 c 0,-0.27643 1.82181,-2.1485 4.04847,-4.16016 2.22666,-2.01165 5.87,-6.25431 8.09631,-9.42814 5.57145,-7.94264 9.82438,-10.63606 19.75063,-12.50823 4.51913,-0.85235 9.70115,-2.17001 11.51559,-2.92813 4.52399,-1.89024 9.28101,-7.58636 10.61424,-12.70961 0.61017,-2.34472 1.53233,-5.89821 2.04926,-7.89664 1.33812,-5.17323 3.05295,-6.24841 8.86738,-5.55978 3.23345,0.38295 5.2418,0.17401 5.89017,-0.61281 0.5411,-0.65665 1.66345,-5.1434 2.49411,-9.97057 2.54,-14.76055 5.38052,-19.41546 21.87873,-35.85383 8.25036,-8.22044 18.33391,-19.56884 23.56385,-26.51965 5.02813,-6.68258 10.50432,-13.12016 12.16932,-14.30574 1.66499,-1.18558 7.28442,-3.65736 12.48763,-5.49284 10.17248,-3.58845 18.53909,-8.23303 25.32431,-14.05836 7.91531,-6.79554 5.35832,-8.72571 -13.21415,-9.97485 -5.48027,-0.3686 -11.44277,-1.28798 -13.25,-2.04309 -2.87803,-1.20252 -3.28585,-1.83378 -3.28585,-5.08609 0,-4.04361 1.97,-7.84583 10.57524,-20.41089 3.01031,-4.39553 7.94574,-12.7277 10.96763,-18.51592 4.49464,-8.6092 5.3026,-10.8823 4.44055,-12.49306 -0.57958,-1.08295 -1.90581,-1.96901 -2.94718,-1.96901 -1.04136,0 -2.60061,-0.70723 -3.465,-1.57161 -1.42882,-1.42882 -1.33603,-1.9736 1.02117,-5.99586 2.37486,-4.05239 2.44567,-4.48069 0.84248,-5.09589 -0.96266,-0.36941 -4.29391,-0.14627 -7.40279,0.49586 -10.24313,2.11568 -10.71736,1.94341 -11.23833,-4.0825 -0.47313,-5.47252 -5.78668,-15.75 -8.14289,-15.75 -0.64767,0 -3.51632,1.575 -6.37478,3.5 -8.68055,5.84582 -10.36968,4.54728 -5.05927,-3.8894 4.34158,-6.8975 4.41223,-12.28053 0.24975,-19.0274 -4.70354,-7.62384 -9.35767,-10.87537 -16.28374,-11.37636 -5.32446,-0.38513 -6.79612,0.0363 -18.43247,5.27838 -15.17535,6.83637 -19.05183,9.22419 -30.66084,18.88637 -15.78297,13.13617 -32.82662,23.18502 -45.08953,26.58455 -8.61263,2.3876 -28.62655,4.00707 -49.79216,4.02903 -23.54525,0.0244 -34.33925,-3.16331 -56.38074,-16.65065 -20.57249,-12.58846 -25.93624,-16.51083 -30.46016,-22.27477 -9.42491,-12.00832 -13.11746,-22.58739 -15.90229,-45.55975 -1.62558,-13.40952 -6.73928,-35.59917 -11.04232,-47.91541 -5.6721,-16.23482 -17.31207,-29.918528 -30.63611,-36.015216 -25.63775,-11.731075 -50.204787,-8.196696 -64.432852,9.269746 -5.23803,6.43023 -9.891884,15.18404 -10.884032,20.47264 -0.380555,2.02853 -1.091837,3.68824 -1.580627,3.68824 -1.330732,0 -1.024084,-2.91577 0.893937,-8.5 1.627751,-4.73912 1.626129,-5.18261 -0.03109,-8.5 -3.488517,-6.983235 -1.16779,-12.92853 6.607622,-16.927572 2.574111,-1.323913 6.679419,-4.544442 9.122908,-7.156729 2.443489,-2.612287 5.459757,-5.461982 6.702818,-6.332656 3.09714,-2.169321 7.140655,-1.985776 9.320646,0.423088 2.325613,2.569773 1.130351,3.879324 -1.427754,1.564272 -2.777326,-2.513444 -5.071813,-1.382163 -10.984542,5.415847 -3.191991,3.669911 -7.411259,7.131951 -11.065695,9.079745 -6.706116,3.574323 -8.269552,6.338072 -6.750993,11.934005 l 0.949788,3.5 2.136823,-2.90265 c 9.65913,-13.120917 15.253509,-17.675183 26.690788,-21.728411 12.824285,-4.544764 34.642585,-1.930314 49.424085,5.922403 2.76207,1.467361 8.44073,6.052093 12.61923,10.188293 6.14077,6.078595 8.4897,9.341655 12.25214,17.020365 5.89601,12.03304 12.95533,38.35233 15.15435,56.5 2.0393,16.82957 3.70319,23.17039 8.73194,33.27603 4.83896,9.72422 11.40586,16.81241 21.35908,23.05457 38.64437,24.23583 43.90165,26.13356 72.40521,26.13621 19.74678,0.002 37.29498,-1.34701 45.5,-3.49736 12.35711,-3.23852 29.98384,-13.63171 47.81523,-28.19313 9.56981,-7.81488 12.73357,-9.71211 27.18477,-16.30208 10.68039,-4.87043 14.31385,-5.97424 19.66556,-5.97424 8.70356,0 15.15645,4.78173 20.38983,15.10931 3.21181,6.3382 3.08383,10.09635 -0.56394,16.55983 -1.6547,2.93197 -2.74968,5.33086 -2.43328,5.33086 0.3164,0 2.04533,-1.12127 3.84206,-2.4917 1.79674,-1.37044 4.67029,-2.7724 6.38568,-3.11548 2.95971,-0.59194 3.32497,-0.29892 7.15699,5.7417 3.07591,4.84873 4.04036,7.37816 4.0476,10.61548 0.011,4.93759 0.28447,5.01602 9.01992,2.58735 9.67267,-2.68924 13.29149,0.31057 9.41584,7.80524 -0.86555,1.6738 -1.42805,3.11395 -1.25,3.20034 5.86853,2.84728 6.33343,3.33644 6.63676,6.98303 0.38056,4.57509 -6.38895,17.9184 -18.16051,35.79596 -7.82224,11.8797 -8.98617,15.11152 -5.90251,16.38918 0.9625,0.3988 7.73357,1.309 15.04683,2.02267 8.63789,0.84293 14.15638,1.86078 15.75,2.90496 3.90513,2.55874 3.20607,6.05307 -2.29683,11.48094 -7.23051,7.13191 -15.05631,11.6663 -26.69553,15.46778 -11.06997,3.61556 -14.38153,6.15359 -22.60724,17.32646 -3.9626,5.38235 -14.79213,17.48402 -24.06561,26.89259 -18.96465,19.24092 -20.74998,22.0609 -23.23374,36.69837 -1.91239,11.27019 -2.58436,12.0847 -9.39036,11.38226 -6.18178,-0.63802 -7.24095,0.37874 -9.186,8.81813 -1.55758,6.75817 -4.91376,12.47181 -8.90641,15.16246 -1.81744,1.22477 -6.76059,2.94293 -10.98477,3.81813 -15.87294,3.28868 -16.3744,3.59946 -25.84001,16.01415 -4.39411,5.76314 -8.29437,9.423 -10.09033,9.4684 -0.6875,0.0174 -1.25,-0.19457 -1.25,-0.471 z M 78.617819,159.91702 c -3.471258,-2.11677 -4.6889,-4.66376 -6.877054,-14.38499 -0.83818,-3.72376 -2.264261,-7.9003 -3.169068,-9.28121 -0.904807,-1.38091 -1.328371,-2.82748 -0.941253,-3.2146 1.2222,-1.2222 4.514215,4.05277 6.094954,9.76627 2.997849,10.83557 6.853903,16 11.946502,16 0.759156,0 4.409202,-1.57878 8.111214,-3.5084 3.702011,-1.92962 6.948456,-3.29087 7.214326,-3.025 1.58724,1.58724 -12.392889,9.50926 -16.79993,9.51989 -1.375,0.003 -3.885861,-0.83906 -5.579691,-1.87196 z M 44.253383,143.55249 c 0.03073,-1.7875 0.843121,-5.18937 1.805314,-7.55971 1.89105,-4.65856 8.544202,-12.19029 10.768293,-12.19029 2.097291,0 1.700886,0.70674 -2.550953,4.54802 -2.385441,2.1551 -4.53978,5.35744 -5.5,8.17554 -2.221897,6.5209 -2.012214,6.93862 1.671473,3.32983 1.7875,-1.75116 5.6125,-4.53758 8.5,-6.19205 2.8875,-1.65447 5.25,-3.24764 5.25,-3.54037 0,-0.29274 -1.143494,-1.89122 -2.541099,-3.55218 -3.36039,-3.9936 -2.246379,-4.89742 1.55153,-1.2588 4.617041,4.42341 3.990953,6.76031 -3.067193,11.44846 -3.33122,2.21266 -7.196222,5.37719 -8.588894,7.03228 -1.525962,1.81351 -3.49021,3.00927 -4.943238,3.00927 -2.065017,0 -2.403086,-0.4665 -2.355233,-3.25 z m 38.78831,-3.14368 c -4.387714,-1.56733 -12.482542,-6.21215 -13.392634,-7.68472 -1.303616,-2.10929 0.545686,-2.12078 4.097001,-0.0255 6.207921,3.66281 14.974269,6.1039 21.919905,6.1039 7.547695,0 8.693575,1.43181 1.891974,2.36408 -6.68576,0.91638 -10.367565,0.72419 -14.516246,-0.75776 z m -4.854408,-24.62543 c -1.249922,-2.3355 0.390404,-6.60106 3.212261,-8.35328 2.334467,-1.44958 3.582781,0.078 1.379993,1.68875 -2.77948,2.03241 -1.722768,6.10999 1.684926,6.5017 3.821208,0.43924 2.390921,2.18194 -1.790788,2.18194 -2.393086,0 -3.727113,-0.60038 -4.486392,-2.01911 z"
     id="path3001"
     inkscape:connector-curvature="0" />
  <path
     style="fill:#000000"
     d=""
     id="path2999"
     inkscape:connector-curvature="0" />
  <g
     inkscape:groupmode="layer"
     id="LAYER_EFO"
     inkscape:label="LAYER_EFO">
    <path
       style="fill:none;fill-opacity:1;stroke:none"
       d="m 135.2373,126.08076 c -0.85474,-0.62452 -2.89412,-1.89087 -4.53197,-2.81411 -1.63786,-0.92325 -3.2831,-1.85481 -3.65609,-2.07013 -0.63752,-0.36803 -0.84803,-0.36837 -3.51302,-0.005 -3.30299,0.44976 -5.55338,0.33467 -6.48485,-0.33163 -0.8147,-0.58277 -1.63264,-1.70634 -2.06984,-2.84326 l -0.37062,-0.96377 -3.70817,-0.43922 c -3.53465,-0.41867 -4.73622,-0.71862 -4.68415,-1.1693 0.0511,-0.44255 1.08616,-0.95328 2.66801,-1.31652 0.91345,-0.20976 1.66687,-0.43175 1.67428,-0.49333 0.008,-0.0616 -0.36412,-0.26507 -0.82562,-0.45222 -1.44087,-0.58429 -5.33618,-3.92548 -7.68849,-6.59476 -0.75566,-0.8575 -0.7615,-0.87987 -0.66486,-2.54691 0.0946,-1.63137 0.12114,-1.70949 0.88555,-2.60505 2.54723,-2.984242 7.07235,-6.319177 9.27835,-6.837979 2.58624,-0.608222 8.11022,-0.308507 11.32844,0.614651 4.75452,1.36385 7.64868,4.817088 7.21315,8.606558 -0.0849,0.73809 -0.3072,1.88307 -0.49416,2.54443 -0.18696,0.66135 -0.30544,1.24661 -0.2633,1.30058 0.0421,0.054 0.34589,-0.0691 0.67502,-0.27337 0.71015,-0.4409 2.11947,-0.34553 2.66128,0.18007 0.48017,0.46581 0.65648,0.47389 0.7075,0.0324 0.0681,-0.59014 0.74439,-1.214 1.25081,-1.15401 0.25718,0.0305 0.81375,0.37758 1.23682,0.77135 0.6471,0.60231 0.8569,0.6936 1.32148,0.57506 1.25433,-0.32005 2.70337,0.39811 3.05824,1.51568 0.095,0.29926 0.30024,0.5592 0.45602,0.57766 0.15579,0.0185 0.54127,0.20987 0.85664,0.42538 0.71862,0.49109 0.95161,1.31959 0.58573,2.0828 -0.24151,0.50379 -0.21481,0.59795 0.26192,0.92373 0.96049,0.65638 1.14069,1.23464 0.72577,2.32907 -0.17497,0.46149 -0.12527,0.56898 0.37736,0.81598 0.73385,0.36067 0.83058,1.03662 0.30629,2.14044 -0.38513,0.81087 -0.38492,0.8808 0.005,1.6391 0.49211,0.95758 0.48633,1.02043 -0.1958,2.12715 -0.29749,0.4827 -0.86011,1.5461 -1.25026,2.36311 -0.70376,1.47374 -0.72013,1.48971 -2.07132,2.02027 -0.86828,0.34096 -1.75067,0.52143 -2.43441,0.49794 -0.97049,-0.0333 -1.22029,-0.14475 -2.62653,-1.17234 l 0,0 z"
       id="UBERON:0000955"
       inkscape:connector-curvature="0"
       inkscape:label="UBERON:0000955" />
    <path
       style="fill:none;fill-opacity:1;stroke:none"
       d="m 161.93471,360.21369 c -4.43308,-3.41201 -6.91178,-6.67993 -8.31992,-10.96901 -2.07979,-6.3348 -3.88803,-13.5416 -4.5567,-18.16068 -0.51227,-3.53864 -0.38804,-4.13596 1.17676,-5.65888 1.00733,-0.98036 3.2418,-1.9915 5.26744,-2.38361 2.34722,-0.45434 3.78599,-1.16302 4.32335,-2.12947 0.88109,-1.58472 2.66931,-1.3694 8.77896,1.05706 3.41063,1.35454 3.421,1.38163 0.99113,2.58598 -0.96739,0.47947 -1.70677,0.98466 -1.64308,1.12266 0.0637,0.13812 1.99364,0.94907 4.2888,1.80235 3.91605,1.45589 4.23641,1.67753 5.20301,3.59941 2.06299,4.10185 1.72954,11.73379 -1.02918,23.55618 -1.26305,5.41275 -2.89191,7.48757 -6.53526,8.3245 -2.53317,0.58191 -4.50762,-0.1006 -7.94531,-2.74649 z"
       id="UBERON:0000948"
       inkscape:connector-curvature="0"
       inkscape:label="UBERON:0000948" />
    <path
       style="fill:none;fill-opacity:1;stroke:none"
       d="m 330.76365,292.188 c -35.44424,-2.22954 -41.06035,-2.56962 -51.27645,-3.10499 -8.34,-0.43707 -10.38451,-0.59669 -12.20535,-0.9529 -4.29086,-0.83943 -6.82498,-2.45558 -7.32412,-4.67103 -0.137,-0.60812 -0.0843,-1.80755 0.0971,-2.21016 0.16023,-0.35559 0.83401,-0.90945 1.76868,-1.45393 3.384,-1.97126 9.14528,-2.87695 16.86869,-2.65182 11.73124,0.34197 39.17915,2.49008 53.09033,4.15493 5.30247,0.63458 7.11325,1.00443 9.02798,1.84389 1.34687,0.5905 1.97745,1.01779 2.82788,1.91615 0.99962,1.05597 1.23056,1.57092 1.23377,2.75111 0.002,0.82644 -0.0252,0.95376 -0.33882,1.56963 -0.4235,0.83172 -1.18682,1.57165 -2.18572,2.11871 -0.92416,0.50613 -1.50566,0.71129 -2.59419,0.91527 -1.1664,0.21857 -2.45121,0.18643 -8.98979,-0.22486 z"
       id="UBERON:0002113"
       inkscape:connector-curvature="0"
       inkscape:label="UBERON:0002113" />
    <path
       style="fill:none;fill-opacity:1;stroke:none"
       d="m 229.90659,436.18881 c -2.04262,-0.54885 -3.25755,-1.36647 -5.71247,-3.84434 -1.7974,-1.81424 -6.91858,-6.36409 -9.70179,-8.61949 -7.27225,-5.89308 -12.19696,-8.98737 -17.90978,-11.253 -5.4428,-2.15854 -11.77729,-6.77839 -18.99619,-13.85423 -2.96929,-2.91041 -12.46434,-14.01777 -14.17542,-16.58246 -2.32464,-3.48431 -3.90734,-7.30501 -4.54825,-10.97963 -0.46885,-2.68813 -0.42087,-3.19841 0.41507,-4.41455 1.67417,-2.43558 4.36231,-4.31906 6.17314,-4.32525 0.38947,-10e-4 0.707,-0.0122 0.70561,-0.0241 -0.001,-0.0122 -0.17131,-0.57286 -0.37762,-1.24649 -1.91143,-6.24097 0.83485,-11.81761 6.88443,-13.97963 2.53901,-0.90741 4.05004,-1.03967 7.15919,-0.62663 2.88652,0.38286 4.10184,0.74933 7.68027,2.31232 2.91316,1.27242 7.89775,3.87813 10.19382,5.32886 6.03964,3.81605 10.9672,9.16847 19.94659,21.66643 4.30642,5.99389 16.65719,23.81468 17.42321,25.13976 1.93753,3.35155 4.76377,6.81833 12.97051,15.91011 3.58924,3.97631 5.01632,5.88079 5.77533,7.71034 0.75417,1.81683 0.5699,2.70571 -0.70567,3.40378 -2.47028,1.35189 -4.87764,2.02189 -7.01945,1.95362 l -1.25814,-0.0401 -0.12155,0.78077 c -0.38492,2.47248 -4.2543,4.99771 -8.81237,5.75112 -0.82734,0.13676 -2.0024,0.22958 -2.61126,0.20628 -0.60887,-0.0229 -1.38168,-0.0539 -1.71742,-0.0672 -0.33573,-0.0135 -1.08262,-0.15142 -1.65976,-0.30649 l 0,0 z"
       id="UBERON:0002107"
       inkscape:connector-curvature="0"
       inkscape:label="UBERON:0002107" />
    <g
       id="EFO:0001266"
       style="fill:none"
       transform="matrix(0.992775,-0.11999082,0.11999082,0.992775,-56.893279,40.654441)"
       inkscape:label="EFO:0001266">
      <path
         inkscape:connector-curvature="0"
         id="path3037"
         d="m 299.99168,492.88016 c -0.59261,-0.78463 -2.13094,-3.27428 -3.41851,-5.53255 -1.72286,-3.02173 -3.59772,-5.21077 -7.10006,-8.28987 -11.16638,-9.81698 -32.80546,-33.26834 -35.3734,-38.33592 -2.69044,-5.30932 -3.94167,-11.06596 -3.95868,-18.21295 -0.0176,-7.40499 0.88297,-11.58363 3.85238,-17.87455 l 1.8749,-3.97213 8.58655,17.02338 c 7.93686,15.73532 9.73797,18.78374 23.80388,40.28867 8.36953,12.79591 16.56134,25.2499 18.20404,27.67553 2.84116,4.19533 3.21628,5.52007 1.56307,5.52007 -0.40574,0 -2.13698,0.7058 -3.84721,1.56846 l -3.1095,1.56847 -1.07746,-1.42661 0,0 z"
         style="fill:none;fill-opacity:1;stroke:none" />
      <path
         inkscape:connector-curvature="0"
         id="path3039"
         d="m 296.03043,465.25582 c -11.86482,-18.16984 -20.91474,-33.01806 -24.56247,-40.2997 -2.21808,-4.42778 -6.3113,-12.01216 -9.09604,-16.85419 l -5.06317,-8.8037 1.34075,-0.87849 c 0.73742,-0.48318 1.55656,-0.8785 1.82032,-0.8785 1.70377,0 15.02577,18.81187 22.10165,31.20953 8.50294,14.89802 13.06729,24.50986 14.88955,31.35514 0.97676,3.66918 2.14976,7.73079 2.60666,9.02579 0.45691,1.29501 0.72191,2.46339 0.58889,2.5964 -0.13301,0.13302 -2.21478,-2.77951 -4.62614,-6.47228 z"
         style="fill:none;fill-opacity:1;stroke:none" />
      <path
         sodipodi:nodetypes="csssscccsssc"
         inkscape:connector-curvature="0"
         id="path3041"
         d="m 310.09823,484.77031 c -4.14685,-6.86419 -8.16893,-16.98823 -11.99816,-30.20074 -1.54299,-5.324 -11.1922,-24.4093 -16.75934,-33.14852 -5.03543,-7.90455 -11.13543,-16.2581 -15.53394,-21.27273 -1.61666,-1.84311 -2.93937,-3.53481 -2.93937,-3.75933 0,-0.94885 12.24036,-2.81509 18.48086,-2.81771 13.73661,-0.006 25.25737,8.13714 32.7395,23.14037 2.17262,5.00467 2.97494,7.69237 3.14215,12.48382 0.27006,7.73857 -0.6733,14.14226 -3.27032,22.19965 -2.52225,7.82537 -3.24372,16.18529 -2.3475,27.20104 0.38954,4.78806 0.61108,8.80274 0.4923,8.92152 -0.11877,0.11877 -1.02156,-1.11754 -2.00618,-2.74737 z"
         style="fill:none;fill-opacity:1;stroke:none" />
    </g>
  </g>
</svg>
