<?xml version="1.0" encoding="UTF-8" standalone="no"?>
<!-- Created with Inkscape (http://www.inkscape.org/) -->

<svg
   xmlns:dc="http://purl.org/dc/elements/1.1/"
   xmlns:cc="http://creativecommons.org/ns#"
   xmlns:rdf="http://www.w3.org/1999/02/22-rdf-syntax-ns#"
   xmlns:svg="http://www.w3.org/2000/svg"
   xmlns="http://www.w3.org/2000/svg"
   xmlns:sodipodi="http://sodipodi.sourceforge.net/DTD/sodipodi-0.dtd"
   xmlns:inkscape="http://www.inkscape.org/namespaces/inkscape"
   width="1052.3622"
   height="744.09448"
   id="svg2"
   version="1.1"
   inkscape:version="0.48.5 r10040"
   sodipodi:docname="cow.svg">
  <defs
     id="defs4" />
  <sodipodi:namedview
     id="base"
     pagecolor="#ffffff"
     bordercolor="#666666"
     borderopacity="1.0"
     inkscape:pageopacity="0.0"
     inkscape:pageshadow="2"
     inkscape:zoom="1.4"
     inkscape:cx="559.19136"
     inkscape:cy="516.5337"
     inkscape:document-units="px"
     inkscape:current-layer="layer1"
     showgrid="false"
     inkscape:window-width="1063"
     inkscape:window-height="1084"
     inkscape:window-x="1239"
     inkscape:window-y="64"
     inkscape:window-maximized="0" />
  <metadata
     id="metadata7">
    <rdf:RDF>
      <cc:Work
         rdf:about="">
        <dc:format>image/svg+xml</dc:format>
        <dc:type
           rdf:resource="http://purl.org/dc/dcmitype/StillImage" />
        <dc:title />
      </cc:Work>
    </rdf:RDF>
  </metadata>
  <g
     inkscape:label="Layer 1"
     inkscape:groupmode="layer"
     id="layer1"
     transform="translate(0,-308.2677)">
    <path
       style="fill:#a0a1a2;fill-opacity:1"
       d="m 705.5,921.39958 c -18.35788,-4.85822 -20.26237,-6.56481 -21.30051,-19.08707 -0.69422,-8.3738 -0.72776,-8.45567 -4.44949,-10.86141 -2.5336,-1.63772 -3.75,-3.16585 -3.75,-4.71101 0,-1.25785 -1.09107,-3.37807 -2.4246,-4.7116 -3.55662,-3.55662 -8.38015,-13.70032 -10.15602,-21.35771 -3.23168,-13.93472 -1.79046,-38.09923 3.22757,-54.11567 1.55059,-4.94913 1.55024,-6.80394 -0.005,-27.5 -2.9119,-38.74518 -9.18795,-60.40573 -22.88534,-78.98428 -4.98372,-6.7597 -5.84348,-10.92581 -1.07492,-5.20865 9.4468,11.32601 16.60878,26.53898 21.18517,45 2.73997,11.05295 3.79646,19.20171 6.14291,47.3806 2.09163,25.11868 3.6248,34.16299 8.84277,52.16424 5.91004,20.3888 6.17109,25.89315 1.86623,39.35024 -2.14933,6.71885 -2.15747,6.92331 -0.3182,8 6.05187,3.54267 6.73292,4.7907 7.32453,13.4221 0.76708,11.19145 1.78962,12.35243 14.30373,16.24026 5.44343,1.69115 11.24374,2.93255 12.88957,2.75869 l 2.99224,-0.31613 -4.97691,-8.5 c -5.50724,-9.40572 -8.60897,-18.22977 -11.95133,-34 -2.57403,-12.14503 -2.84298,-23.48648 -1.126,-47.48293 0.62898,-8.79062 1.14487,-28.36562 1.14642,-43.5 0.005,-48.407 2.01438,-55.88624 19.86419,-73.93609 7.17,-7.25035 15.28828,-12.42197 22.88299,-14.57724 2.66439,-0.75611 3.14088,1.27023 0.5,2.12633 -8.38533,2.71826 -14.56958,6.95269 -22.8898,15.67292 -16.95699,17.77221 -17.12118,18.54209 -18.48997,86.69701 -1.22824,61.15681 -1.24704,60.07944 1.26522,72.5 3.63752,17.98387 7.39316,28.02586 14.2619,38.13412 2.94834,4.33888 3.46839,9.81969 1.02086,10.75889 -2.58027,0.99014 -6.49505,0.60885 -13.91821,-1.35561 z m -26.06122,-57.0374 c 0.17633,-3.575 -0.30004,-8.75 -1.0586,-11.5 -4.89175,-17.73392 -7.612,-28.4619 -7.99545,-31.53211 -0.24264,-1.94266 -0.80222,-4.86766 -1.24354,-6.5 -0.68962,-2.5508 -0.99067,-1.77336 -2.14222,5.53211 -1.62573,10.31365 -1.73758,34.98507 -0.18361,40.5 0.6199,2.2 1.15959,4.32933 1.19931,4.73185 0.23105,2.34146 3.54447,8.66364 5.78558,11.03917 l 2.61421,2.77103 1.35186,-4.27103 c 0.74352,-2.34906 1.49613,-7.19602 1.67246,-10.77102 z M 292.5,906.72084 c -13.74283,-2.08026 -17.78738,-5.51852 -21.10462,-17.94099 -1.27352,-4.76911 -2.50532,-8.86094 -2.73733,-9.09295 -0.23201,-0.23202 -2.61249,-0.96249 -5.28994,-1.62328 l -4.86811,-1.20144 0.17558,-6.5 c 0.0966,-3.575 0.31995,-10.1 0.4964,-14.5 0.36527,-9.10864 -0.23116,-11.37488 -14.86984,-56.5 -4.72815,-14.575 -9.42267,-29.65 -10.43226,-33.5 -2.08843,-7.96413 -2.46713,-22.61666 -0.78702,-30.45078 1.41276,-6.58747 3.47302,-6.85778 2.28068,-0.29922 -0.47495,2.6125 -0.83807,9.7 -0.80694,15.75 l 0.0566,11 9.58679,28.5 c 17.64901,52.46774 18.34062,55.01923 18.02573,66.5 -0.15086,5.5 -0.37586,11.55468 -0.5,13.45483 -0.21698,3.32106 -0.0416,3.5073 4.52941,4.80958 5.41844,1.54371 6.69728,3.39546 8.6661,12.54851 1.64735,7.65849 5.57226,12.16221 12.35439,14.17629 6.89921,2.04885 17.08931,2.003 19.17859,-0.0863 1.46276,-1.46276 1.11553,-2.49296 -4.12885,-12.25 -10.3191,-19.19844 -12.42322,-24.05658 -15.77824,-36.42994 -3.13529,-11.56297 -9.84834,-44.22558 -12.48021,-60.72297 -1.09679,-6.875 -3.13553,-16.09455 -4.53054,-20.48788 -3.81452,-12.01319 -3.48255,-17.6553 1.71363,-29.12463 3.8219,-8.43594 5.75,-11.24536 5.75,-8.37828 0,0.55507 -1.85636,5.35416 -4.12525,10.66464 -3.70446,8.67054 -4.06492,10.22514 -3.53385,15.24078 0.32526,3.07196 1.68374,8.7859 3.01883,12.69765 1.33509,3.91175 3.18649,12.01175 4.11422,18 2.31006,14.91088 9.88455,49.62981 13.61047,62.38587 3.04903,10.43864 7.55824,20.23703 16.32678,35.47764 5.34176,9.28451 5.92409,13.60319 2.16626,16.06542 -2.52372,1.6536 -10.90256,2.60077 -16.07746,1.81745 z m -134.33116,-1.84402 c -2.38214,-0.74336 -5.24128,-2.17521 -6.35365,-3.18189 -3.11883,-2.8225 -6.46563,-9.2891 -7.8001,-15.07115 -1.40145,-6.07224 -3.90218,-9.64102 -8.35339,-11.92111 -4.07404,-2.08689 -4.62786,-3.01371 -4.64639,-7.77575 -0.0115,-2.94942 1.35241,-6.33138 5.44431,-13.5 3.0028,-5.26061 5.97206,-11.95977 6.59837,-14.88703 0.73833,-3.45081 0.98322,-12.76898 0.69645,-26.5 -0.3936,-18.84563 -0.79846,-22.93962 -3.67661,-37.17771 -2.90734,-14.38249 -3.18663,-17.26368 -2.76267,-28.5 0.34407,-9.11884 1.17672,-15.14069 3.07825,-22.2625 1.43362,-5.36938 2.60555,-12.34438 2.60428,-15.5 -0.003,-7.95865 -4.53157,-50.90404 -7.08985,-67.2375 -2.4985,-15.95186 -2.18897,-35.82655 1.01231,-65 2.85001,-25.97223 7.55449,-42.75975 9.35028,-33.36566 0.31127,1.62831 -0.27357,3.95154 -1.53143,6.08346 -1.83164,3.10438 -1.97203,4.51518 -1.40476,14.11565 0.70609,11.94969 2.26381,21.28407 6.36923,38.16655 l 2.79653,11.5 -0.0136,39.5 c -0.015,43.60567 0.47907,39.27599 -7.47377,65.5 -3.8984,12.85475 -4.28585,15.14525 -4.73635,28 -0.43019,12.27535 -0.17775,15.53987 2.04922,26.5 4.13839,20.36732 4.88654,28.61192 4.46802,49.23739 -0.43543,21.45873 -0.61656,22.21887 -8.48194,35.59524 -5.08217,8.64306 -5.39887,11.4471 -1.56163,13.82646 5.96499,3.69872 8.17555,6.63808 10.33583,13.7435 2.72604,8.96626 5.11239,12.9268 9.26507,15.37694 4.76647,2.81228 11.72748,3.63239 15.9294,1.87671 5.47772,-2.28873 5.47781,-4.7567 7.2e-4,-20.45393 -4.62196,-13.24646 -4.77882,-14.06826 -4.71502,-24.70231 0.055,-9.16009 0.61113,-13.00717 3.32511,-23 3.15175,-11.60471 3.28723,-12.90588 4.11283,-39.5 1.26726,-40.82097 3.50551,-50.31805 16.14398,-68.5 15.31421,-22.03135 32.30414,-37.27626 47.54944,-42.66569 11.48795,-4.06114 29.09944,-2.22296 43.80694,4.57233 11.14807,5.15072 31.62411,17.67249 44.4957,27.21057 18.56466,13.75676 23.95024,15.80867 59.01939,22.48644 14.272,2.71763 19.36189,3.20417 37.98061,3.63048 42.93827,0.98316 77.24027,-2.33735 110,-10.64823 16.50817,-4.18799 49.05969,-13.53769 59,-16.94643 17.85259,-6.12202 32.64719,-6.57596 43.25,-1.32701 4.02267,1.99143 5.75,2.44715 5.75,1.51704 0,-0.73122 0.39964,-1.3295 0.88809,-1.3295 0.48845,0 1.92704,4.1625 3.19687,9.25 3.40716,13.65064 3.04508,21.61495 -1.62802,35.80925 -4.59769,13.96523 -4.91085,22.4949 -1.4664,39.94075 2.07894,10.52968 2.22018,13.2719 1.67391,32.5 -0.62344,21.94475 -1.57452,30.33878 -4.75654,41.9799 -2.71171,9.92054 -2.55537,11.35163 1.4217,13.01335 4.03555,1.68617 5.28752,3.09528 6.23034,7.01234 1.22476,5.08848 3.34863,8.39578 6.40732,9.97748 4.24191,2.19358 14.84345,1.93882 22.181,-0.53302 5.7418,-1.93427 8.37209,-1.96351 6.28506,-0.0699 -3.09955,2.81235 -16.8136,5.32765 -24.26979,4.45132 -6.64567,-0.78107 -11.19655,-4.80611 -13.09322,-11.58036 -0.90435,-3.23003 -2.02068,-4.86855 -3.91754,-5.75009 -1.45903,-0.67806 -3.32778,-1.56402 -4.15278,-1.96879 -2.4288,-1.19166 -2.29429,-8.0434 0.37657,-19.1821 C 639.90398,856.67189 642,834.87871 642,819.1406 c 0,-4.63575 -0.91696,-13.52099 -2.03768,-19.74498 -3.58143,-19.88957 -2.80834,-30.24354 3.58649,-48.03344 2.41379,-6.71499 2.6385,-8.44201 2.1469,-16.5 -0.64933,-10.6435 -2.07696,-16.04626 -4.46166,-16.8849 -0.95373,-0.3354 -3.20458,-1.69657 -5.0019,-3.02483 -1.96967,-1.45562 -5.99478,-2.90235 -10.13215,-3.64173 -9.14271,-1.6339 -18.20136,-0.25042 -35.9299,5.48736 -7.51856,2.43335 -20.8701,6.45138 -29.6701,8.92895 -52.3262,14.73203 -66.84897,16.93016 -121.03006,18.3188 -23.31858,0.59765 -34.84425,-0.13312 -50.46994,-3.19999 -4.125,-0.80962 -13.45706,-2.61641 -20.73792,-4.01509 -20.0545,-3.85256 -27.79046,-7.42885 -47.00978,-21.73235 -11.26197,-8.38144 -33.96948,-21.61859 -44.29043,-25.81873 -14.91019,-6.06775 -28.89075,-6.49505 -40.07335,-1.2248 -8.67832,4.09 -21.3045,13.67865 -27.48634,20.87384 -8.38109,9.75493 -19.1177,24.51448 -21.74575,29.89375 -5.89661,12.06957 -8.64364,26.90688 -8.68706,46.92071 -0.0492,22.67155 -1.43567,36.72983 -5.04158,51.11901 -4.73869,18.90948 -4.52795,25.11892 1.44057,42.44612 6.24335,18.12509 6.07922,22.71544 -0.91673,25.63854 -4.17526,1.74453 -10.5559,1.71709 -16.28279,-0.07 z M 147.83822,697.80073 c 0.71114,-3.0588 1.50896,-14.1963 1.77292,-24.75 0.26397,-10.5537 0.62065,-21.55105 0.79262,-24.43855 0.17198,-2.8875 -0.10007,-5.25 -0.60456,-5.25 -0.50448,0 -0.64522,-0.44012 -0.31276,-0.97806 0.77965,-1.26151 0.76096,-17.62091 -0.0297,-26.02194 -0.33648,-3.575 -1.52591,-10.1 -2.64317,-14.5 -1.11727,-4.4 -2.1449,-8.675 -2.28362,-9.5 -0.13872,-0.825 -0.50195,-2.175 -0.80717,-3 -0.30522,-0.825 -0.58299,-2.175 -0.61728,-3 -0.10046,-2.41727 -1.13193,-9.59699 -2.04286,-14.21966 l -0.84351,-4.28034 -0.18073,5.5 c -0.0994,3.025 -0.48621,8.425 -0.85957,12 -0.37336,3.575 -0.67883,16.625 -0.67883,29 0,20.84926 0.55963,27.88257 3.54079,44.5 0.49334,2.75 1.10698,9.275 1.36363,14.5 0.87783,17.87122 1.89605,30 2.51851,30 0.34227,0 1.20414,-2.50265 1.91529,-5.56145 z m 570.18702,56.31145 c -4.41069,-2.25622 -7.01965,-5.08892 -5.80535,-6.30322 0.35703,-0.35703 1.86784,0.48088 3.35735,1.86203 8.23236,7.63348 19.89788,4.87136 32.65457,-7.73182 14.00639,-13.83785 35.7195,-45.87416 53.35424,-78.72078 9.58217,-17.84783 16.17305,-27.32425 25.06986,-36.04562 15.24484,-14.94422 25.18614,-21.70799 38.84409,-26.42837 7.01796,-2.42551 9.53443,-2.77211 20.5,-2.82357 13.40696,-0.0629 22,0.94271 22,2.57458 0,0.65352 -2.03199,0.73701 -5.75,0.23626 -9.95079,-1.3402 -25.23806,-0.82123 -31.75,1.07785 -23.09712,6.73583 -48.60167,30.38988 -62.84125,58.28178 -6.43677,12.60807 -17.62852,31.28389 -27.94634,46.63438 -19.33746,28.76963 -32.50385,42.82433 -44.5749,47.5823 -6.73465,2.65455 -11.65005,2.59831 -17.11227,-0.1958 z m -421.81339,-3 c -0.9963,-1.20553 -3.37609,-9.77946 -4.57976,-16.5 -0.39697,-2.2164 -0.1925,-3.24776 0.64291,-3.24294 0.68876,0.004 1.97393,3.11213 2.93589,7.1004 1.67694,6.95265 3.47374,10.53659 4.68161,9.33808 0.33413,-0.33153 0.8325,-4.84788 1.1075,-10.03633 0.28073,-5.29648 0.93855,-9.43044 1.5,-9.42646 1.36163,0.01 1.83279,18.01175 0.55909,21.36184 -1.09901,2.8906 -4.96419,3.68394 -6.84724,1.40541 z m -50.07351,-2.5 c -1.67114,-3.13776 -1.89662,-20.25 -0.26683,-20.25 0.47934,0 1.08088,3.61654 1.33676,8.03676 0.51476,8.89223 1.98351,11.74089 4.3795,8.49414 1.33185,-1.80475 2.12836,-4.17123 3.96523,-11.7809 0.44154,-1.82915 0.26606,-2.75 -0.52404,-2.75 -2.15101,0 -14.31957,-5.23312 -20.24817,-8.70778 C 228.17673,717.78386 217,708.77708 217,707.32572 c 0,-1.97513 2.32372,-0.83397 7.33865,3.60398 6.69733,5.92678 23.17557,14.01127 32.7078,16.04697 10.99739,2.3486 30.92099,1.38307 40.63272,-1.96913 3.94854,-1.36291 9.16307,-3.64068 11.58785,-5.06169 4.75756,-2.78812 5.73298,-3.0753 5.73298,-1.68792 0,1.69744 -9.51852,6.9751 -17.5,9.70308 -7.01638,2.39812 -9.92639,2.78974 -23.66779,3.18512 l -15.66778,0.45082 -1.13939,6.54283 c -1.59771,9.17475 -3.34703,12.2224 -7.01554,12.2224 -1.77745,0 -3.30751,-0.69168 -3.87116,-1.75 z M 135,719.72447 c 0,-3.10074 -0.66513,-11.31324 -1.47806,-18.25 -0.81293,-6.93676 -2.1657,-19.15797 -3.00616,-27.15825 -1.05793,-10.07038 -3.10562,-20.83936 -6.65514,-35 l -5.12704,-20.45404 0.003,-22 c 0.002,-15.84329 0.43303,-24.09888 1.53851,-29.5 1.49829,-7.32029 8.89019,-26.99415 14.27562,-37.99516 8.34699,-17.0507 19.62012,-27.14999 42.94883,-38.4767 12.56092,-6.09866 22.09834,-9.37447 38.5,-13.22357 10.45709,-2.45405 13.31376,-2.70023 31.5,-2.71462 19.81681,-0.0157 27.7769,0.68968 61.76374,5.47295 12.20719,1.71803 19.72775,1.93677 66.5,1.93414 38.05783,-0.002 56.91131,-0.40109 67.73626,-1.43335 8.25,-0.78671 21.075,-1.71885 28.5,-2.07143 7.9568,-0.37783 21.50684,-2.0304 33,-4.02471 10.725,-1.86101 24.9,-3.88583 31.5,-4.49961 6.6,-0.61377 19.6494,-1.98265 28.99866,-3.04194 20.61577,-2.33583 50.14747,-2.53294 65.87591,-0.4397 12.42295,1.65333 24.49631,4.61604 43.12543,10.58266 16.62721,5.32545 27.2099,6.17207 39.08783,3.12706 8.82039,-2.26119 13.69159,-4.26435 17.41217,-7.1603 3.47814,-2.70725 22.05927,-7.26638 29.42776,-7.2205 7.56017,0.0471 10.26866,1.06226 19.1234,7.1677 7.32624,5.05153 17.18497,9.01708 22.41729,9.01708 1.66735,0 3.03155,0.45 3.03155,1 0,1.47845 -6.45971,1.21396 -12.34609,-0.50549 -2.83465,-0.82803 -9.62737,-4.20303 -15.09493,-7.5 -12.09316,-7.29226 -14.89754,-7.65611 -29.9001,-3.87934 -4.31261,1.08567 -9.62376,2.68721 -11.80255,3.55899 l -3.96144,1.58506 2.17394,2.31405 c 3.38137,3.5993 7.07717,4.96605 31.03615,11.47757 12.29509,3.34154 22.55128,6.27209 22.79153,6.51234 1.91122,1.91122 -3.92105,0.91626 -23.60879,-4.02756 -24.80723,-6.22939 -31.38108,-8.56755 -34.21408,-12.16913 -1.8115,-2.30295 -1.95047,-2.3209 -6.21329,-0.80249 -8.3113,2.96046 -17.27059,4.56565 -25.31631,4.53579 -6.85712,-0.0255 -10.95066,-0.88197 -26.96045,-5.64113 -23.89232,-7.10236 -32.92228,-9.04608 -48.95381,-10.53742 -16.70427,-1.55391 -38.5763,-0.72235 -65.12978,2.47622 -11.55,1.39128 -25.5,3.03349 -31,3.64936 -5.5,0.61587 -15.4,2.22711 -22,3.58055 -6.6,1.35343 -18.525,2.89023 -26.5,3.41509 -7.975,0.52487 -22.375,1.74236 -32,2.70553 -14.29563,1.43057 -27.38778,1.7513 -71.5,1.75162 -50.71566,3.7e-4 -54.8819,-0.13432 -68.5,-2.21442 -26.59226,-4.06184 -42.3554,-5.55647 -59,-5.59426 -14.1041,-0.032 -18.32983,0.34719 -29.10155,2.61153 -15.06073,3.16594 -27.04423,7.2551 -39.89845,13.61464 -26.62664,13.17337 -36.00772,23.54204 -48.05846,53.11778 -7.94566,19.50079 -8.36311,21.93272 -8.40507,48.96512 l -0.0365,23.5 4.8528,19.5 c 3.89039,15.63276 5.33476,23.96221 7.28303,42 3.18417,29.48018 4.01107,44 2.50578,44 -0.72001,0 -1.14114,-2.07967 -1.14114,-5.63771 z M 927.5,604.77461 c -1.1,-0.26261 -4.025,-0.96842 -6.5,-1.56846 -2.475,-0.60005 -7.56705,-2.63775 -11.31567,-4.52823 -7.76611,-3.91656 -15.86168,-5.66372 -33.58786,-7.24883 -12.07945,-1.08017 -17.78773,-2.6901 -22.5949,-6.37253 -3.72565,-2.85396 -0.85914,-2.7134 5.08408,0.2493 5.04633,2.51561 7.82229,3.10848 18.91435,4.03958 19.56446,1.6423 24.97984,2.79431 37,7.87095 9.79528,4.13698 11.8214,4.64579 18.5,4.64579 9.71512,0 15.18873,-2.61977 24.10701,-11.53804 10.03057,-10.03058 11.20153,-16.84522 4.71265,-27.42626 -4.36253,-7.11371 -5.9308,-8.88456 -25.71408,-29.0357 -19.70549,-20.0719 -22.69943,-23.55817 -32.07108,-37.34498 -7.36548,-10.83551 -10.24823,-13.15209 -20.39041,-16.38579 -8.96939,-2.85977 -13.44659,-7.05546 -15.90842,-14.90814 -3.17465,-10.12639 -7.81859,-13.86109 -17.23567,-13.86109 -6.16398,0 -8.0534,0.79042 -19.05105,7.96975 -9.00926,5.88131 -14.11709,7.63533 -25.94895,8.91081 -4.95,0.53361 -10.26679,1.45378 -11.8151,2.04482 -3.46759,1.3237 -3.6849,1.32664 -3.6849,0.0499 0,-1.68458 4.81706,-3.01171 15.96247,-4.39776 12.28817,-1.52816 15.69556,-2.80577 25.74166,-9.65192 11.63743,-7.93061 19.12798,-9.69343 27.07799,-6.37252 5.67413,2.37022 8.86149,6.05925 11.36683,13.15594 2.68128,7.59505 6.60188,11.53298 13.58696,13.64701 13.012,3.93809 15.9741,6.40772 26.55966,22.144 5.54824,8.2479 7.55768,10.50737 27.22644,30.61394 25.87535,26.45132 31.42161,34.27982 31.44626,44.38606 0.0345,14.14275 -16.7588,29.89022 -33.02048,30.96411 -3.54629,0.23419 -7.34779,0.21094 -8.44779,-0.0517 z m 22.59015,-24.28591 c -2.53708,-0.70972 -6.88018,-5.66983 -5.85883,-6.69117 1.20435,-1.20435 9.76868,4.70379 9.76868,6.73896 0,0.92409 -0.45547,0.91852 -3.90985,-0.0478 z m -70.92718,-54.72493 c -2.1926,-1.53575 -2.96585,-6.59127 -1.38764,-9.07231 1.16797,-1.83611 5.82337,-2.61442 8.15954,-1.36414 2.55688,1.3684 1.87205,3.05863 -0.94119,2.32296 -4.15296,-1.08603 -6.44552,3.45015 -3.42854,6.78388 2.07401,2.29176 0.34099,3.251 -2.40217,1.32961 z"
       id="path3068"
       inkscape:connector-curvature="0" />
  </g>
  <g
     inkscape:groupmode="layer"
     id="LAYER_EFO"
     inkscape:label="LAYER_EFO">
    <g
       id="UBERON:0001013"
       inkscape:label="UBERON:0001013"
       style="fill:none">
      <path
         inkscape:connector-curvature="0"
         id="path3052"
         d="m 156.80852,320.78729 c -0.01,-6.90541 -0.25252,-11.23981 -0.8903,-15.89416 -0.50693,-3.69947 -0.9326,-5.41244 -2.82136,-11.3535 -3.90058,-12.26924 -6.67217,-25.57311 -8.04951,-38.63834 -0.55495,-5.26415 -0.7686,-16.82838 -0.39425,-21.33947 0.71872,-8.66082 2.6755,-17.63598 5.05564,-23.1886 1.44168,-3.3633 10.08683,-10.1839 23.96634,-18.90823 12.89187,-8.10354 30.55896,-15.12484 45.8797,-18.23364 14.1905,-2.87946 25.64915,-2.91097 53.7946,-0.14794 11.28452,1.10779 46.37572,5.39253 46.81281,5.71598 0.26083,0.193 -4.04924,4.84609 -8.98873,9.7041 -8.65419,8.51142 -18.01259,16.08133 -27.93786,22.5986 -2.66169,1.74776 -9.44194,5.93078 -15.06723,9.2956 -32.7114,19.56665 -62.67275,40.05898 -83.40591,57.0462 -4.39923,3.6044 -5.34721,4.65287 -8.388,9.27721 -6.60778,10.04887 -12.30271,21.61985 -17.83598,36.23922 l -1.72049,4.54569 -0.009,-6.71872 0,0 z"
         style="fill-opacity:1;fill:none;stroke:none" />
      <path
         inkscape:connector-curvature="0"
         id="path3056"
         d="m 712.98905,427.00704 c -6.93245,-1.72332 -15.75809,-4.74692 -22.3103,-7.64333 -12.4455,-5.50156 -29.68885,-13.6766 -38.3414,-18.17758 -13.07214,-6.80002 -22.1146,-9.44886 -35.69848,-10.45729 l -4.93137,-0.36609 1.80836,-2.68179 c 3.66842,-5.44025 11.21298,-11.67036 17.47517,-14.43056 5.32491,-2.34707 24.52316,-5.6617 35.78354,-6.17813 5.84661,-0.26813 8.15043,-0.11927 16.16244,1.04435 17.62321,2.55951 28.24537,4.9637 38.96301,8.81879 9.6221,3.46104 28.35073,5.33798 41.2917,4.13818 3.44357,-0.31927 6.31879,-0.51902 6.38938,-0.44389 0.2649,0.28194 -24.09737,33.01398 -26.15742,35.14392 -3.19416,3.30253 -8.23,6.99595 -12.23761,8.9754 -6.73791,3.32802 -11.51041,3.92022 -18.19702,2.25802 l 0,0 z"
         style="fill:none;fill-opacity:1;stroke:none" />
      <path
         inkscape:connector-curvature="0"
         id="path3060"
         d="m 641.31216,256.05247 c -18.69659,-3.45061 -40.69294,-9.11484 -66.42857,-17.10588 -4.61607,-1.43331 -10.08036,-3.24145 -12.14286,-4.01808 -13.90907,-5.23748 -34.48492,-15.49196 -48.03571,-23.93977 -7.6814,-4.78873 -12.97494,-8.41306 -24.01691,-16.44365 -8.9014,-6.47381 -27.09532,-14.83606 -36.69738,-16.86678 l -2.14286,-0.45319 1.97002,-0.6155 c 5.01914,-1.56816 15.65988,-2.78142 26.77998,-3.05345 l 8.39286,-0.20532 32.14286,-4.76537 c 31.24986,-4.63297 32.47028,-4.78574 43.92857,-5.49878 20.75771,-1.29175 28.98812,-1.60428 42.67857,-1.62065 l 13.39286,-0.016 6.78571,1.35984 c 16.87623,3.38194 29.73676,6.73389 47.74009,12.4429 l 9.16866,2.90746 0.29563,3.07347 c 0.5656,5.88028 0.2674,18.97962 -0.58217,25.57348 -1.44746,11.23436 -3.86774,21.58425 -7.36919,31.51304 -1.09196,3.0964 -2.06597,5.88654 -2.16446,6.20032 -0.44464,1.41654 -10.57283,6.53533 -17.11687,8.65088 -6.39061,2.06594 -13.91265,3.37311 -16.57883,2.88105 l 0,0 z"
         style="fill:none;fill-opacity:1;stroke:none" />
    </g>
    <path
       style="fill:none;fill-opacity:1;stroke:none"
       d="m 391.2535,302.03808 c 19.16535,-11.86535 48.27832,-25.13585 62.68575,-39.11443 4.0991,-4.02077 6.12473,-6.52255 7.09367,-8.76105 0.81382,-1.88019 0.76761,-3.0398 -0.19967,-5.01055 -1.763,-3.5908 -5.89391,-5.15037 -11.95941,-4.51427 -10.07763,1.65952 -2.98682,-0.0419 -12.08517,2.77242 -3.15481,-2.69298 -4.23157,-4.38563 -3.4762,-8.0796 9.59463,-3.62486 12.06222,-5.30321 25.38937,-4.76295 5.29775,0.26011 12.35585,3.86875 15.03117,7.68512 2.00799,2.86438 1.49953,8.97673 -1.20273,14.45824 -2.36049,4.7882 -5.81009,8.93306 -12.24277,14.71014 -4.66459,4.5317 -51.2042,34.66067 -64.39108,39.32302 -1.80306,-2.49459 -8.19012,-6.88589 -4.6429,-8.70609 z"
       id="UBERON:0002114"
       inkscape:connector-curvature="0"
       inkscape:label="UBERON:0002114"
       sodipodi:nodetypes="ccscccccssccc" />
    <path
       sodipodi:type="arc"
       style="fill:none;fill-opacity:1;stroke:none"
       id="UBERON:0001898"
       sodipodi:cx="845.3714"
       sodipodi:cy="188.51057"
       sodipodi:rx="4.1668792"
       sodipodi:ry="3.7880721"
       d="m 849.53828,188.51057 a 4.1668792,3.7880721 0 1 1 -8.33376,0 4.1668792,3.7880721 0 1 1 8.33376,0 z"
       transform="translate(-3.0304576,-2.7779195)"
       inkscape:label="UBERON:0001898" />
    <path
       style="fill:none;fill-opacity:1;stroke:none"
       d="m 327.4447,249.95878 c -4.61465,-2.9078 -7.82197,-7.52908 -8.55693,-12.32926 -0.63319,-4.13544 1.63172,-6.49195 11.05295,-11.49996 l 5.88883,-3.13032 13.03328,0.0988 c 25.5169,0.19344 40.68998,4.22634 46.53586,12.36891 1.34811,1.87773 1.30899,2.41182 -0.3141,4.28703 -2.18988,2.53007 -9.44044,3.87996 -24.41608,4.54571 -7.53173,0.33482 -12.82223,1.258 -23.91125,4.17244 -7.83178,2.05835 -14.50987,3.78384 -14.84017,3.83442 -0.3303,0.0506 -2.34286,-1.00592 -4.47239,-2.34778 z"
       id="UBERON:0002113"
       inkscape:connector-curvature="0"
       inkscape:label="UBERON:0002113" />
    <path
       style="fill:none;fill-opacity:1;stroke:none"
       d="m 582.74269,384.87941 c -6.31641,-2.61839 -27.90516,-31.59012 -43.90593,-58.92094 -19.87164,-33.94269 -37.02208,-74.50949 -37.02208,-87.57023 0,-8.91186 1.54245,-9.36853 25.15938,-7.44881 93.45601,7.59664 197.29227,19.70033 206.73822,24.09845 4.92083,2.29119 7.88561,6.20714 9.94445,13.13482 0.95524,3.21431 2.91509,6.62272 4.54445,7.90343 1.57568,1.23851 3.43887,4.38188 4.14039,6.98527 2.272,8.43128 -3.47119,32.16181 -10.6754,44.11014 -2.56617,4.25604 -9.09117,7.59462 -44.11949,22.57421 -39.27345,16.79498 -97.61512,37.08338 -106.29122,36.96295 -2.33309,-0.0323 -6.16384,-0.85557 -8.51277,-1.82929 l 0,0 z"
       id="UBERON:0002048"
       inkscape:connector-curvature="0"
       inkscape:label="UBERON:0002048" />
  </g>
</svg>
