<?xml version="1.0" encoding="UTF-8" standalone="no"?>
<!-- Created with Inkscape (http://www.inkscape.org/) -->

<svg
   xmlns:dc="http://purl.org/dc/elements/1.1/"
   xmlns:cc="http://creativecommons.org/ns#"
   xmlns:rdf="http://www.w3.org/1999/02/22-rdf-syntax-ns#"
   xmlns:svg="http://www.w3.org/2000/svg"
   xmlns="http://www.w3.org/2000/svg"
   xmlns:sodipodi="http://sodipodi.sourceforge.net/DTD/sodipodi-0.dtd"
   xmlns:inkscape="http://www.inkscape.org/namespaces/inkscape"
   width="120"
   height="72"
   id="svg2"
   version="1.1"
   inkscape:version="0.48.5 r10040"
   sodipodi:docname="cow.svg">
  <defs
     id="defs4" />
  <sodipodi:namedview
     id="base"
     pagecolor="#ffffff"
     bordercolor="#666666"
     borderopacity="1.0"
     inkscape:pageopacity="0.0"
     inkscape:pageshadow="2"
     inkscape:zoom="3.959798"
     inkscape:cx="106.20485"
     inkscape:cy="41.762009"
     inkscape:document-units="px"
     inkscape:current-layer="lines"
     showgrid="false"
     inkscape:window-width="1647"
     inkscape:window-height="1319"
     inkscape:window-x="435"
     inkscape:window-y="17"
     inkscape:window-maximized="0" />
  <metadata
     id="metadata7">
    <rdf:RDF>
      <cc:Work
         rdf:about="">
        <dc:format>image/svg+xml</dc:format>
        <dc:type
           rdf:resource="http://purl.org/dc/dcmitype/StillImage" />
        <dc:title />
      </cc:Work>
    </rdf:RDF>
  </metadata>
  <g
     id="group_all"
     transform="matrix(0.88194703,0,0,0.88194703,-3.8621834,-13.321941)">
    <g
       inkscape:label="lines"
       inkscape:groupmode="layer"
       id="lines"
       transform="translate(0,-952.36221)">
      <g
         id="g3073"
         transform="matrix(0.87205828,0,0,0.87205828,0.74075695,134.23306)">
        <path
           inkscape:label="#path3068"
           inkscape:connector-curvature="0"
           id="cow_outline"
           d="m 103.58571,1044.1368 c -3.05969,-0.8097 -3.37711,-1.0942 -3.55014,-3.1812 -0.115699,-1.3957 -0.121289,-1.4093 -0.741589,-1.8103 -0.42228,-0.273 -0.62501,-0.5276 -0.62501,-0.7852 0,-0.2096 -0.18185,-0.563 -0.40411,-0.7853 -0.592778,-0.5927 -1.396711,-2.2834 -1.692694,-3.5596 -0.538623,-2.3225 -0.298415,-6.35 0.537937,-9.0195 0.258437,-0.8248 0.258376,-1.1339 -6.72e-4,-4.5833 -0.485326,-6.4577 -1.531348,-10.0678 -3.814281,-13.1643 -0.830634,-1.1266 -0.973933,-1.821 -0.179158,-0.8681 1.574492,1.8877 2.768172,4.4232 3.530917,7.5001 0.45667,1.8422 0.632751,3.2003 1.023835,7.8969 0.348607,4.1865 0.604141,5.6939 1.473816,8.6942 0.985019,3.3982 1.028529,4.3155 0.31104,6.5584 -0.35822,1.1198 -0.35958,1.154 -0.053,1.3334 1.008659,0.5904 1.122169,0.7985 1.220769,2.237 0.12785,1.8653 0.29828,2.0588 2.384,2.7068 0.90725,0.2819 1.87398,0.4888 2.14829,0.4598 l 0.49871,-0.052 -0.82949,-1.4167 c -0.91789,-1.5677 -1.43485,-3.0383 -1.99192,-5.6668 -0.42901,-2.0242 -0.47384,-3.9145 -0.18767,-7.9139 0.10483,-1.4651 0.19081,-4.7277 0.19107,-7.2501 6.7e-4,-8.068 0.33574,-9.3145 3.31075,-12.3229 1.19502,-1.2084 2.54808,-2.0704 3.81389,-2.4296 0.44408,-0.126 0.52349,0.2117 0.0833,0.3544 -1.39757,0.4531 -2.4283,1.1588 -3.81502,2.6122 -2.82621,2.9621 -2.85358,3.0904 -3.08171,14.4497 -0.20471,10.193 -0.20784,10.0134 0.21087,12.0836 0.60627,2.9973 1.23222,4.671 2.37702,6.3558 0.4914,0.7231 0.57808,1.6366 0.17015,1.7932 -0.43005,0.165 -1.08253,0.1014 -2.31974,-0.226 z m -4.343599,-9.5064 c 0.0294,-0.5958 -0.05,-1.4583 -0.17644,-1.9167 -0.815303,-2.9557 -1.268687,-4.7437 -1.332593,-5.2554 -0.04045,-0.3238 -0.133709,-0.8113 -0.207263,-1.0833 -0.114937,-0.4252 -0.165115,-0.2956 -0.35704,0.922 -0.27096,1.719 -0.289599,5.8309 -0.03064,6.7501 0.10332,0.3667 0.193268,0.7216 0.199893,0.7886 0.0385,0.3903 0.59075,1.444 0.964278,1.8399 l 0.435704,0.4619 0.22531,-0.7119 c 0.12393,-0.3915 0.24936,-1.1993 0.27875,-1.7952 z m -64.490796,7.0599 c -2.290505,-0.3467 -2.964611,-0.9197 -3.517492,-2.9902 -0.212256,-0.7949 -0.417558,-1.4768 -0.456226,-1.5155 -0.0387,-0.039 -0.435424,-0.1604 -0.881673,-0.2706 l -0.811364,-0.2002 0.02929,-1.0834 c 0.01613,-0.5958 0.05335,-1.6834 0.08274,-2.4167 0.06087,-1.5181 -0.0385,-1.8958 -2.478344,-9.4168 -0.788042,-2.4292 -1.570474,-4.9417 -1.73874,-5.5834 -0.348076,-1.3274 -0.411195,-3.7695 -0.13117,-5.0752 0.235464,-1.0979 0.578843,-1.143 0.380119,-0.05 -0.07916,0.4354 -0.139683,1.6166 -0.134496,2.625 l 0.0094,1.8333 1.597827,4.7502 c 2.941545,8.7447 3.056818,9.17 3.004335,11.0835 -0.02513,0.9166 -0.06262,1.9258 -0.08334,2.2425 -0.03615,0.5535 -0.0069,0.5845 0.75491,0.8015 0.903093,0.2574 1.116236,0.566 1.444377,2.0915 0.274562,1.2764 0.928726,2.0271 2.059093,2.3628 1.149892,0.3414 2.848264,0.3338 3.196481,-0.014 0.243802,-0.2438 0.18593,-0.4156 -0.68815,-2.0417 -1.719879,-3.1998 -2.070569,-4.0096 -2.629745,-6.0718 -0.522558,-1.9272 -1.641414,-7.371 -2.08007,-10.1206 -0.1828,-1.1459 -0.522598,-2.6825 -0.755099,-3.4147 -0.635767,-2.0023 -0.580435,-2.9427 0.285609,-4.8542 0.63699,-1.406 0.958344,-1.8743 0.958344,-1.3964 0,0.092 -0.309394,0.8924 -0.687551,1.7775 -0.617418,1.445 -0.677493,1.7041 -0.588983,2.5401 0.05422,0.512 0.28063,1.4644 0.503146,2.1163 0.222516,0.652 0.531091,2.002 0.685717,3 0.385011,2.4852 1.647448,8.2719 2.268447,10.3978 0.508178,1.7399 1.259722,3.373 2.721172,5.9131 0.890307,1.5474 0.987357,2.2672 0.361044,2.6776 -0.420622,0.2756 -1.817118,0.4335 -2.679615,0.3029 z m -22.388871,-0.3074 c -0.397032,-0.1238 -0.873563,-0.3625 -1.058963,-0.5302 -0.519809,-0.4705 -1.077622,-1.5483 -1.300037,-2.512 -0.2335758,-1.012 -0.6503678,-1.6068 -1.3922498,-1.9868 -0.679018,-0.3479 -0.7713249,-0.5023 -0.7744089,-1.296 -0.00202,-0.4916 0.2254054,-1.0553 0.9073999,-2.2501 0.500472,-0.8768 0.995353,-1.9933 1.099741,-2.4811 0.12306,-0.5752 0.1638718,-2.1282 0.116079,-4.4168 -0.06558,-3.141 -0.133078,-3.8233 -0.612781,-6.1964 -0.484561,-2.3971 -0.531111,-2.8773 -0.460446,-4.75 0.05731,-1.5199 0.196117,-2.5235 0.513043,-3.7105 0.238944,-0.8949 0.434268,-2.0575 0.434053,-2.5834 -4.97e-4,-1.3265 -0.755273,-8.4841 -1.18166,-11.20639 -0.4164223,-2.6587 -0.3648331,-5.9712 0.168723,-10.83352 0.475013,-4.32877 1.2591048,-7.12673 1.5584068,-5.56103 0.05187,0.27139 -0.04562,0.6586 -0.255245,1.01392 -0.3052758,0.51741 -0.3286778,0.75255 -0.2341268,2.35265 0.1176778,1.99164 0.3773038,3.5474 1.0615488,6.36119 l 0.466097,1.9167 -0.002,6.58339 c -0.0027,7.26779 0.07984,6.54609 -1.245646,10.91689 -0.6497428,2.1424 -0.7143208,2.5242 -0.7894068,4.6667 -0.0717,2.0459 -0.02963,2.59 0.341545,4.4168 0.6897418,3.3945 0.8144348,4.7686 0.7446778,8.2063 -0.07257,3.5765 -0.102762,3.7032 -1.4136778,5.9327 -0.847042,1.4405 -0.8998272,1.9078 -0.260277,2.3044 0.994184,0.6164 1.3626118,1.1064 1.7226678,2.2906 0.454345,1.4944 0.852075,2.1545 1.544202,2.5629 0.794425,0.4687 1.954611,0.6054 2.654942,0.3127 0.912964,-0.3814 0.912984,-0.7927 1.21e-4,-3.409 -0.770344,-2.2078 -0.796488,-2.3447 -0.785852,-4.1171 0.0091,-1.5267 0.101855,-2.1679 0.554191,-3.8334 0.525306,-1.9341 0.547882,-2.151 0.685482,-6.5835 0.211215,-6.8035 0.584266,-8.3864 2.690708,-11.4168 2.552409,-3.6719 5.384103,-6.2128 7.925029,-7.111 1.914687,-0.6769 4.849983,-0.3705 7.301269,0.762 1.858038,0.8585 5.270766,2.9455 7.416065,4.5352 3.094156,2.2928 3.991766,2.6348 9.836719,3.7478 2.3787,0.4529 3.227032,0.534 6.330199,0.6051 7.156486,0.1638 12.873574,-0.3896 18.333617,-1.7748 2.751401,-0.698 8.17674,-2.2563 9.833487,-2.8244 2.975476,-1.0203 5.441283,-1.096 7.208445,-0.2212 0.670451,0.3319 0.958344,0.4079 0.958344,0.2529 0,-0.1219 0.06659,-0.2216 0.148022,-0.2216 0.08141,0 0.321172,0.6938 0.532817,1.5417 0.567871,2.2752 0.50752,3.6025 -0.271344,5.9683 -0.766292,2.3276 -0.818486,3.7492 -0.2444,6.6569 0.346497,1.7549 0.370034,2.212 0.27899,5.4167 -0.103911,3.6576 -0.262428,5.0566 -0.792772,6.9968 -0.45196,1.6534 -0.425897,1.892 0.236955,2.1689 0.672601,0.281 0.88127,0.5159 1.038409,1.1687 0.204126,0.8481 0.558108,1.3994 1.067899,1.663 0.706997,0.3656 2.47395,0.3231 3.696891,-0.089 0.95698,-0.3224 1.395374,-0.3272 1.04753,-0.011 -0.5166,0.4688 -2.802314,0.888 -4.04503,0.7419 -1.10763,-0.1301 -1.866121,-0.801 -2.182234,-1.93 -0.15073,-0.5384 -0.336788,-0.8115 -0.652935,-0.9584 -0.243177,-0.1131 -0.554641,-0.2607 -0.69214,-0.3281 -0.404812,-0.1987 -0.382391,-1.3406 0.06276,-3.1971 0.421247,-1.7568 0.770586,-5.3891 0.770586,-8.0121 0,-0.7727 -0.152826,-2.2535 -0.339617,-3.2909 -0.59691,-3.3149 -0.468065,-5.0407 0.597758,-8.0057 0.402305,-1.1192 0.439758,-1.407 0.357825,-2.75 -0.108224,-1.774 -0.346168,-2.6744 -0.743622,-2.8142 -0.15896,-0.056 -0.534108,-0.2828 -0.833665,-0.5042 -0.328281,-0.2426 -0.999143,-0.4837 -1.688716,-0.6069 -1.52381,-0.2723 -3.03361,-0.042 -5.988412,0.9146 -1.253111,0.4055 -3.478401,1.0752 -4.945092,1.4881 -8.721167,2.4554 -11.141667,2.8218 -20.171988,3.0532 -3.886491,0.1 -5.807467,-0.022 -8.411787,-0.5333 -0.687511,-0.1349 -2.24288,-0.4361 -3.456375,-0.6692 -3.342467,-0.6421 -4.631814,-1.2382 -7.835081,-3.6221 -1.877026,-1.397 -5.661669,-3.6032 -7.381851,-4.3032 -2.48507,-1.0113 -4.815205,-1.0825 -6.679001,-0.2042 -1.446405,0.6817 -3.550805,2.2799 -4.581124,3.4791 -1.396873,1.6258 -3.186335,4.0858 -3.624346,4.9824 -0.982789,2.0116 -1.440634,4.4845 -1.447871,7.8202 -0.0082,3.7787 -0.23928,6.1217 -0.840276,8.5199 -0.789789,3.1517 -0.754669,4.1866 0.2401,7.0745 1.040579,3.0209 1.013219,3.786 -0.152792,4.2732 -0.695883,0.2907 -1.759341,0.2862 -2.713835,-0.011 z m -1.721802,-34.5131 c 0.118525,-0.5099 0.251503,-2.3661 0.295493,-4.1251 0.04401,-1.759 0.103447,-3.59189 0.132104,-4.07319 0.02869,-0.4812 -0.01666,-0.875 -0.10076,-0.875 -0.08408,0 -0.107539,-0.073 -0.05214,-0.163 0.129941,-0.2102 0.12683,-2.93686 -0.0047,-4.33705 -0.05611,-0.59584 -0.254318,-1.68336 -0.440531,-2.4167 -0.186219,-0.73335 -0.357489,-1.44586 -0.38061,-1.58336 -0.02311,-0.1375 -0.08366,-0.3625 -0.1345288,-0.50001 -0.05086,-0.1375 -0.09717,-0.3625 -0.102883,-0.50001 -0.01673,-0.40288 -0.188659,-1.59952 -0.340483,-2.36998 l -0.140591,-0.7134 -0.0301,0.91668 c -0.0166,0.50418 -0.08103,1.40419 -0.143265,2.00003 -0.06222,0.59585 -0.113136,2.77088 -0.113136,4.83341 0,3.47489 0.09328,4.64719 0.590138,7.41678 0.08223,0.4583 0.1845,1.5458 0.22728,2.4167 0.1463018,2.9786 0.3160128,5.0001 0.4197548,5.0001 0.05705,0 0.200693,-0.4171 0.319218,-0.9269 z m 95.032648,9.3853 c -0.73513,-0.376 -1.16997,-0.8481 -0.96758,-1.0505 0.0595,-0.06 0.31131,0.08 0.55956,0.3103 1.37209,1.2723 3.31637,0.8119 5.44252,-1.2887 2.33443,-2.3063 5.95334,-7.6457 8.89251,-13.1203 1.59705,-2.97459 2.69555,-4.55409 4.17837,-6.00765 2.54085,-2.49074 4.19776,-3.61805 6.47412,-4.40479 1.16968,-0.40426 1.5891,-0.46203 3.41672,-0.47061 2.23453,-0.0105 3.66672,0.15712 3.66672,0.4291 0,0.10893 -0.33867,0.12284 -0.95834,0.0394 -1.6585,-0.22337 -4.20642,-0.13688 -5.29175,0.17964 -3.84958,1.12266 -8.10041,5.06502 -10.47371,9.71371 -1.07281,2.1014 -2.93813,5.2141 -4.65779,7.7726 -3.22296,4.795 -5.4174,7.1374 -7.42927,7.9305 -1.12246,0.4424 -1.9417,0.433 -2.85208,-0.033 z m -70.303328,-0.5 c -0.166048,-0.2009 -0.56269,-1.6299 -0.763302,-2.75 -0.06618,-0.3694 -0.03212,-0.5413 0.107156,-0.5405 0.114796,0 0.328994,0.5187 0.489318,1.1834 0.279494,1.1588 0.578971,1.7562 0.780282,1.5564 0.0557,-0.055 0.138756,-0.808 0.184587,-1.6728 0.04677,-0.8827 0.156427,-1.5717 0.250004,-1.5711 0.226944,0 0.30547,3.002 0.09318,3.5604 -0.183169,0.4817 -0.827376,0.614 -1.141225,0.2342 z m -8.345711,-0.4166 c -0.278527,-0.523 -0.316107,-3.3751 -0.04448,-3.3751 0.07989,0 0.180153,0.6028 0.222799,1.3395 0.0858,1.482 0.330593,1.9568 0.729928,1.4157 0.221979,-0.3008 0.354735,-0.6952 0.660884,-1.9635 0.07359,-0.3049 0.04435,-0.4584 -0.08734,-0.4584 -0.35851,0 -2.386635,-0.8722 -3.374752,-1.4513 -1.100688,-0.6451 -2.963509,-2.1462 -2.963509,-2.3881 0,-0.3292 0.387295,-0.139 1.22313,0.6006 1.116236,0.9879 3.862652,2.3353 5.451382,2.6745 1.832928,0.3915 5.153578,0.2306 6.772227,-0.3281 0.658102,-0.2272 1.527203,-0.6068 1.931336,-0.8436 0.792941,-0.4647 0.955509,-0.5126 0.955509,-0.2814 0,0.2829 -1.586438,1.1626 -2.916711,1.6172 -1.169411,0.3997 -1.654422,0.465 -3.944692,0.5309 l -2.611336,0.075 -0.189901,1.0905 c -0.266291,1.5292 -0.557846,2.0371 -1.169277,2.0371 -0.296245,0 -0.551255,-0.1153 -0.645201,-0.2916 z m -18.5233438,-4.8147 c 0,-0.5168 -0.1108584,-1.8856 -0.2463489,-3.0418 -0.1354905,-1.1561 -0.3609497,-3.193 -0.5010293,-4.5264 -0.1763294,-1.6784 -0.5176123,-3.47329 -1.1092083,-5.83339 l -0.8545208,-3.40908 4.972e-4,-3.66672 c 3.36e-4,-2.64059 0.072177,-4.01654 0.2564275,-4.91674 0.2497151,-1.22007 1.4817213,-4.4991 2.379305,-6.33263 1.3911886,-2.84183 3.2700684,-4.52507 7.1582464,-6.41288 2.093521,-1.01646 3.683118,-1.56243 6.416767,-2.20397 1.742879,-0.40901 2.218994,-0.45004 5.250085,-0.45244 3.302851,-0.003 4.629549,0.11495 10.294114,0.91218 2.034562,0.28634 3.288008,0.3228 11.0835,0.32236 6.343073,-3.4e-4 9.485371,-0.0668 11.289555,-0.2389 1.375022,-0.13112 3.512554,-0.28648 4.750076,-0.34524 1.326148,-0.063 3.58453,-0.3384 5.500083,-0.6708 1.787527,-0.31017 4.150061,-0.64765 5.250084,-0.74994 1.100016,-0.1023 3.274947,-0.33045 4.833185,-0.507 3.43601,-0.38931 8.358034,-0.42217 10.979482,-0.0733 2.070529,0.27555 4.082783,0.76935 7.187683,1.7638 2.77125,0.88759 4.53506,1.02869 6.51474,0.52118 1.47009,-0.37687 2.28197,-0.71073 2.90207,-1.1934 0.5797,-0.45121 3.6766,-1.21108 4.90471,-1.20343 1.26004,0.008 1.71146,0.17704 3.18728,1.19463 1.22106,0.84193 2.8642,1.50287 3.73627,1.50287 0.2779,0 0.50526,0.075 0.50526,0.16667 0,0.24641 -1.07663,0.20233 -2.0577,-0.0843 -0.47246,-0.13801 -1.60459,-0.70052 -2.51587,-1.25002 -2.01555,-1.21539 -2.48296,-1.27604 -4.98342,-0.64657 -0.71878,0.18095 -1.60399,0.44788 -1.96712,0.59318 l -0.66026,0.26418 0.36233,0.38568 c 0.56357,0.59989 1.17955,0.82769 5.17278,1.91296 2.04921,0.55693 3.7586,1.04536 3.79864,1.0854 0.31854,0.31855 -0.65352,0.15272 -3.93486,-0.67126 -4.1346,-1.03825 -5.23026,-1.42795 -5.70243,-2.02823 -0.30193,-0.38383 -0.32509,-0.38682 -1.03556,-0.13375 -1.38525,0.49343 -2.87848,0.76096 -4.21946,0.75598 -1.14287,-0.004 -1.82513,-0.14699 -4.493473,-0.9402 -3.982118,-1.18374 -5.487134,-1.50771 -8.159096,-1.75626 -2.784089,-0.25899 -6.42948,-0.1204 -10.855131,0.4127 -1.925027,0.23189 -4.250062,0.50559 -5.166748,0.60824 -0.916679,0.10265 -2.566707,0.37119 -3.666723,0.59677 -1.100017,0.22557 -3.087545,0.48171 -4.416736,0.56919 -1.329185,0.0875 -3.729225,0.2904 -5.333415,0.45093 -2.382637,0.23843 -4.564696,0.29188 -11.916849,0.29194 -8.45274,6e-5 -9.147125,-0.0224 -11.416841,-0.36907 -4.432116,-0.67699 -7.059342,-0.9261 -9.833487,-0.9324 -2.350722,-0.005 -3.055017,0.0578 -4.850332,0.43526 -2.510159,0.52767 -4.507443,1.2092 -6.649846,2.26915 -4.43784,2.19559 -6.0013798,3.92373 -8.0098647,8.8531 -1.3242999,3.25018 -1.3938761,3.6555 -1.4008706,8.16097 l -0.00605,3.91673 0.8088108,3.24998 c 0.6484061,2.6055 0.8891378,3.99379 1.2138581,7.00009 0.5307008,4.9135 0.6685228,7.3335 0.4176388,7.3335 -0.12001,0 -0.190197,-0.3466 -0.190197,-0.9396 z M 140.58628,991.36517 c -0.18333,-0.0437 -0.67084,-0.16141 -1.08335,-0.26142 -0.4125,-0.1 -1.26119,-0.43963 -1.88597,-0.75471 -1.29437,-0.65277 -2.64366,-0.94397 -5.59806,-1.20816 -2.01328,-0.18003 -2.96467,-0.44835 -3.76588,-1.0621 -0.62095,-0.47567 -0.14319,-0.45225 0.84736,0.0415 0.84107,0.41927 1.30374,0.51809 3.15244,0.67327 3.2608,0.27373 4.16337,0.46573 6.16677,1.31185 1.63257,0.6895 1.97026,0.77431 3.08337,0.77431 1.61922,0 2.5315,-0.43664 4.0179,-1.92304 1.67179,-1.67179 1.86695,-2.80758 0.78546,-4.57111 -0.7271,-1.18564 -0.98849,-1.48079 -4.28575,-4.83936 -3.2843,-3.34537 -3.7833,-3.92642 -5.34526,-6.22426 -1.2276,-1.80594 -1.70807,-2.19205 -3.39846,-2.73101 -1.49492,-0.47663 -2.24113,-1.17593 -2.65144,-2.48472 -0.52912,-1.68776 -1.30312,-2.31022 -2.87266,-2.31022 -1.02734,0 -1.34225,0.13174 -3.17522,1.32831 -1.50157,0.98023 -2.35289,1.27257 -4.32489,1.48516 -0.82502,0.0889 -1.71116,0.2423 -1.96922,0.3408 -0.57794,0.22063 -0.61415,0.22112 -0.61415,0.008 0,-0.28077 0.80285,-0.50196 2.66045,-0.73298 2.04806,-0.25469 2.61596,-0.46763 4.29034,-1.60867 1.9396,-1.32179 3.18804,-1.6156 4.51307,-1.06211 0.9457,0.39505 1.47693,1.0099 1.8945,2.19269 0.44689,1.26587 1.10032,1.92219 2.26453,2.27454 2.16869,0.65636 2.66238,1.06797 4.42667,3.69073 0.92472,1.37466 1.25964,1.75125 4.53781,5.1024 4.31263,4.40862 5.23702,5.71339 5.24113,7.39779 0.006,2.35716 -2.79318,4.98178 -5.5035,5.16076 -0.59106,0.039 -1.22465,0.0351 -1.40799,-0.009 z m 3.76509,-4.04771 c -0.42285,-0.11829 -1.14672,-0.94499 -0.97649,-1.11522 0.20073,-0.20072 1.62814,0.78398 1.62814,1.12318 0,0.15401 -0.0759,0.15309 -0.65165,-0.008 z m -11.82139,-9.12097 c -0.36543,-0.25596 -0.49431,-1.09856 -0.23127,-1.51207 0.19466,-0.30602 0.97058,-0.43575 1.35995,-0.22736 0.42615,0.22807 0.31201,0.50977 -0.15687,0.38716 -0.69217,-0.18101 -1.07427,0.57504 -0.57144,1.13067 0.34568,0.38196 0.0568,0.54184 -0.40037,0.2216 z"
           style="fill:#a0a1a2;fill-opacity:1" />
        <path
           inkscape:label="bracket"
           inkscape:connector-curvature="0"
           id="bracket"
           d="m 149.5857,1049.1516 c 0,-0.019 0.10415,-0.2666 0.23133,-0.5501 0.2989,-0.6663 0.66394,-1.7856 0.85631,-2.6257 0.38617,-1.6864 0.46564,-3.7258 0.55385,-14.2107 0.0882,-10.4872 0.1633,-12.8741 0.5155,-16.391 0.22075,-2.2043 0.4937,-3.6833 0.90878,-4.9243 0.8329,-2.4904 2.77612,-4.7605 6.09634,-7.1217 l 0.45176,-0.3213 -0.44921,-0.2957 c -2.23583,-1.4719 -4.29157,-3.43996 -5.16694,-4.94653 -0.87899,-1.51293 -1.60941,-4.09969 -1.92489,-6.81697 -0.27045,-2.3295 -0.42866,-8.23072 -0.43273,-16.14115 -0.003,-5.50686 -0.10104,-10.65738 -0.23412,-12.27198 -0.16916,-2.05307 -0.3979,-3.10315 -1.01516,-4.66037 -0.17196,-0.43381 -0.31266,-0.80426 -0.31266,-0.82318 0,-0.10308 0.69478,0.54684 1.01548,0.94994 1.05803,1.32988 1.54547,2.72506 1.82977,5.23709 0.36132,3.19277 0.44369,5.66865 0.52145,15.67218 0.0388,5.00844 0.0892,9.26452 0.1115,9.45798 0.0225,0.19349 0.078,0.79143 0.12361,1.32879 0.17968,2.1191 0.55086,4.1553 1.0168,5.57778 0.39305,1.20004 1.17316,2.69359 1.96825,3.76826 0.75385,1.01906 2.2403,2.52206 3.2424,3.27876 0.511,0.3859 0.723,0.5944 0.72302,0.7111 4e-5,0.1162 -0.25968,0.3736 -0.87931,0.8714 -2.95326,2.3725 -4.73812,5.0914 -5.45148,8.3042 -0.31414,1.4149 -0.47902,2.6157 -0.74061,5.3934 -0.0223,0.2364 -0.0726,4.563 -0.11183,9.6144 -0.0701,9.0352 -0.1308,11.3954 -0.36455,14.187 -0.27949,3.3381 -0.68493,4.9185 -1.60933,6.2734 -0.4052,0.594 -1.47333,1.6632 -1.47333,1.475 z"
           style="fill:#d0d6d3;fill-opacity:1" />
      </g>
      <!-- g3890 -->
    </g>
    <!-- lines -->
    <g
       inkscape:groupmode="layer"
       id="LAYER_EFO"
       inkscape:label="LAYER_EFO"
       transform="translate(0,-644.09451)">
      <g
         id="UBERON:0001013"
         inkscape:label="UBERON:0001013"
         style="fill:none"
         transform="matrix(0.1453453,0,0,0.1453453,-11.46757,647.39768)">
        <path
           inkscape:connector-curvature="0"
           id="path3052"
           d="m 156.80852,320.78729 c -0.01,-6.90541 -0.25252,-11.23981 -0.8903,-15.89416 -0.50693,-3.69947 -0.9326,-5.41244 -2.82136,-11.3535 -3.90058,-12.26924 -6.67217,-25.57311 -8.04951,-38.63834 -0.55495,-5.26415 -0.7686,-16.82838 -0.39425,-21.33947 0.71872,-8.66082 2.6755,-17.63598 5.05564,-23.1886 1.44168,-3.3633 10.08683,-10.1839 23.96634,-18.90823 12.89187,-8.10354 30.55896,-15.12484 45.8797,-18.23364 14.1905,-2.87946 25.64915,-2.91097 53.7946,-0.14794 11.28452,1.10779 46.37572,5.39253 46.81281,5.71598 0.26083,0.193 -4.04924,4.84609 -8.98873,9.7041 -8.65419,8.51142 -18.01259,16.08133 -27.93786,22.5986 -2.66169,1.74776 -9.44194,5.93078 -15.06723,9.2956 -32.7114,19.56665 -62.67275,40.05898 -83.40591,57.0462 -4.39923,3.6044 -5.34721,4.65287 -8.388,9.27721 -6.60778,10.04887 -12.30271,21.61985 -17.83598,36.23922 l -1.72049,4.54569 -0.009,-6.71872 0,0 z"
           style="fill:none;stroke:none" />
        <path
           inkscape:connector-curvature="0"
           id="path3056"
           d="m 712.98905,427.00704 c -6.93245,-1.72332 -15.75809,-4.74692 -22.3103,-7.64333 -12.4455,-5.50156 -29.68885,-13.6766 -38.3414,-18.17758 -13.07214,-6.80002 -22.1146,-9.44886 -35.69848,-10.45729 l -4.93137,-0.36609 1.80836,-2.68179 c 3.66842,-5.44025 11.21298,-11.67036 17.47517,-14.43056 5.32491,-2.34707 24.52316,-5.6617 35.78354,-6.17813 5.84661,-0.26813 8.15043,-0.11927 16.16244,1.04435 17.62321,2.55951 28.24537,4.9637 38.96301,8.81879 9.6221,3.46104 28.35073,5.33798 41.2917,4.13818 3.44357,-0.31927 6.31879,-0.51902 6.38938,-0.44389 0.2649,0.28194 -24.09737,33.01398 -26.15742,35.14392 -3.19416,3.30253 -8.23,6.99595 -12.23761,8.9754 -6.73791,3.32802 -11.51041,3.92022 -18.19702,2.25802 l 0,0 z"
           style="fill:none;stroke:none" />
        <path
           inkscape:connector-curvature="0"
           id="path3060"
           d="m 641.31216,256.05247 c -18.69659,-3.45061 -40.69294,-9.11484 -66.42857,-17.10588 -4.61607,-1.43331 -10.08036,-3.24145 -12.14286,-4.01808 -13.90907,-5.23748 -34.48492,-15.49196 -48.03571,-23.93977 -7.6814,-4.78873 -12.97494,-8.41306 -24.01691,-16.44365 -8.9014,-6.47381 -27.09532,-14.83606 -36.69738,-16.86678 l -2.14286,-0.45319 1.97002,-0.6155 c 5.01914,-1.56816 15.65988,-2.78142 26.77998,-3.05345 l 8.39286,-0.20532 32.14286,-4.76537 c 31.24986,-4.63297 32.47028,-4.78574 43.92857,-5.49878 20.75771,-1.29175 28.98812,-1.60428 42.67857,-1.62065 l 13.39286,-0.016 6.78571,1.35984 c 16.87623,3.38194 29.73676,6.73389 47.74009,12.4429 l 9.16866,2.90746 0.29563,3.07347 c 0.5656,5.88028 0.2674,18.97962 -0.58217,25.57348 -1.44746,11.23436 -3.86774,21.58425 -7.36919,31.51304 -1.09196,3.0964 -2.06597,5.88654 -2.16446,6.20032 -0.44464,1.41654 -10.57283,6.53533 -17.11687,8.65088 -6.39061,2.06594 -13.91265,3.37311 -16.57883,2.88105 l 0,0 z"
           style="fill:none;stroke:none" />
      </g>
      <path
         style="fill:none;stroke:none"
         d="m 45.399286,691.2975 c 2.78559,-1.72457 7.017026,-3.65338 9.111078,-5.6851 0.595783,-0.5844 0.890202,-0.94802 1.031034,-1.27338 0.118284,-0.27328 0.111564,-0.44183 -0.02901,-0.72825 -0.256244,-0.52192 -0.856656,-0.74858 -1.738245,-0.65614 -1.464736,0.24121 -0.43412,-0.007 -1.756524,0.40296 -0.458538,-0.39141 -0.615036,-0.63742 -0.505249,-1.17432 1.394536,-0.52687 1.753185,-0.77081 3.690223,-0.69229 0.770006,0.0378 1.795867,0.56231 2.184711,1.117 0.291852,0.41633 0.217953,1.30473 -0.174811,2.10144 -0.343088,0.69594 -0.844468,1.29838 -1.779431,2.13805 -0.677971,0.65867 -7.442286,5.03776 -9.358939,5.71542 -0.262062,-0.36257 -1.190391,-1.00083 -0.674819,-1.26539 z"
         id="UBERON:0002114"
         inkscape:connector-curvature="0"
         inkscape:label="UBERON:0002114"
         sodipodi:nodetypes="ccscccccssccc" />
      <path
         sodipodi:type="arc"
         style="fill:none;stroke:none"
         id="UBERON:0001898"
         sodipodi:cx="845.3714"
         sodipodi:cy="188.51057"
         sodipodi:rx="4.1668792"
         sodipodi:ry="3.7880721"
         d="m 849.53828,188.51057 c 0,2.0921 -1.86558,3.78808 -4.16688,3.78808 -2.3013,0 -4.16688,-1.69598 -4.16688,-3.78808 0,-2.09209 1.86558,-3.78807 4.16688,-3.78807 2.3013,0 4.16688,1.69598 4.16688,3.78807 z"
         transform="matrix(0.1453453,0,0,0.1453453,-11.908033,646.99392)"
         inkscape:label="UBERON:0001898" />
      <path
         style="fill:none;stroke:none"
         d="m 36.124975,683.72802 c -0.670719,-0.42264 -1.136884,-1.09432 -1.243708,-1.79201 -0.09204,-0.60106 0.237161,-0.94357 1.606494,-1.67146 l 0.855912,-0.45497 1.894329,0.0144 c 3.708762,0.0281 5.914098,0.61427 6.763769,1.79776 0.19594,0.27292 0.190251,0.35056 -0.04565,0.62312 -0.318285,0.36772 -1.372123,0.56392 -3.548759,0.66069 -1.094701,0.0486 -1.863653,0.18284 -3.475392,0.60645 -1.138308,0.29916 -2.108941,0.54995 -2.156949,0.55731 -0.04799,0.008 -0.340521,-0.14622 -0.65004,-0.34125 z"
         id="UBERON:0002113"
         inkscape:connector-curvature="0"
         inkscape:label="UBERON:0002113" />
      <path
         style="fill:none;stroke:none"
         d="m 73.231338,703.3381 c -0.918058,-0.38058 -4.055882,-4.59148 -6.381517,-8.56389 -2.888253,-4.9334 -5.380989,-10.8296 -5.380989,-12.72792 0,-1.2953 0.224189,-1.36166 3.656796,-1.08264 13.583396,1.10413 28.675507,2.86335 30.048429,3.5026 0.71522,0.333 1.146137,0.90218 1.445372,1.90908 0.138851,0.46718 0.423693,0.96257 0.660525,1.14872 0.229009,0.18001 0.499828,0.63688 0.601779,1.01527 0.330229,1.22545 -0.504518,4.67457 -1.551612,6.4112 -0.372981,0.61861 -1.321366,1.10385 -6.412563,3.28107 -5.708212,2.44107 -14.187902,5.38989 -15.44893,5.37239 -0.339103,-0.005 -0.895884,-0.12436 -1.23729,-0.26588 l 0,0 z"
         id="UBERON:0002048"
         inkscape:connector-curvature="0"
         inkscape:label="UBERON:0002048" />
    </g>
    <!-- LAYER_EFO -->
  </g>
  <!-- group_all -->
</svg>
