<?xml version="1.0" encoding="UTF-8" standalone="no"?>
<!-- Created with Inkscape (http://www.inkscape.org/) -->

<svg
   xmlns:dc="http://purl.org/dc/elements/1.1/"
   xmlns:cc="http://creativecommons.org/ns#"
   xmlns:rdf="http://www.w3.org/1999/02/22-rdf-syntax-ns#"
   xmlns:svg="http://www.w3.org/2000/svg"
   xmlns="http://www.w3.org/2000/svg"
   xmlns:sodipodi="http://sodipodi.sourceforge.net/DTD/sodipodi-0.dtd"
   xmlns:inkscape="http://www.inkscape.org/namespaces/inkscape"
   width="150"
   height="100"
   id="svg2"
   version="1.1"
   inkscape:version="0.48.5 r10040"
   sodipodi:docname="rat.svg">
  <defs
     id="defs4" />
  <sodipodi:namedview
     id="base"
     pagecolor="#ffffff"
     bordercolor="#666666"
     borderopacity="1.0"
     inkscape:pageopacity="0.0"
     inkscape:pageshadow="2"
     inkscape:zoom="1.979899"
     inkscape:cx="274.95007"
     inkscape:cy="204.09848"
     inkscape:document-units="px"
     inkscape:current-layer="layer1"
     showgrid="false"
     inkscape:window-width="1789"
     inkscape:window-height="1286"
     inkscape:window-x="470"
     inkscape:window-y="0"
     inkscape:window-maximized="0" />
  <metadata
     id="metadata7">
    <rdf:RDF>
      <cc:Work
         rdf:about="">
        <dc:format>image/svg+xml</dc:format>
        <dc:type
           rdf:resource="http://purl.org/dc/dcmitype/StillImage" />
        <dc:title />
      </cc:Work>
    </rdf:RDF>
  </metadata>
  <g
     inkscape:label="Layer 1"
     inkscape:groupmode="layer"
     id="layer1"
     transform="translate(0,-952.36218)">
    <path
       style="fill:#a0a1a2;fill-opacity:1"
       d="m 99.882781,1048.8466 c -0.79465,-0.038 -3.70761,-0.1992 -6.47324,-0.3586 -2.76563,-0.1595 -7.75027,-0.2908 -11.07697,-0.2919 -7.51936,-0 -12.2345,-0.378 -17.06643,-1.359 -2.86457,-0.5816 -6.03102,-1.939 -6.03102,-2.5854 0,-0.3852 0.28765,-0.3686 1.75685,0.1013 4.60415,1.4724 6.60905,1.7194 15.58101,1.9197 10.3526,0.2312 35.438569,0.2344 39.533479,0.01 1.83127,-0.1025 5.05674,-0.2803 7.16772,-0.395 8.7254,-0.4742 13.38926,-2.1939 15.44751,-5.6957 0.50293,-0.8557 0.55657,-1.115 0.55657,-2.6907 0,-1.6235 -0.0491,-1.8427 -0.71234,-3.1786 -0.85744,-1.7271 -2.82347,-4.2252 -4.45317,-5.6582 -1.75471,-1.543 -8.03125,-6.3595 -10.31174,-7.9131 -1.08869,-0.7417 -3.64143,-2.5837 -5.67277,-4.0934 -4.6386,-3.4472 -5.93514,-4.094 -8.20759,-4.094 -0.85959,0 -1.46879,0.1761 -3.04937,0.8816 -2.40218,1.0722 -3.89714,1.254 -6.38369,0.7763 -2.347939,-0.451 -3.112629,-0.3957 -5.403979,0.3906 -2.77916,0.9537 -3.84862,1.1933 -5.9974,1.3434 l -1.83867,0.1284 -0.33042,0.7989 c -0.42584,1.0296 -1.34746,2.1421 -2.23006,2.692 -2.32406,1.4478 -7.15687,2.6715 -11.84714,2.9996 -1.92076,0.1343 -3.05987,0.3325 -4.74323,0.8251 -1.21846,0.3565 -2.3755,0.7382 -2.57119,0.8481 -0.32134,0.1804 -0.28632,0.2408 0.36146,0.623 l 0.71727,0.4232 2.62473,-0.8748 c 2.21089,-0.7368 2.86008,-0.8747 4.11748,-0.8747 0.82102,0 1.49276,0.074 1.49276,0.1652 0,0.091 -0.49847,0.1663 -1.1077,0.1676 -0.6709,0 -1.86735,0.2312 -3.03413,0.5827 -1.05953,0.3192 -2.47238,0.7356 -3.13965,0.9253 -0.66727,0.1896 -1.25754,0.4165 -1.31171,0.5042 -0.20434,0.3306 3.12955,0.1586 4.65144,-0.2401 0.83865,-0.2196 1.72393,-0.3613 1.96731,-0.3148 0.24337,0.046 0.4899,0.01 0.54785,-0.086 0.17334,-0.2804 2.0171,-1.1544 2.26056,-1.0714 0.12406,0.042 -0.2729,0.3966 -0.88213,0.7874 -1.18771,0.762 -1.23573,0.8361 -0.8669,1.3384 0.21967,0.2991 0.3563,0.2503 1.55668,-0.5556 1.52871,-1.0264 2.98036,-1.6079 5.74989,-2.3033 2.41656,-0.6068 7.11076,-2.1296 8.11242,-2.6317 0.91249,-0.4574 1.4209,-1.2759 1.58078,-2.545 0.16592,-1.3171 0.47342,-2.2645 0.69127,-2.1299 0.10794,0.067 0.10618,0.2433 -0.004,0.4501 -0.10016,0.1871 -0.23937,0.8104 -0.30936,1.3849 -0.19989,1.6411 -0.71617,2.5453 -1.77634,3.1111 -1.05924,0.5654 -5.897,2.1833 -9.09917,3.0431 -2.17405,0.5838 -3.49909,1.1916 -5.05546,2.319 -1.01168,0.7329 -1.5901,0.7345 -1.967,0.01 -0.15943,-0.3083 -0.39538,-0.5957 -0.52434,-0.6387 -0.12896,-0.043 -1.01871,0.1256 -1.97723,0.3745 -1.33889,0.3478 -2.14487,0.44 -3.47795,0.3979 l -1.7352,-0.055 -0.008,-0.5514 c -0.006,-0.4025 -0.15204,-0.627 -0.54156,-0.8311 -0.66398,-0.3479 -0.62828,-1.0158 0.0722,-1.3504 0.2673,-0.1277 1.59156,-0.5351 2.94282,-0.9055 1.89319,-0.5189 2.99706,-0.702 4.81169,-0.7978 2.66555,-0.1408 6.55957,-0.8109 8.42312,-1.4494 2.803,-0.9604 4.2436,-1.9626 5.02861,-3.4981 0.60247,-1.1784 0.54606,-1.2427 -1.22391,-1.3948 -4.36754,-0.3752 -6.91933,-1.1931 -14.76256,-4.7321 l -1.80733,-0.8155 -2.62346,0.087 c -2.96101,0.098 -3.66142,0.3127 -5.32046,1.6337 -1.55251,1.2361 -4.07406,5.9638 -5.37928,10.0857 -0.3818,1.2057 -0.88658,2.473 -1.12172,2.8162 -0.5373,0.7841 -1.71654,1.4593 -2.40945,1.3796 -0.46582,-0.054 -0.52548,-0.1374 -0.49917,-0.7006 0.0247,-0.5284 -0.0256,-0.6154 -0.28897,-0.5002 -2.1452,0.9383 -3.9307,1.0933 -4.03679,0.3504 -0.0518,-0.3629 -0.15495,-0.3949 -1.00814,-0.313 -0.78951,0.076 -0.97297,0.033 -1.08371,-0.256 -0.16879,-0.4399 0.27593,-0.7454 2.32384,-1.5963 0.85124,-0.3537 1.78047,-0.8088 2.06496,-1.0114 0.28449,-0.2025 0.63081,-0.3683 0.7696,-0.3683 0.51114,0 -0.31749,0.568 -2.52811,1.733 -1.82473,0.9616 -2.07887,1.1454 -1.44392,1.0442 0.66628,-0.1061 2.75998,-0.7364 3.80469,-1.1453 0.18542,-0.073 0.33713,-0.048 0.33713,0.056 0,0.1033 -0.65017,0.436 -1.44482,0.7394 -1.0812,0.4128 -1.44483,0.6416 -1.44483,0.9093 0,0.3138 0.10043,0.341 0.81874,0.2211 0.94282,-0.1574 3.39817,-1.0031 3.76119,-1.2955 0.135,-0.1088 0.30205,-0.1412 0.37122,-0.072 0.0692,0.069 -0.0221,0.2338 -0.20279,0.366 -0.18071,0.1321 -0.34776,0.4996 -0.37123,0.8167 -0.0508,0.687 0.30332,0.6958 1.32778,0.033 0.55897,-0.3617 0.79898,-0.8041 1.74322,-3.2128 1.6752,-4.2734 2.68941,-6.4992 3.43317,-7.5345 0.3725,-0.5185 0.67728,-1.0124 0.67728,-1.0976 0,-0.255 1.58565,-1.861 2.33299,-2.363 1.32469,-0.8897 3.87733,-3.5014 5.71255,-5.8447 0.23988,-0.3063 0.49036,-0.5027 0.55663,-0.4364 0.0663,0.066 -0.12999,0.4476 -0.43614,0.8474 -0.30615,0.3998 -0.75121,1.0122 -0.98903,1.3608 -0.56507,0.8283 -0.73845,1.0325 -1.85319,2.1828 l -0.9371,0.9671 0.64813,-0.1016 c 1.60551,-0.2516 3.62165,-0.3094 4.54652,-0.1304 0.55481,0.1074 2.46198,0.8364 4.23814,1.6201 4.42145,1.9507 4.40493,1.9472 3.22215,0.683 -1.24763,-1.3336 -1.69085,-2.0769 -2.22105,-3.7249 -0.49309,-1.5326 -0.58157,-4.2089 -0.20467,-6.1903 0.3049,-1.6029 1.34926,-4.8961 1.55266,-4.8961 0.0911,0 0.002,0.52723 -0.199,1.17162 -1.84205,5.91848 -1.39167,10.32518 1.36181,13.32468 1.77324,1.9317 3.62369,2.6748 8.24856,3.3124 4.23319,0.5837 6.40878,0.381 10.36485,-0.9653 2.24677,-0.7647 3.59101,-0.843 5.982059,-0.3485 2.3807,0.4924 3.64044,0.3032 6.48382,-0.9734 l 2.3815,-1.0693 1.14047,0.2899 c 1.66165,0.4223 3.58761,1.4297 5.66757,2.9644 2.1023,1.5512 7.55425,5.473 8.91465,6.4127 2.53455,1.7506 7.9417,6.0248 9.44855,7.4687 2.08439,1.9973 3.24469,3.5049 4.15561,5.3995 0.62998,1.3103 0.69466,1.5973 0.69466,3.0823 0,1.3898 -0.0788,1.798 -0.52101,2.6983 -1.31562,2.6788 -4.23255,4.4152 -9.01481,5.3664 -5.54685,1.1034 -10.76474,1.2807 -37.276409,1.2669 -23.37717,-0.012 -24.65017,-0.052 -28.18924,-0.8696 -1.8467,-0.427 -2.3688,-0.4589 -1.34424,-0.082 1.17366,0.4314 4.32042,1.0203 7.1869,1.345 4.04305,0.4579 7.4418,0.6143 14.23937,0.6551 3.3816,0.02 7.28262,0.1253 8.66893,0.2331 5.53168,0.4305 21.812729,0.5917 26.950279,0.2668 0.93381,-0.059 3.88125,-0.2296 6.54986,-0.3789 4.88794,-0.2735 6.62565,-0.5224 8.8446,-1.267 4.6399,-1.5568 7.66231,-4.9913 7.66231,-8.7069 0,-2.8828 -1.60267,-6.446 -4.12711,-9.1758 -1.01229,-1.0946 -3.4891,-3.0452 -8.5867,-6.7625 -5.68365,-4.1447 -7.49324,-5.6839 -8.89729,-7.568 -2.23581,-3.0002 -3.15082,-5.5511 -4.61021,-12.8522 -0.11648,-0.5827 -0.6746,-2.35987 -1.24027,-3.94918 -0.56567,-1.5893 -1.47662,-4.2981 -2.02434,-6.01954 -2.61019,-8.20378 -8.55527,-17.34016 -13.955059,-21.44608 -2.33697,-1.777 -6.15223,-3.7419 -9.34341,-4.81196 -2.54793,-0.85437 -6.99304,-1.58009 -9.82456,-1.60399 -3.16921,-0.0267 -4.83224,0.40993 -8.71775,2.28905 -4.23061,2.04603 -5.53019,2.44902 -8.24409,2.55643 -1.87071,0.074 -2.46838,0.0215 -3.75654,-0.33046 -1.55644,-0.42521 -4.17089,-1.61619 -4.5496,-2.07251 -0.35348,-0.42591 0.113,-0.29582 1.51304,0.42196 2.36431,1.21214 3.72678,1.54535 6.22443,1.52225 1.94504,-0.018 2.44863,-0.0968 4.12666,-0.64571 1.0512,-0.34387 3.00171,-1.1606 4.33447,-1.81495 5.20298,-2.55453 8.04398,-2.8981 14.62222,-1.76832 3.20826,0.55101 4.31292,0.85092 6.57159,1.78417 5.11967,2.11536 8.420879,4.41201 11.496349,7.99801 3.01836,3.51941 4.74546,6.18351 7.15354,11.03458 1.61596,3.25535 1.9071,3.99195 3.04567,7.70571 0.48725,1.58931 1.17547,3.66985 1.52937,4.62343 0.83403,2.24729 1.53342,4.76611 1.92568,6.93511 0.73512,4.0651 1.8645,7.2023 3.4558,9.5997 1.41104,2.1258 3.15578,3.61 11.09011,9.4336 1.53632,1.1277 2.88001,2.1206 2.98596,2.2065 0.10595,0.086 0.62609,0.4843 1.15586,0.8852 3.44839,2.6096 5.68767,5.7373 6.66926,9.3152 1.56714,5.7123 -2.52869,10.7087 -10.08182,12.2987 -0.77193,0.1625 -2.83389,0.3799 -4.58212,0.4832 -1.74824,0.1033 -4.43561,0.2816 -5.97193,0.3962 -2.6904,0.2007 -19.96005,0.3829 -22.924509,0.2419 z m -56.74348,-25.9996 c 0.42834,-1.0462 0.41621,-1.0531 -0.91794,-0.5238 -0.69143,0.2743 -1.39397,0.4463 -1.5612,0.3821 -0.4177,-0.1603 -0.38105,-0.6297 0.0856,-1.0963 0.33016,-0.3302 0.34486,-0.4069 0.0963,-0.5023 -0.39444,-0.1513 -0.37134,-0.7156 0.0438,-1.07 0.18542,-0.1582 0.9006,-0.5984 1.5893,-0.9782 2.74602,-1.514 3.67716,-3.4115 4.22946,-8.6185 0.3396,-3.2017 0.92747,-6.2147 1.18189,-6.0575 0.0999,0.062 0.14119,0.1776 0.0918,0.2575 -0.17261,0.2793 -0.50426,2.6452 -0.77615,5.537 -0.5649,6.0081 -1.41917,7.6247 -5.16512,9.7744 -0.84187,0.4831 -1.05044,0.8914 -0.45538,0.8914 0.13179,0 0.96289,-0.3498 1.84687,-0.7773 0.88399,-0.4275 1.69629,-0.7476 1.80511,-0.7113 0.22543,0.075 -1.27232,1.022 -2.56584,1.622 -0.73713,0.342 -1.81418,1.2151 -1.4989,1.2151 0.28271,0 1.9169,-0.6591 2.90191,-1.1704 0.97395,-0.5055 1.14922,-0.5431 1.39379,-0.2985 0.24457,0.2446 0.1711,0.3434 -0.58428,0.7861 -1.41174,0.8273 -1.14463,1.0843 0.68437,0.6584 1.7798,-0.4144 2.77675,-0.8777 3.45713,-1.6065 0.4402,-0.4715 0.48829,-0.7077 0.60194,-2.9565 0.114,-2.2554 0.70323,-5.44 1.14727,-6.2007 0.26864,-0.4601 0.22763,0.039 -0.1821,2.2158 -0.19938,1.0593 -0.41858,2.6196 -0.48711,3.4672 -0.25576,3.1635 -0.34445,3.8575 -0.51577,4.0359 -0.10996,0.1145 -0.17575,0.097 -0.17575,-0.047 0,-0.1265 -0.38113,0.061 -0.84695,0.4166 -0.82861,0.6325 -3.05318,1.38 -4.81985,1.6196 -0.68381,0.093 -0.74035,0.068 -0.60423,-0.2644 z m 7.23758,-1.6671 c 0.0125,-0.9015 0.43587,-4.1407 0.6947,-5.3152 0.35593,-1.6151 0.29585,-4.2745 -0.1137,-5.0321 -0.14102,-0.2609 -0.81391,-2.1248 -1.4953,-4.1419 -1.23601,-3.6589 -2.90176,-7.65001 -3.89407,-9.3302 -0.68385,-1.15789 -2.49889,-3.78902 -3.86778,-5.60684 -1.89369,-2.51471 -2.74153,-4.07503 -3.39206,-6.2426 -0.14577,-0.48573 -0.38998,-0.64179 -1.84926,-1.18175 -2.2818,-0.8443 -4.13286,-1.32711 -7.76711,-2.02587 -3.49822,-0.67261 -4.88216,-1.03731 -5.91464,-1.55865 -0.81411,-0.41108 -1.75949,-1.69106 -1.64106,-2.2219 0.0595,-0.26682 0.1492,-0.18951 0.37541,0.3237 0.57799,1.31125 1.71373,1.8931 4.87749,2.49877 1.16549,0.22313 2.81259,0.53827 3.66021,0.70032 3.53876,0.67654 7.53269,2.08449 9.39135,3.31067 0.91908,0.60633 0.95342,0.98487 0.038,0.41912 -0.37641,-0.23263 -0.72339,-0.38396 -0.77107,-0.33628 -0.15423,0.15423 0.62972,2.18921 1.17884,3.05999 0.29357,0.46555 1.45569,2.06011 2.58247,3.54348 3.9602,5.21342 4.9747,7.1456 7.02972,13.38864 0.71497,2.1721 1.42191,4.2093 1.57098,4.5271 0.14906,0.3179 0.40546,1.2266 0.56976,2.0194 0.32316,1.5594 0.27636,2.2908 -0.3207,5.0121 -0.1976,0.9006 -0.36114,2.1288 -0.36344,2.7294 -0.002,0.6006 -0.0568,1.2291 -0.1211,1.3967 -0.13895,0.3621 -0.46242,0.4072 -0.45766,0.064 z m 41.47003,-2.9675 c 0.0607,-0.098 0.44162,-0.2002 0.84639,-0.2265 1.05629,-0.069 2.11637,-0.3812 2.46106,-0.7259 0.31033,-0.3103 0.36344,-0.574 0.30124,-1.4959 -0.024,-0.3551 0.0374,-0.5054 0.17223,-0.4221 0.1152,0.071 0.20945,0.5992 0.20945,1.1732 0,0.9098 -0.0639,1.0856 -0.49785,1.3699 -0.54284,0.3557 -3.69248,0.6508 -3.49252,0.3273 z m -39.70916,-1.9931 c 0,-0.2649 0.0437,-0.3732 0.0972,-0.2408 0.0534,0.1325 0.0534,0.3492 0,0.4816 -0.0534,0.1325 -0.0972,0.024 -0.0972,-0.2408 z m -30.08272,-37.90352 c -2.49713,-0.80176 -4.98457,-2.27308 -6.0465,-3.57652 -1.23751,-1.51894 -1.69508,-3.38397 -1.26751,-5.1663 0.19312,-0.80503 0.45218,-1.22754 1.22889,-2.00425 0.8709,-0.87089 1.16134,-1.0304 2.52328,-1.38576 0.8465,-0.22087 1.87342,-0.45836 2.28204,-0.52774 0.40862,-0.0694 2.24242,-0.55337 4.07512,-1.07553 4.17508,-1.18954 5.05826,-1.37399 10.13618,-2.11695 5.6551,-0.82742 11.53415,-1.01122 11.53415,-0.3606 0,0.10877 -0.21746,0.12369 -0.52976,0.0364 -0.96572,-0.27006 -5.30449,-0.0998 -8.13917,0.31943 -7.28255,1.07701 -8.69995,1.36602 -12.87357,2.62492 -1.20004,0.36197 -3.22802,0.87447 -4.50662,1.1389 -2.73121,0.56484 -3.79049,1.02952 -4.5512,1.9965 -0.83744,1.0645 -0.93059,1.5342 -0.3482,1.75563 0.7447,0.28314 1.77403,-0.0952 2.36424,-0.86903 0.62723,-0.82233 0.7784,-0.74842 0.34181,0.16712 -0.53158,1.11473 -1.50321,1.46822 -2.96568,1.07894 -0.2323,-0.0618 -0.28373,0.12186 -0.26229,0.93676 0.0375,1.42327 0.80262,2.89212 2.11669,4.06333 1.08813,0.96984 3.41787,2.24798 4.48743,2.46189 0.33073,0.0661 0.65156,0.20153 0.71294,0.30084 0.14972,0.24225 0.038,0.31453 -0.31227,0.20207 z m 25.9605,-4.81503 c -0.16427,-0.18542 -0.75334,-1.33406 -1.30906,-2.55252 -0.79303,-1.7388 -1.03034,-2.48767 -1.1031,-3.48105 -0.22279,-3.04161 1.41832,-6.42629 3.71064,-7.65296 0.38053,-0.20363 1.07798,-0.31164 2.04195,-0.31622 1.29487,-0.006 1.57311,0.0598 2.40804,0.57068 2.16829,1.32676 2.4046,4.18642 0.61251,7.41197 -0.72501,1.30493 -4.04254,5.65023 -4.62562,6.05863 -0.56594,0.39641 -1.36578,0.37865 -1.73536,-0.0385 z m 1.33434,-0.42386 c 0.33759,-0.20584 0.71883,-0.57395 0.84721,-0.81801 0.12837,-0.24407 0.45899,-0.66807 0.7347,-0.94224 0.82303,-0.81839 1.34325,-1.485 1.23971,-1.58854 -0.0535,-0.0535 0.17053,-0.37746 0.49783,-0.71995 0.55772,-0.5836 1.8295,-2.96438 2.08366,-3.90062 0.22594,-0.83227 0.18778,-2.54641 -0.0672,-3.02088 -0.3275,-0.60931 -0.95749,-1.3485 -1.14931,-1.3485 -0.0806,0 -0.29837,-0.13735 -0.48387,-0.30523 -0.23497,-0.21265 -0.74397,-0.3104 -1.67793,-0.32227 -1.1984,-0.0152 -1.43857,0.0478 -2.26344,0.5942 -0.50753,0.33618 -0.8429,0.61256 -0.74527,0.61418 0.0976,0.002 0.083,0.0666 -0.0325,0.14448 -0.48574,0.32744 -1.41765,1.86553 -1.69511,2.79772 -0.62994,2.1164 -0.72825,3.04951 -0.44069,4.18264 0.10843,0.42726 0.85826,2.01218 1.03611,2.19004 0.0846,0.0846 0.16086,0.21158 0.16949,0.28221 0.0958,0.78364 0.93083,2.53733 1.20735,2.53575 0.069,-3.9e-4 0.40166,-0.16914 0.73924,-0.37498 z m -0.5672,-0.732 c -0.0399,-0.0795 -0.0964,-0.49124 -0.12566,-0.91506 -0.0292,-0.42381 -0.1424,-0.87893 -0.25145,-1.01137 -0.13724,-0.16668 -0.13349,-0.2408 0.0122,-0.2408 0.11573,0 -0.006,-0.31875 -0.27026,-0.70833 -0.6408,-0.94428 -0.73341,-1.39915 -0.47798,-2.34774 0.56415,-2.09512 3.53126,-2.28412 4.36934,-0.27833 0.16313,0.39042 0.24204,0.92357 0.17759,1.19979 -0.0638,0.27343 -0.14118,0.60542 -0.17197,0.73776 -0.0308,0.13235 -0.51164,0.65248 -1.06857,1.15586 -0.59729,0.53986 -1.02429,1.09301 -1.0411,1.34868 -0.0157,0.2384 -0.1112,0.43345 -0.21226,0.43345 -0.10107,0 -0.12731,0.0565 -0.0583,0.12543 0.069,0.069 -0.0249,0.23961 -0.2087,0.37916 -0.38501,0.29237 -0.57033,0.32583 -0.67283,0.1215 z m 1.16318,-2.36136 c 0.24156,-0.423 0.51992,-0.76909 0.61858,-0.76909 0.41222,0 0.91873,-0.81541 0.87859,-1.41442 -0.11586,-1.7292 -1.66139,-2.30138 -2.861,-1.0592 -0.42891,0.44412 -0.36132,1.50722 0.15725,2.47362 0.199,0.37084 0.37484,0.76094 0.39077,0.86689 0.0159,0.10596 0.0422,0.30101 0.0583,0.43345 0.0527,0.43251 0.31031,0.25185 0.75751,-0.53125 z m -15.85939,1.06977 c -0.26007,-0.26006 -0.48254,-0.62849 -0.49439,-0.81873 -0.0118,-0.19023 -0.0541,-0.62762 -0.094,-0.97197 -0.10617,-0.91748 0.23867,-0.76594 0.36279,0.15944 0.23147,1.72571 1.18447,2.0148 3.4611,1.04992 0.73154,-0.31004 0.29011,0.27202 -0.49426,0.65172 -1.14405,0.55383 -2.1427,0.52819 -2.74126,-0.0704 z m 3.28487,-2.03048 c -0.48902,-0.42324 -1.10883,-0.82468 -1.37734,-0.89207 -0.52595,-0.13201 -2.26363,0.005 -2.81383,0.22154 -0.18542,0.073 -0.33712,0.0465 -0.33712,-0.0591 0,-0.31038 2.39463,-0.87604 3.12698,-0.73865 0.4246,0.0797 1.00415,0.4657 1.65307,1.10113 0.54958,0.53815 0.99923,1.01406 0.99923,1.05756 0,0.24588 -0.46686,-0.0118 -1.25099,-0.69045 z m 7.03216,-8.33283 c 0.004,-1.69833 1.56006,-3.87452 3.47702,-4.86241 1.50714,-0.7767 3.5056,-0.9519 4.41897,-0.38742 0.41092,0.25397 0.10737,1.70198 -0.5602,2.67227 -0.33752,0.49056 -0.70036,0.89194 -0.80632,0.89194 -0.10595,0 0.0774,-0.39255 0.40754,-0.87233 0.73389,-1.06668 0.93312,-2.02477 0.49641,-2.38721 -0.45679,-0.3791 -2.13646,-0.17662 -3.42354,0.41271 -2.10221,0.96257 -3.59011,2.81127 -3.65805,4.5451 -0.0415,1.05826 -0.35426,1.04701 -0.35183,-0.0127 z"
       id="path3068"
       inkscape:connector-curvature="0" />
  </g>
  <g
     inkscape:groupmode="layer"
     id="LAYER_EFO"
     inkscape:label="LAYER_EFO"
     transform="translate(0,-644.09448)">
    <path
       style="fill:none;stroke:none"
       d="m 50.748951,663.50496 -0.28579,-0.24354 -0.85723,-0.0242 c -1.57205,-0.0444 -1.68565,-0.0561 -2.02807,-0.20892 -0.3957,-0.1766 -0.74826,-0.44768 -0.96465,-0.74173 l -0.17068,-0.23192 -0.33084,0.12387 c -0.43173,0.16165 -1.49731,0.37439 -1.96533,0.39236 -0.48012,0.0184 -1.44263,-0.14537 -1.99278,-0.33914 -0.88991,-0.31344 -1.90478,-0.89244 -2.67768,-1.52766 -0.43859,-0.36046 -0.85315,-0.54907 -1.46728,-0.66757 -0.53131,-0.10252 -1.26306,-0.0989 -1.58752,0.008 -0.18408,0.0605 -0.3356,0.0668 -0.67257,0.028 -0.37419,-0.0433 -0.47173,-0.0737 -0.69811,-0.21819 -0.307,-0.19599 -0.73058,-0.69911 -0.912,-1.08325 -0.2599,-0.55029 -0.22947,-0.91905 0.0991,-1.20114 l 0.18929,-0.1625 0.36728,0.0767 c 0.53371,0.11146 1.11809,0.30752 1.55573,0.52197 l 0.3831,0.18772 0.0324,-0.27069 c 0.061,-0.50953 0.32126,-0.8015 0.97004,-1.08826 1.18729,-0.52477 3.67402,-0.93166 6.05139,-0.99017 0.83045,-0.0204 2.48523,0.14605 3.01504,0.30335 0.98349,0.292 1.49982,0.77329 1.43253,1.33531 -0.0286,0.23845 0.0383,0.2688 0.18263,0.0829 0.2251,-0.28983 0.70752,-0.51043 1.144,-0.52311 0.27909,-0.008 0.81216,0.17162 1.1798,0.39779 0.62978,0.38744 1.0009,1.29646 1.0799,2.64511 0.004,0.0645 0.0694,0.13593 0.17447,0.18998 0.33379,0.17173 0.71678,0.76249 0.9027,1.39241 l 0.0862,0.29206 -0.13728,0.34132 c -0.0755,0.18773 -0.20284,0.44205 -0.28298,0.56515 -0.24339,0.37391 -0.95386,0.8125 -1.4039,0.86666 -0.0939,0.0113 -0.19656,-0.0458 -0.41094,-0.22847 l 0,0 z"
       id="UBERON:0000955"
       inkscape:connector-curvature="0"
       inkscape:label="UBERON:0000955" />
    <path
       style="fill:none;stroke:none"
       d="m 90.493521,673.98486 c -0.21019,-0.0696 -0.41503,-0.1778 -0.62319,-0.32918 -0.44746,-0.32541 -0.73934,-0.65693 -1.21512,-1.38013 -0.35801,-0.5442 -0.60201,-0.86328 -0.98547,-1.28873 -0.5302,-0.58825 -1.06812,-1.08068 -1.72603,-1.58005 -0.65372,-0.4962 -0.86363,-0.61288 -1.37587,-0.76484 -1.31705,-0.39069 -2.22543,-0.84202 -2.77133,-1.37694 -0.24658,-0.24163 -0.41997,-0.52579 -0.46359,-0.75977 -0.0487,-0.26106 0.0917,-0.90671 0.28994,-1.33375 0.26056,-0.56124 0.80017,-1.06095 1.38825,-1.28562 0.81911,-0.31291 1.55838,-0.35872 2.80028,-0.17351 2.48556,0.37066 4.40089,1.05361 5.72261,2.04051 0.4458,0.33287 0.80437,0.69635 0.9848,0.99829 0.35867,0.60022 0.52983,1.79778 0.47323,3.31112 -0.0494,1.32183 -0.27219,2.60924 -0.5352,3.09349 -0.0632,0.1164 -0.38404,0.42942 -0.57902,0.56496 -0.18779,0.13053 -0.44034,0.24781 -0.62873,0.29195 -0.16805,0.0394 -0.60074,0.0235 -0.75556,-0.0278 z"
       id="UBERON:0002113"
       inkscape:connector-curvature="0"
       inkscape:label="UBERON:0002113" />
    <path
       style="fill:none;stroke:none"
       d="m 81.546911,667.2749 c -0.12697,-0.0424 -0.43698,-0.28484 -0.59748,-0.4673 -0.16129,-0.18335 -0.37967,-0.53424 -0.48434,-0.77822 -0.0315,-0.0733 -0.0819,-0.24188 -0.11205,-0.37467 -0.0471,-0.20716 -0.0492,-0.26348 -0.0149,-0.39656 0.0607,-0.23518 0.1717,-0.41569 0.38397,-0.62444 0.21871,-0.21508 0.42077,-0.33996 0.79537,-0.4916 0.39156,-0.1585 1.31819,-0.35206 1.56527,-0.32696 0.0607,0.006 0.0409,0.0263 -0.11512,0.1168 -0.85459,0.49593 -1.34703,1.24579 -1.45799,2.22017 -0.0501,0.43985 -0.0237,0.54725 0.22804,0.92864 l 0.169,0.25603 -0.14567,-0.0195 c -0.0801,-0.0106 -0.17648,-0.0298 -0.21414,-0.0424 z"
       id="CL:0000336"
       inkscape:connector-curvature="0"
       inkscape:label="CL:0000336" />
    <path
       style="fill:none;stroke:none"
       d="m 89.860061,709.61666 c 0,-0.0456 0.46144,-1.39554 1.02542,-2.9999 0.65034,-1.85002 1.06368,-3.18393 1.13001,-3.64675 0.18887,-1.31781 -0.004,-3.52573 -0.54657,-6.24989 -0.13567,-0.68143 -0.24667,-1.42972 -0.24667,-1.66287 0,-0.46392 0.44064,-1.46286 0.78125,-1.77111 0.1933,-0.17493 0.20553,-0.17036 0.61191,0.22847 0.91227,0.89533 1.62344,2.57867 1.62273,3.84104 -0.001,2.09162 -0.87459,5.4285 -2.20077,8.40795 -0.29087,0.65349 -0.68317,1.66054 -0.87178,2.23789 -0.1886,0.57735 -0.39531,1.09771 -0.45935,1.15635 -0.22119,0.20255 -0.84618,0.54143 -0.84618,0.45882 z"
       id="UBERON:0001388"
       inkscape:connector-curvature="0"
       inkscape:label="UBERON:0001388" />
    <path
       style="fill:none;stroke:none"
       d="m 58.346471,687.76047 c -0.30182,-0.0183 -0.81236,-0.11139 -1.13452,-0.20683 -0.49045,-0.14529 -0.6568,-0.24128 -1.02232,-0.58993 -0.24011,-0.22901 -0.5515,-0.58498 -0.69198,-0.79103 -0.2447,-0.35889 -0.26349,-0.43138 -0.4472,-1.72458 -0.16207,-1.14083 -0.22669,-1.42219 -0.41723,-1.81639 -0.34687,-0.71762 -0.7177,-1.68049 -0.67867,-1.7622 0.063,-0.13202 0.61485,-0.45808 0.73208,-0.43259 0.063,0.0137 0.16572,0.10258 0.22836,0.19755 0.17029,0.25818 0.51804,0.18098 1.00818,-0.22382 l 0.39947,-0.32992 -0.0651,-0.48395 c -0.0602,-0.44773 -0.0512,-0.49229 0.1204,-0.59522 0.29497,-0.17691 0.47213,-0.1668 0.621,0.0354 0.0756,0.10275 0.33367,0.30412 0.57343,0.4475 0.23976,0.14338 0.4518,0.34672 0.50739,0.43288 0.11271,0.17468 0.25211,0.58178 0.79843,0.50827 0.62676,-0.0843 1.0927,0.11366 1.10857,0.23158 -0.0202,0.22153 -0.009,0.21757 0.0603,0.42161 0.15148,0.10889 0.28907,0.28971 0.14716,0.4484 -0.18989,0.21234 -0.34933,0.41555 -0.43726,0.18346 -0.21973,-0.34937 -0.29751,-0.2511 -0.65238,-0.28184 0.16692,0.40829 0.14441,0.3769 0.17023,0.70766 0.0144,0.10296 0.17673,0.21897 0.51617,0.36854 0.43341,0.19097 0.55498,0.29493 0.97246,0.83154 0.60527,0.778 0.91585,1.37863 1.05409,2.03852 0.19674,0.93908 0.008,1.55991 -0.57951,1.90368 -0.44023,0.25771 -2.08013,0.53088 -2.89149,0.48166 z"
       id="UBERON:0000948"
       inkscape:connector-curvature="0"
       sodipodi:nodetypes="cssssssccscsscsssccscccsssscc"
       inkscape:label="UBERON:0000948" />
    <path
       style="fill:none;stroke:none"
       d="m 79.723851,704.8782 c -0.71734,-0.26545 -0.9066,-0.37908 -1.87191,-1.12387 -2.84302,-2.19356 -5.48635,-3.64365 -7.27148,-3.98904 -0.51889,-0.10039 -1.16295,-0.61602 -1.48926,-1.19229 l -0.27142,-0.47933 0.0776,-2.02318 c 0.0564,-1.47242 0.12818,-2.31561 0.26371,-3.09743 0.79201,-4.56867 2.18598,-8.76223 4.58322,-13.78808 0.86903,-1.8219 1.00295,-2.05418 1.25736,-2.18067 0.34484,-0.17148 0.75657,-0.1614 0.95084,0.0233 0.24944,0.23712 0.72023,2.79055 0.78783,4.273 0.0554,1.21368 0.27077,2.41687 0.55225,3.08446 0.47584,1.12859 1.51488,4.81764 1.49624,5.31235 -0.006,0.15161 0.15306,0.89288 0.35283,1.64728 0.71486,2.69963 1.42532,5.58293 1.72983,7.02027 0.20153,0.95125 0.37556,1.56007 0.49839,1.74355 0.29905,0.44672 0.3716,0.96687 0.31459,2.25528 -0.057,1.28804 -0.23802,1.96644 -0.67071,2.51349 -0.25826,0.32653 -0.40965,0.32664 -1.28978,7.7e-4 l 0,0 z"
       id="UBERON:0002107"
       inkscape:connector-curvature="0"
       inkscape:label="UBERON:0002107" />
    <path
       style="fill:none;stroke:none"
       d="m 65.197591,683.34365 c -0.0937,-0.009 -0.42203,-0.0397 -0.72974,-0.0683 -2.08034,-0.19285 -4.41027,-0.71411 -5.52174,-1.23536 -1.11609,-0.52342 -3.10202,-1.90502 -4.04807,-2.81623 -0.88138,-0.84892 -1.24736,-1.44096 -1.25214,-2.0256 -0.002,-0.28974 0.0167,-0.35203 0.21361,-0.69617 1.42937,-2.49857 4.89662,-5.08244 9.34447,-6.96369 2.25291,-0.95289 3.25388,-1.19571 4.92725,-1.1953 1.07644,2e-4 1.92146,0.16178 2.63623,0.50385 0.29612,0.14172 0.36201,0.19829 0.50001,0.42929 1.03173,1.72709 1.16507,4.71774 0.35207,7.8966 -0.62285,2.43537 -1.68514,4.55531 -2.83211,5.65182 -0.34226,0.32721 -0.53356,0.40825 -1.18168,0.50057 -0.31144,0.0444 -2.00442,0.0574 -2.40816,0.0185 z"
       id="UBERON:0002048"
       inkscape:connector-curvature="0"
       inkscape:label="UBERON:0002048" />
    <path
       style="fill:none;stroke:none"
       d="m 87.559531,681.5612 c -0.0966,-1.54208 -1.26947,-4.06452 -2.12388,-5.08936 -1.6125,-1.78493 -3.64229,-4.41064 -5.94137,-5.77747 -0.39701,-0.23603 -0.65293,-0.43477 -1.05395,-0.81849 l -0.24167,-0.23125 -0.0491,-0.20258 c -0.20305,-0.83771 -0.16419,-1.63781 0.11741,-2.41742 0.1247,-0.34526 0.28955,-0.65012 0.40399,-0.74716 0.20832,-0.17665 0.61383,-0.30061 0.9331,-0.28524 0.24735,0.0119 0.5328,0.0959 1.08892,0.32049 2.27107,1.11642 4.4338,2.11413 6.20232,3.58879 1.58599,1.33075 2.96499,3.10897 4.01929,4.7026 0.51142,0.77304 1.14705,1.92456 1.3726,2.89234 0.34532,1.48173 0.61109,2.65211 0.6051,4.28315 -0.0499,1.97234 -1.58998,3.79996 -2.77155,3.731 -2.1853,-0.21528 -2.62945,-2.55268 -2.5612,-3.9494 z"
       id="UBERON:0002106"
       inkscape:connector-curvature="0"
       sodipodi:nodetypes="ccsscssscccssccc"
       inkscape:label="UBERON:0002106" />
    <path
       style="fill:none;stroke:none"
       d="m 53.506961,681.57484 c -0.24787,-0.0696 -1.18688,-0.48349 -1.79161,-0.78975 -1.25997,-0.63809 -2.07303,-1.28969 -2.29705,-1.84087 -0.0515,-0.1267 -0.0528,-0.14102 -0.017,-0.18064 0.0585,-0.0646 0.21102,-0.0963 0.45597,-0.0947 0.33579,0.002 0.59178,0.044 0.99826,0.16301 0.33974,0.0995 0.57921,0.12005 1.37435,0.11817 0.78666,-0.002 0.95288,-0.0121 2.37167,-0.14636 1.28771,-0.12185 1.53028,-0.13333 1.66135,-0.0787 0.33604,0.14018 0.54005,0.38093 0.54005,0.63731 0,0.25843 -0.0995,0.40165 -0.55947,0.8052 -0.7585,0.66549 -1.54066,1.17193 -2.06761,1.33874 -0.20268,0.0642 -0.55567,0.10033 -0.66893,0.0685 l 0,0 z"
       id="UBERON:0002370"
       inkscape:connector-curvature="0"
       inkscape:label="UBERON:0002370" />
    <path
       style="fill:none;stroke:none"
       d="m 97.992371,698.11136 c -3.48693,-1.88947 -5.69551,-3.27354 -7.32613,-4.59111 -0.83361,-0.67358 -1.27094,-1.118 -1.59289,-1.61871 -0.21873,-0.34018 -0.30614,-1.04325 -0.29754,-1.42654 0.0142,-0.63204 0.0702,-1.46156 0.42828,-1.59582 0.10955,-0.0411 0.39349,-0.0546 0.53636,-0.0301 0.51588,0.0886 3.58978,1.61733 4.88337,2.42867 0.26374,0.16542 0.49484,0.28566 0.51355,0.2672 0.0959,-0.0946 -1.3466,-1.36764 -2.5101,-2.21526 -1.03616,-0.83927 -0.75173,-2.09082 -0.40588,-2.4891 0.18387,-0.27734 1.09987,-0.22469 1.70955,0.11237 l 0.69869,0.59476 c 0.87381,0.74382 2.81512,2.69092 3.26392,3.27364 1.23109,1.59844 2.09588,3.41101 2.493039,5.22539 0.32955,1.5055 0.28193,2.37134 -0.15013,2.72992 -0.369289,0.30649 -0.549029,0.2532 -2.244089,-0.66531 z"
       id="UBERON:0000995"
       inkscape:connector-curvature="0"
       sodipodi:nodetypes="ssssscsccccsssss"
       inkscape:label="UBERON:0000995" />
  </g>
</svg>
