<?xml version="1.0" encoding="UTF-8" standalone="no"?>
<!-- Created with Inkscape (http://www.inkscape.org/) -->

<svg
   xmlns:dc="http://purl.org/dc/elements/1.1/"
   xmlns:cc="http://creativecommons.org/ns#"
   xmlns:rdf="http://www.w3.org/1999/02/22-rdf-syntax-ns#"
   xmlns:svg="http://www.w3.org/2000/svg"
   xmlns="http://www.w3.org/2000/svg"
   xmlns:sodipodi="http://sodipodi.sourceforge.net/DTD/sodipodi-0.dtd"
   xmlns:inkscape="http://www.inkscape.org/namespaces/inkscape"
   width="1052.3622"
   height="744.09448"
   id="svg2"
   version="1.1"
   inkscape:version="0.48.5 r10040"
   sodipodi:docname="rat.svg">
  <defs
     id="defs4" />
  <sodipodi:namedview
     id="base"
     pagecolor="#ffffff"
     bordercolor="#666666"
     borderopacity="1.0"
     inkscape:pageopacity="0.0"
     inkscape:pageshadow="2"
     inkscape:zoom="0.7"
     inkscape:cx="638.60499"
     inkscape:cy="365.72289"
     inkscape:document-units="px"
     inkscape:current-layer="layer1"
     showgrid="false"
     inkscape:window-width="1789"
     inkscape:window-height="1286"
     inkscape:window-x="470"
     inkscape:window-y="0"
     inkscape:window-maximized="0" />
  <metadata
     id="metadata7">
    <rdf:RDF>
      <cc:Work
         rdf:about="">
        <dc:format>image/svg+xml</dc:format>
        <dc:type
           rdf:resource="http://purl.org/dc/dcmitype/StillImage" />
        <dc:title />
      </cc:Work>
    </rdf:RDF>
  </metadata>
  <g
     inkscape:label="Layer 1"
     inkscape:groupmode="layer"
     id="layer1"
     transform="translate(0,-308.2677)">
    <path
       style="fill:#a0a1a2;fill-opacity:1"
       d="m 677.07143,951.15757 c -4.125,-0.19627 -19.24602,-1.0341 -33.60228,-1.86183 -14.35625,-0.82773 -40.23125,-1.50961 -57.5,-1.51529 -39.03259,-0.0128 -63.50868,-1.96185 -88.59097,-7.05446 -14.86988,-3.01913 -31.30675,-10.06526 -31.30675,-13.42052 0,-1.99935 1.49316,-1.91327 9.11973,0.52573 23.89991,7.64327 34.30723,8.92557 80.88027,9.9654 53.73983,1.19985 183.95986,1.21662 205.21636,0.0264 9.506,-0.53225 26.24928,-1.45503 37.20728,-2.05062 45.29308,-2.46176 69.50298,-11.38831 80.18727,-29.56624 2.61065,-4.44168 2.88909,-5.78777 2.88909,-13.96726 0,-8.42765 -0.25499,-9.56549 -3.69768,-16.5 -4.45097,-8.96545 -14.65653,-21.93265 -23.11622,-29.37151 -9.10863,-8.00945 -41.68984,-33.01194 -53.52774,-41.0766 -5.65131,-3.85 -18.90249,-13.41166 -29.44707,-21.24814 -24.07872,-17.89474 -30.80899,-21.25186 -42.6052,-21.25186 -4.46206,0 -7.6244,0.91424 -15.82911,4.57621 -12.46961,5.56552 -20.22988,6.50922 -33.13745,4.02977 -12.18802,-2.34123 -16.1575,-2.05433 -28.05175,2.02748 -14.42649,4.9508 -19.97803,6.19433 -31.13222,6.97351 l -9.54444,0.66673 -1.71523,4.14704 c -2.2105,5.34449 -6.99456,11.1194 -11.57612,13.9737 -12.06405,7.51589 -37.15095,13.86775 -61.49793,15.57092 -9.97055,0.69748 -15.88364,1.72609 -24.62184,4.28311 -6.325,1.85085 -12.33113,3.83191 -13.34696,4.40237 -1.66804,0.93671 -1.48627,1.25 1.87634,3.23399 l 3.7233,2.19681 13.62485,-4.54082 c 11.47665,-3.82488 14.84657,-4.54082 21.37365,-4.54082 4.26185,0 7.74882,0.38592 7.74882,0.8576 0,0.47168 -2.5875,0.86313 -5.75,0.86988 -3.48258,0.007 -9.69334,1.20034 -15.75,3.02512 -5.5,1.65706 -12.834,3.81838 -16.29777,4.80291 -3.46378,0.98454 -6.52784,2.16232 -6.80902,2.61728 -1.06073,1.71629 16.2453,0.82323 24.14537,-1.24599 4.35338,-1.14026 8.94887,-1.87561 10.2122,-1.63411 1.26332,0.2415 2.54306,0.0409 2.84386,-0.44582 0.89982,-1.45595 10.47067,-5.99244 11.7345,-5.56204 0.64398,0.2193 -1.41664,2.05876 -4.57914,4.08768 -6.16532,3.9554 -6.41461,4.34027 -4.5,6.94728 1.14029,1.55265 1.84952,1.29952 8.08066,-2.88405 7.93546,-5.32785 15.47088,-8.34635 29.8474,-11.9561 12.54424,-3.1497 36.91159,-11.05447 42.11117,-13.66088 4.73667,-2.37436 7.37579,-6.62336 8.20572,-13.21125 0.8613,-6.83683 2.45751,-11.75492 3.58835,-11.05603 0.5603,0.34629 0.5512,1.26295 -0.0232,2.33624 -0.51992,0.97148 -1.24256,4.20667 -1.60587,7.18931 -1.03763,8.51861 -3.71758,13.2123 -9.22088,16.14956 -5.49848,2.93468 -30.61107,11.33319 -47.23334,15.79644 -11.28538,3.03024 -18.1636,6.18535 -26.24266,12.03779 -5.25159,3.80424 -8.25415,3.81292 -10.21062,0.0295 -0.82755,-1.60031 -2.05236,-3.09223 -2.72179,-3.31537 -0.66944,-0.22315 -5.28811,0.65164 -10.26371,1.94396 -6.95011,1.80517 -11.13392,2.2838 -18.05389,2.06537 l -9.00734,-0.28428 -0.0407,-2.86241 c -0.0297,-2.0891 -0.78922,-3.25458 -2.81117,-4.31399 -3.44669,-1.8059 -3.26139,-5.27309 0.37463,-7.00987 1.3875,-0.66275 8.2617,-2.77804 15.276,-4.70064 9.82748,-2.6937 15.55763,-3.64379 24.97727,-4.14137 13.83674,-0.7309 34.05038,-4.2091 43.72401,-7.52367 14.55021,-4.98548 22.02829,-10.18747 26.10323,-18.15821 3.1274,-6.11732 2.83458,-6.45102 -6.35323,-7.24032 -22.67168,-1.94767 -35.91792,-6.19375 -76.63174,-24.56433 l -9.38174,-4.23315 -13.61826,0.44919 c -15.37047,0.50698 -19.00625,1.62335 -27.61826,8.48017 -8.05901,6.41654 -21.14825,30.95781 -27.92359,52.35449 -1.9819,6.25891 -4.60215,12.83731 -5.82276,14.61868 -2.78913,4.07047 -8.91049,7.57545 -12.50735,7.1615 -2.41807,-0.27829 -2.72776,-0.71293 -2.59118,-3.63665 0.12814,-2.74294 -0.13279,-3.19465 -1.5,-2.59664 -11.13562,4.87069 -20.40406,5.67515 -20.95481,1.81879 -0.26903,-1.88379 -0.80433,-2.04995 -5.23318,-1.62439 -4.09833,0.3938 -5.05064,0.16877 -5.62549,-1.32927 -0.8762,-2.28334 1.43236,-3.86908 12.06295,-8.28598 4.41872,-1.83595 9.24232,-4.19845 10.7191,-5.25 1.47678,-1.05156 3.27451,-1.91193 3.99497,-1.91193 2.65327,0 -1.64812,2.94852 -13.12334,8.99581 -9.47206,4.99164 -10.79129,5.9457 -7.49532,5.42055 3.45867,-0.55106 14.32693,-3.82276 19.75,-5.94538 0.9625,-0.37673 1.75,-0.24639 1.75,0.28964 0,0.53602 -3.375,2.26316 -7.5,3.83808 -5.61243,2.14282 -7.5,3.3308 -7.5,4.72029 0,1.62906 0.52128,1.76982 4.25,1.14757 4.89416,-0.81674 17.63976,-5.20693 19.52417,-6.72506 0.70079,-0.56458 1.56794,-0.73273 1.927,-0.37367 0.35905,0.35906 -0.11466,1.21403 -1.0527,1.89995 -0.93804,0.68591 -1.80518,2.59376 -1.927,4.23966 -0.26393,3.56626 1.57448,3.61164 6.89242,0.17013 2.90158,-1.87776 4.14745,-4.17395 9.04895,-16.67757 8.69587,-22.18301 13.96059,-33.73698 17.82144,-39.111 1.93364,-2.6915 3.51572,-5.25555 3.51572,-5.6979 0,-1.32353 8.23105,-9.6603 12.11046,-12.26603 6.87639,-4.61873 20.127,-18.17593 29.65354,-30.33966 1.24521,-1.5899 2.54546,-2.60928 2.88945,-2.26529 0.344,0.34399 -0.6748,2.32348 -2.264,4.39885 -1.5892,2.07537 -3.89949,5.25397 -5.13399,7.06357 -2.93324,4.29972 -3.83329,5.3599 -9.61985,11.33126 l -4.86439,5.01975 3.36439,-0.52719 c 8.3341,-1.30591 18.7998,-1.60604 23.60076,-0.67681 2.88,0.55743 12.78,4.34172 22,8.40953 22.9515,10.12608 22.86573,10.1079 16.72598,3.54542 -6.47638,-6.92227 -8.77711,-10.78074 -11.52933,-19.33539 -2.55962,-7.95599 -3.01894,-21.84831 -1.06244,-32.13366 1.58271,-8.32046 7.00391,-25.41545 8.05977,-25.41545 0.47294,0 0.008,2.73683 -1.03299,6.08185 -9.56199,30.7227 -7.22411,53.59771 7.06911,69.16791 9.20479,10.02716 18.81036,13.88448 42.81787,17.19444 21.97423,3.02963 33.26766,1.9778 53.8034,-5.01106 11.66289,-3.96919 18.64076,-4.37566 31.05258,-1.80884 12.35811,2.55571 18.89735,1.57397 33.65719,-5.05299 l 12.36226,-5.55047 5.9201,1.50461 c 8.62555,2.19222 18.62311,7.42144 29.42009,15.38818 10.91294,8.05231 39.21376,28.41025 46.27551,33.28787 13.15675,9.08752 41.225,31.27425 49.04698,38.76951 10.81994,10.36801 16.84299,18.19405 21.57156,28.02899 3.27021,6.8017 3.60595,8.29141 3.60595,16 0,7.214 -0.40918,9.33313 -2.70453,14.00672 -6.82932,13.9053 -21.97096,22.91893 -46.79547,27.85676 -28.79339,5.72729 -55.87921,6.64779 -193.5,6.57605 -121.34974,-0.0633 -127.95784,-0.26712 -146.32896,-4.51408 -9.58614,-2.21608 -12.2963,-2.38193 -6.97787,-0.42701 6.09239,2.23941 22.42708,5.29638 37.30683,6.98182 20.98729,2.37725 38.63003,3.18903 73.91586,3.40103 17.55373,0.10546 37.80373,0.64995 45,1.20999 28.71468,2.23464 113.22883,3.07112 139.89756,1.38463 4.84738,-0.30654 20.14738,-1.19153 34,-1.96665 25.37309,-1.41975 34.39345,-2.71189 45.91188,-6.57677 24.08554,-8.08163 39.7747,-25.90978 39.7747,-45.19741 0,-14.96459 -8.31936,-33.46095 -21.42362,-47.63094 -5.25473,-5.68208 -18.11177,-15.8078 -44.57316,-35.10414 -29.50351,-21.51474 -38.89703,-29.50481 -46.18538,-39.28501 -11.60598,-15.57402 -16.35576,-28.81528 -23.93135,-66.71499 -0.60465,-3.025 -3.50185,-12.25 -6.43822,-20.5 -2.93637,-8.25 -7.66507,-22.31122 -10.50821,-31.24715 -13.5494,-42.58542 -44.41003,-90.0119 -72.44006,-111.32553 -12.13111,-9.22433 -31.93592,-19.42403 -48.5012,-24.97868 -13.22616,-4.43497 -36.30052,-8.20216 -50.9988,-8.3262 -16.4512,-0.13884 -25.08391,2.12788 -45.25339,11.88234 -21.96089,10.62083 -28.70696,12.71273 -42.79468,13.27028 -9.71076,0.38433 -12.81324,0.11141 -19.5,-1.71538 -8.07939,-2.20726 -21.6509,-8.38957 -23.61676,-10.75829 -1.83488,-2.2109 0.5866,-1.5356 7.85413,2.19034 12.27299,6.29215 19.34551,8.02182 32.3107,7.90194 10.0966,-0.0934 12.71074,-0.50239 21.42131,-3.35183 5.45673,-1.78502 15.58173,-6.02462 22.5,-9.42132 27.00839,-13.26046 41.7559,-15.04393 75.90325,-9.17927 16.6539,2.86024 22.38815,4.41707 34.11278,9.2615 26.57595,10.98077 43.71235,22.90257 59.67698,41.51731 15.66818,18.26909 24.63344,32.09831 37.13366,57.27994 8.38839,16.89836 9.89969,20.72204 15.80995,40 2.5293,8.25 6.1018,19.05 7.93888,24 4.32943,11.66554 7.95991,24.74038 9.9961,36 3.81598,21.1013 9.67854,37.38655 17.93888,49.83128 7.32464,11.03503 16.38154,18.73916 57.56821,48.96959 7.975,5.85353 14.95,11.00773 15.5,11.45377 0.55,0.44604 3.25,2.51371 6,4.59482 17.90043,13.54645 29.52443,29.78217 34.61979,48.35492 8.13494,29.65212 -13.1263,55.58841 -52.33422,63.84179 -4.00706,0.8435 -14.71057,1.97234 -23.78557,2.50853 -9.075,0.53619 -23.025,1.46168 -31,2.05665 -13.96571,1.0419 -103.61161,1.98767 -119,1.25545 z M 382.51882,816.19471 c 2.22349,-5.43081 2.16051,-5.46675 -4.76497,-2.71902 -3.5892,1.42404 -7.23604,2.31661 -8.10411,1.9835 -2.16826,-0.83204 -1.978,-3.26873 0.44437,-5.6911 1.71384,-1.71384 1.79018,-2.1119 0.5,-2.60699 -2.04749,-0.78569 -1.92761,-3.71468 0.22732,-5.55428 0.9625,-0.82166 4.675,-3.10669 8.25,-5.07785 14.25444,-7.85952 19.08796,-17.70895 21.95488,-44.7382 1.76285,-16.62007 4.81448,-32.26058 6.13513,-31.44437 0.51844,0.32041 0.73292,0.92185 0.47663,1.33654 -0.89603,1.44982 -2.61762,13.7314 -4.02898,28.7422 -2.93236,31.18778 -7.36686,39.57958 -26.81186,50.73852 -4.37015,2.50791 -5.4528,4.62711 -2.36389,4.62711 0.68414,0 4.9983,-1.81559 9.58703,-4.03465 4.58873,-2.21906 8.80533,-3.88059 9.37022,-3.6923 1.17019,0.39007 -6.60456,5.30497 -13.31916,8.41987 -3.82637,1.77505 -9.4173,6.30708 -7.78071,6.30708 1.46757,0 9.95053,-3.42121 15.06367,-6.07524 5.05574,-2.62424 5.96557,-2.81909 7.23512,-1.54954 1.26956,1.26956 0.88816,1.7827 -3.03296,4.08063 -7.3283,4.29467 -5.94176,5.62871 3.55249,3.41798 9.23888,-2.15127 14.41399,-4.55615 17.94582,-8.33944 2.28504,-2.44772 2.53466,-3.67378 3.12466,-15.34732 0.59172,-11.70758 3.65039,-28.23871 5.95541,-32.18707 1.39448,-2.38868 1.18159,0.20179 -0.94528,11.50198 -1.03499,5.49891 -2.17284,13.59802 -2.52857,17.99802 -1.32764,16.42147 -1.78802,20.02395 -2.67734,20.95 -0.5708,0.59438 -0.91231,0.50327 -0.91231,-0.24339 0,-0.65637 -1.97842,0.31676 -4.39649,2.16251 -4.30124,3.28321 -15.8489,7.1637 -25.01957,8.4076 -3.54964,0.48146 -3.84312,0.35301 -3.13655,-1.37278 z m 37.56994,-8.65394 c 0.0649,-4.67954 2.26255,-21.49421 3.60614,-27.591 1.84763,-8.38396 1.53573,-22.18833 -0.59019,-26.12139 -0.73204,-1.35432 -4.22497,-11.02932 -7.76206,-21.5 -6.41607,-18.99321 -15.06286,-39.71103 -20.21392,-48.43282 -3.54981,-6.01054 -12.97161,-19.66862 -20.07746,-29.10479 -9.83005,-13.05374 -14.23112,-21.1533 -17.60798,-32.40505 -0.75672,-2.52141 -2.02441,-3.33151 -9.59943,-6.1344 -11.84472,-4.38274 -21.45349,-6.88897 -40.31869,-10.51621 -18.15908,-3.49147 -25.34307,-5.38463 -30.70263,-8.09089 -4.22601,-2.13388 -9.13339,-8.7782 -8.51863,-11.53373 0.30901,-1.38509 0.77446,-0.98376 1.94873,1.68028 3.00028,6.80663 8.8959,9.82701 25.31879,12.97102 6.05,1.15822 14.6,2.7941 19,3.6353 18.36949,3.51188 39.10179,10.82051 48.75,17.18554 4.77089,3.1474 4.94918,5.11239 0.1974,2.17563 -1.95393,-1.20759 -3.75509,-1.99313 -4.00259,-1.74563 -0.80064,0.80064 3.26882,11.36412 6.11926,15.88429 1.52393,2.41662 7.55641,10.69391 13.40551,18.39399 20.5572,27.06262 25.82339,37.09249 36.4909,69.49986 3.71138,11.275 7.38108,21.85 8.15488,23.5 0.7738,1.65 2.10473,6.36718 2.95762,10.48262 1.67752,8.09452 1.43458,11.89129 -1.66476,26.01738 -1.02571,4.675 -1.87467,11.0507 -1.88658,14.16821 -0.0119,3.11752 -0.29478,6.38002 -0.62863,7.25 -0.7213,1.87968 -2.40039,2.11418 -2.37568,0.33179 z m 215.26888,-15.40409 c 0.31534,-0.51022 2.29244,-1.03923 4.39357,-1.17558 5.48317,-0.35581 10.98595,-1.97892 12.77522,-3.76818 1.61094,-1.61095 1.88663,-2.9799 1.56375,-7.76507 -0.12437,-1.84319 0.19407,-2.62358 0.89404,-2.19098 0.59797,0.36956 1.08721,3.11 1.08721,6.08986 0,4.72278 -0.33158,5.6352 -2.58431,7.11124 -2.81782,1.8463 -19.16749,3.37825 -18.12948,1.69871 z M 429.22932,781.79077 c 0,-1.375 0.22698,-1.9375 0.50439,-1.25 0.27741,0.6875 0.27741,1.8125 0,2.5 -0.27741,0.6875 -0.50439,0.125 -0.50439,-1.25 z M 273.07143,585.03535 c -12.96247,-4.16186 -25.87466,-11.79943 -31.38711,-18.5655 -6.42386,-7.88475 -8.79908,-17.56604 -6.57956,-26.81802 1.00249,-4.17886 2.34725,-6.37208 6.37912,-10.40395 4.5208,-4.52079 6.02845,-5.34879 13.0982,-7.19345 4.39414,-1.14653 9.72482,-2.37928 11.84594,-2.73944 2.12113,-0.36016 11.64033,-2.87253 21.15379,-5.58304 21.67262,-6.17482 26.25717,-7.13231 52.61637,-10.989 29.35539,-4.29507 59.87325,-5.24917 59.87325,-1.87185 0,0.56462 -1.12885,0.64209 -2.75,0.18872 -5.01298,-1.4019 -27.53534,-0.51799 -42.25,1.65815 -37.8034,5.59071 -45.16104,7.09093 -66.82608,13.62579 -6.22934,1.87897 -16.75649,4.53937 -23.39366,5.912 -14.17757,2.93205 -19.67622,5.34417 -23.62505,10.36371 -4.34708,5.52578 -4.83065,7.964 -1.80746,9.11342 3.86569,1.46973 9.20889,-0.49428 12.27265,-4.51108 3.25591,-4.26872 4.04062,-3.88506 1.77429,0.86748 -2.75941,5.78653 -7.80307,7.62147 -15.39469,5.60075 -1.20586,-0.32098 -1.47285,0.63257 -1.36152,4.86265 0.19443,7.38812 4.16635,15.01287 10.98763,21.09257 5.64844,5.03438 17.742,11.66913 23.29401,12.77953 1.71682,0.34337 3.3822,1.04612 3.70082,1.56167 0.77719,1.25751 0.19737,1.6327 -1.62094,1.04889 z m 134.75965,-24.99458 c -0.85268,-0.9625 -3.91055,-6.925 -6.79525,-13.25 -4.11659,-9.02603 -5.34844,-12.91337 -5.72614,-18.06993 -1.15648,-15.78888 7.36241,-33.35857 19.26174,-39.72616 1.97532,-1.05704 5.59575,-1.6177 10.5997,-1.64148 6.7216,-0.0319 8.16591,0.31034 12.5,2.96236 11.25546,6.88716 12.48216,21.73152 3.17948,38.47521 -3.76349,6.77382 -20.98461,29.33005 -24.01133,31.45005 -2.9378,2.05772 -7.08973,1.96551 -9.0082,-0.20005 z m 6.92653,-2.20023 c 1.7524,-1.06851 3.7314,-2.97933 4.39779,-4.24626 0.66639,-1.26693 2.38261,-3.46792 3.81382,-4.89109 4.27228,-4.24825 6.97273,-7.70857 6.43527,-8.24603 -0.27767,-0.27766 0.88522,-1.95941 2.58419,-3.73722 2.89513,-3.02948 9.49688,-15.38795 10.81621,-20.24796 1.1728,-4.32024 0.97476,-13.21827 -0.34902,-15.68121 -1.70001,-3.16293 -4.97028,-7 -5.96599,-7 -0.41853,0 -1.54883,-0.71301 -2.51178,-1.58446 -1.2197,-1.10382 -3.86189,-1.61128 -8.71004,-1.67286 -6.22081,-0.079 -7.46751,0.24827 -11.74938,3.08446 -2.63458,1.74507 -4.37549,3.17975 -3.86869,3.18817 0.50679,0.008 0.431,0.34593 -0.16843,0.75 -2.52143,1.69972 -7.35897,9.68386 -8.79924,14.52279 -3.26997,10.98616 -3.78031,15.82987 -2.2876,21.7119 0.56284,2.21791 4.45517,10.44513 5.37842,11.36837 0.43906,0.43907 0.83498,1.0983 0.87982,1.46496 0.4975,4.06784 4.83185,13.17117 6.26725,13.16293 0.35817,-0.002 2.085,-0.87797 3.8374,-1.94649 z m -2.94435,-3.79977 c -0.20692,-0.4125 -0.50044,-2.55 -0.65227,-4.75 -0.15184,-2.2 -0.7392,-4.5625 -1.30526,-5.25 -0.71239,-0.86523 -0.69296,-1.25 0.0631,-1.25 0.60077,0 -0.0305,-1.6546 -1.4029,-3.6769 -3.32637,-4.90167 -3.80709,-7.26289 -2.48116,-12.18701 2.9285,-10.87562 18.33062,-11.85675 22.68101,-1.4448 0.8468,2.02666 1.25645,4.79423 0.92189,6.2281 -0.33117,1.41934 -0.73288,3.14268 -0.89269,3.82967 -0.15981,0.68698 -2.65592,3.38698 -5.5469,6 -3.10052,2.8024 -5.31702,5.67375 -5.40431,7.00094 -0.0814,1.2375 -0.57721,2.25 -1.10183,2.25 -0.52463,0 -0.66086,0.29301 -0.30274,0.65112 0.35812,0.35812 -0.12938,1.24381 -1.08333,1.9682 -1.99859,1.51764 -2.96059,1.69136 -3.49263,0.63068 z m 6.03803,-12.2577 c 1.25392,-2.19577 2.69889,-3.9923 3.21104,-3.9923 2.13982,0 4.76906,-4.23275 4.56071,-7.34218 -0.60145,-8.97618 -8.62418,-11.94637 -14.85133,-5.49828 -2.22643,2.30542 -1.8756,7.8239 0.81631,12.84046 1.03297,1.925 1.94577,3.95 2.02845,4.5 0.0827,0.55 0.21887,1.5625 0.30265,2.25 0.27357,2.24513 1.61078,1.30733 3.93217,-2.7577 z m -82.32531,5.55315 c -1.35,-1.35 -2.50485,-3.2625 -2.56633,-4.25 -0.0615,-0.9875 -0.28102,-3.25795 -0.48787,-5.04545 -0.55111,-4.76262 1.23894,-3.97596 1.88323,0.82762 1.20154,8.95808 6.14853,10.45875 17.96642,5.45009 3.79736,-1.6094 1.50591,1.41204 -2.56572,3.38308 -5.93867,2.87486 -11.12263,2.74177 -14.22973,-0.36534 z m 17.05161,-10.54012 c -2.53851,-2.19706 -5.75589,-4.28089 -7.14974,-4.63072 -2.73015,-0.68523 -11.75035,0.025 -14.60642,1.15002 -0.9625,0.37914 -1.75,0.24117 -1.75,-0.30659 0,-1.61119 12.43041,-4.54748 16.232,-3.8343 2.20412,0.4135 5.21253,2.41743 8.58101,5.71591 2.85285,2.79354 5.18699,5.26394 5.18699,5.48976 0,1.27636 -2.42349,-0.0612 -6.49384,-3.58408 z m 36.50361,-43.25533 c 0.0203,-8.81596 8.09815,-20.11243 18.04902,-25.24056 7.82348,-4.03178 18.19741,-4.94127 22.93863,-2.01104 2.1331,1.31833 0.55737,8.83489 -2.90797,13.87159 -1.75204,2.5465 -3.63553,4.63001 -4.18553,4.63001 -0.55,0 0.40197,-2.03769 2.11549,-4.52821 3.80959,-5.53706 4.84381,-10.51049 2.57687,-12.39188 -2.37118,-1.96791 -11.09029,-0.91682 -17.77143,2.14235 -10.91248,4.99664 -18.63609,14.59317 -18.98876,23.59341 -0.21525,5.49336 -1.83896,5.43497 -1.82632,-0.0657 z"
       id="path3068"
       inkscape:connector-curvature="0" />
  </g>
  <g
     inkscape:groupmode="layer"
     id="LAYER_EFO"
     inkscape:label="LAYER_EFO">
    <path
       style="fill:none;stroke:none;fill-opacity:1"
       d="m 422.02014,242.80265 -1.48349,-1.26417 -4.44984,-0.12565 c -8.16047,-0.23044 -8.75013,-0.29118 -10.52762,-1.08448 -2.05406,-0.91672 -3.8842,-2.32392 -5.00749,-3.85028 l -0.88598,-1.20392 -1.71736,0.64302 c -2.24108,0.83914 -7.77249,1.94342 -10.20195,2.03673 -2.49224,0.0957 -7.48862,-0.7546 -10.34441,-1.76047 -4.61949,-1.62706 -9.8876,-4.63261 -13.89972,-7.93002 -2.27666,-1.87112 -4.42864,-2.8502 -7.61656,-3.46533 -2.75799,-0.53216 -6.55647,-0.51351 -8.24076,0.0406 -0.95551,0.3143 -1.74208,0.347 -3.49125,0.14512 -1.94239,-0.22452 -2.44873,-0.38244 -3.62388,-1.13265 -1.59361,-1.01737 -3.7924,-3.62901 -4.73415,-5.62305 -1.34911,-2.85656 -1.19116,-4.77079 0.51449,-6.23507 l 0.98258,-0.84354 1.90656,0.39815 c 2.77046,0.57855 5.80392,1.59631 8.07571,2.7095 l 1.98867,0.97446 0.16828,-1.40516 c 0.31669,-2.64493 1.66765,-4.16052 5.03545,-5.64907 6.16312,-2.72406 19.07163,-4.83624 31.41245,-5.13996 4.31081,-0.10609 12.90072,0.75815 15.65094,1.5747 5.10523,1.51574 7.78549,4.0141 7.43616,6.93155 -0.14824,1.23778 0.19872,1.3953 0.94806,0.43049 1.16845,-1.50449 3.67269,-2.64957 5.93843,-2.71542 1.44876,-0.0421 4.21586,0.89086 6.12426,2.06491 3.26917,2.01118 5.19564,6.72988 5.60572,13.73062 0.0197,0.33462 0.36029,0.70561 0.90569,0.9862 1.73267,0.89142 3.72075,3.95802 4.68584,7.22791 l 0.44747,1.51611 -0.71261,1.77175 c -0.39194,0.97448 -1.05296,2.29465 -1.46895,2.93368 -1.26343,1.94094 -4.95143,4.21762 -7.28754,4.49878 -0.48733,0.0587 -1.02038,-0.23771 -2.13317,-1.18599 l 0,0 z"
       id="UBERON:0000955"
       inkscape:connector-curvature="0"
       inkscape:label="UBERON:0000955" />
    <path
       style="fill:none;fill-opacity:1;stroke:none"
       d="m 628.33226,297.20333 c -1.09107,-0.36128 -2.15442,-0.92296 -3.23496,-1.70878 -2.32274,-1.68917 -3.83788,-3.41009 -6.30762,-7.16421 -1.85841,-2.82489 -3.12498,-4.4812 -5.11553,-6.6897 -2.75224,-3.05359 -5.54457,-5.60979 -8.95971,-8.20199 -3.39345,-2.57573 -4.48306,-3.18144 -7.14209,-3.97021 -6.83673,-2.02808 -11.55213,-4.37093 -14.38582,-7.14764 -1.28,-1.25428 -2.18009,-2.72938 -2.40649,-3.94392 -0.25264,-1.35519 0.47603,-4.70669 1.50508,-6.92345 1.35253,-2.91339 4.15361,-5.50736 7.20634,-6.67358 4.25193,-1.6243 8.08945,-1.86209 14.53611,-0.90071 12.9024,1.92409 22.84479,5.46927 29.70577,10.59223 2.31412,1.72789 4.17542,3.61468 5.11203,5.18204 1.86188,3.11572 2.75036,9.33222 2.45655,17.18787 -0.25665,6.86157 -1.41294,13.54444 -2.77823,16.05816 -0.32818,0.60422 -1.9935,2.2291 -3.00565,2.93267 -0.9748,0.67759 -2.28576,1.28636 -3.26372,1.51552 -0.87235,0.20444 -3.11838,0.1218 -3.92206,-0.1443 z"
       id="UBERON:0002113"
       inkscape:connector-curvature="0"
       inkscape:label="UBERON:0002113" />
    <path
       style="fill:none;fill-opacity:1;stroke:none"
       d="m 581.89087,262.37224 c -0.65912,-0.21996 -2.26839,-1.47861 -3.10154,-2.42574 -0.8372,-0.95175 -1.97082,-2.77321 -2.51418,-4.03971 -0.16321,-0.38038 -0.42495,-1.25559 -0.58165,-1.94491 -0.24444,-1.07533 -0.2554,-1.36768 -0.0771,-2.05849 0.31508,-1.22081 0.89126,-2.15785 1.99317,-3.24145 1.1353,-1.11644 2.18416,-1.76473 4.1287,-2.55185 2.0326,-0.82276 6.84267,-1.82753 8.12524,-1.69726 0.3151,0.032 0.21221,0.1364 -0.59758,0.60632 -4.43613,2.57436 -6.99234,6.46684 -7.56837,11.52477 -0.26005,2.28328 -0.12313,2.84077 1.18375,4.82054 l 0.87731,1.32902 -0.7562,-0.10123 c -0.416,-0.0548 -0.91611,-0.15456 -1.11155,-0.21993 z"
       id="CL:0000336"
       inkscape:connector-curvature="0"
       inkscape:label="CL:0000336" />
    <path
       style="fill:none;fill-opacity:1;stroke:none"
       d="m 625.04402,482.16621 c 0,-0.23663 2.3953,-7.24416 5.32289,-15.57229 3.37589,-9.6034 5.52149,-16.52765 5.86582,-18.93013 0.98042,-6.84066 -0.0219,-18.3019 -2.83721,-32.44285 -0.70424,-3.53729 -1.28044,-7.42164 -1.28044,-8.6319 0,-2.40819 2.28734,-7.59364 4.05542,-9.19373 1.00339,-0.90805 1.06686,-0.88435 3.17636,1.18596 4.73557,4.64762 8.42722,13.38578 8.42356,19.93867 -0.006,10.85749 -4.53998,28.17906 -11.42413,43.64526 -1.5099,3.3922 -3.5463,8.61974 -4.52534,11.61676 -0.97903,2.997 -2.05204,5.69816 -2.38446,6.00256 -1.1482,1.05144 -4.39247,2.81055 -4.39247,2.38169 z"
       id="UBERON:0001388"
       inkscape:connector-curvature="0"
       inkscape:label="UBERON:0001388" />
    <path
       style="fill:none;fill-opacity:1;stroke:none"
       d="m 461.4585,368.7118 c -1.56674,-0.095 -4.21691,-0.57818 -5.88926,-1.0736 -2.54589,-0.75423 -3.40937,-1.25251 -5.30679,-3.0623 -1.24639,-1.18881 -2.86282,-3.03661 -3.59206,-4.10622 -1.27018,-1.86298 -1.36774,-2.23927 -2.32137,-8.9522 -0.84128,-5.92199 -1.17676,-7.38253 -2.16584,-9.42881 -1.80058,-3.72513 -3.72551,-8.72333 -3.52294,-9.14749 0.32727,-0.68529 3.19165,-2.37787 3.80022,-2.24556 0.32679,0.071 0.86021,0.53252 1.18539,1.0255 0.88399,1.3402 2.6891,0.93946 5.23342,-1.16184 l 2.07365,-1.71261 -0.338,-2.51218 c -0.3127,-2.32412 -0.26593,-2.55544 0.62496,-3.08975 1.53118,-0.91834 2.45082,-0.86585 3.22362,0.18403 0.39258,0.53335 1.73207,1.57866 2.97665,2.32295 1.24457,0.74427 2.34524,1.79983 2.63384,2.24708 0.58507,0.90673 1.30869,3.01996 4.14457,2.6384 3.25348,-0.43774 5.67217,0.58998 5.75453,1.20209 -0.10512,1.14994 -0.0453,1.12941 0.31282,2.18856 0.78631,0.56525 1.50056,1.50389 0.7639,2.32764 -0.98569,1.10223 -1.81334,2.15711 -2.2698,0.95234 -1.14059,-1.81358 -1.54433,-1.30346 -3.38646,-1.46302 0.86647,2.11941 0.74962,1.95648 0.88367,3.6734 0.0749,0.53447 0.91739,1.13668 2.67939,1.91307 2.2498,0.99134 2.8809,1.53098 5.04799,4.31649 3.14195,4.03859 4.75412,7.15639 5.47175,10.58189 1.02124,4.87471 0.0402,8.09737 -3.00819,9.88187 -2.28525,1.33777 -10.7979,2.75579 -15.00961,2.50027 z"
       id="UBERON:0000948"
       inkscape:connector-curvature="0"
       sodipodi:nodetypes="cssssssccscsscsssccscccsssscc"
       inkscape:label="UBERON:0000948" />
    <path
       style="fill:none;fill-opacity:1;stroke:none"
       d="m 572.42742,457.56913 c -3.72365,-1.37795 -4.70613,-1.96782 -9.717,-5.83396 -14.75794,-11.38665 -28.47936,-18.91401 -37.74589,-20.70691 -2.69354,-0.52113 -6.03683,-3.19772 -7.73066,-6.18913 l -1.40894,-2.48816 0.40269,-10.50222 c 0.29263,-7.64327 0.66533,-12.02022 1.36886,-16.07862 4.11132,-23.71574 11.34732,-45.48431 23.79132,-71.57327 4.51105,-9.45739 5.20625,-10.66312 6.52686,-11.31976 1.79008,-0.89013 3.92732,-0.83779 4.93578,0.12086 1.29482,1.23088 3.73869,14.48563 4.0896,22.18095 0.28731,6.30012 1.40555,12.54583 2.86667,16.01126 2.4701,5.85845 7.86367,25.00812 7.76694,27.57617 -0.0296,0.78699 0.79453,4.6349 1.83148,8.55094 3.71085,14.01366 7.3988,28.98069 8.97951,36.44187 1.04612,4.93791 1.9495,8.09825 2.58708,9.05067 1.55235,2.31894 1.92898,5.01898 1.63303,11.70705 -0.29591,6.68618 -1.23556,10.20772 -3.4816,13.04742 -1.34064,1.69502 -2.12647,1.69558 -6.69521,0.004 l 0,0 z"
       id="UBERON:0002107"
       inkscape:connector-curvature="0"
       inkscape:label="UBERON:0002107" />
    <path
       style="fill:none;fill-opacity:1;stroke:none"
       d="m 497.02234,345.78435 c -0.48614,-0.0468 -2.19077,-0.20627 -3.78808,-0.35433 -10.79891,-1.00103 -22.89349,-3.7069 -28.66307,-6.41268 -5.79357,-2.71703 -16.10242,-9.88887 -21.01332,-14.61891 -4.57521,-4.40672 -6.47496,-7.47996 -6.49981,-10.5148 -0.0123,-1.50401 0.0869,-1.82735 1.10887,-3.61379 7.41979,-12.96995 25.41808,-26.38265 48.50664,-36.14816 11.69475,-4.94639 16.89078,-6.20688 25.57712,-6.20471 5.58777,0.001 9.97421,0.83975 13.68454,2.61543 1.53718,0.73565 1.87921,1.02931 2.59553,2.22841 5.35569,8.96528 6.04786,24.48957 1.82762,40.99087 -3.23319,12.64191 -8.7475,23.64638 -14.70135,29.33833 -1.7767,1.69855 -2.76968,2.11919 -6.13406,2.59846 -1.61666,0.2303 -10.40483,0.2977 -12.50063,0.0959 z"
       id="UBERON:0002048"
       inkscape:connector-curvature="0"
       inkscape:label="UBERON:0002048" />
    <path
       style="fill:none;fill-opacity:1;stroke:none"
       d="m 613.10207,336.53171 c -0.50162,-8.00484 -6.58975,-21.0987 -11.02497,-26.41862 -8.37039,-9.2655 -18.90694,-22.89539 -30.84136,-29.99057 -2.06086,-1.2252 -3.38931,-2.25688 -5.47099,-4.24875 l -1.25453,-1.20041 -0.25488,-1.05154 c -1.05403,-4.34851 -0.85231,-8.5018 0.60942,-12.54875 0.64735,-1.79221 1.50304,-3.37474 2.0971,-3.87847 1.0814,-0.91695 3.18637,-1.56042 4.84371,-1.48067 1.28396,0.0618 2.76572,0.4979 5.65251,1.66367 11.789,5.7953 23.01566,10.97433 32.19596,18.62924 8.23278,6.90786 15.39112,16.13849 20.8639,24.41097 2.65475,4.01282 5.9543,9.99028 7.12511,15.01397 1.79257,7.69161 3.17215,13.76701 3.14105,22.23364 -0.25918,10.23833 -8.2535,19.72539 -14.38697,19.36742 -11.34381,-1.1175 -13.64936,-13.25081 -13.29506,-20.50113 z"
       id="UBERON:0002106"
       inkscape:connector-curvature="0"
       sodipodi:nodetypes="ccsscssscccssccc"
       inkscape:label="UBERON:0002106" />
    <path
       style="fill:none;fill-opacity:1;stroke:none"
       d="m 436.33683,336.60253 c -1.28666,-0.36114 -6.16103,-2.50979 -9.30013,-4.09954 -6.54044,-3.31233 -10.76104,-6.69474 -11.92389,-9.55587 -0.26731,-0.65769 -0.2743,-0.73204 -0.0881,-0.93774 0.30358,-0.33545 1.0954,-0.49987 2.36695,-0.49151 1.74306,0.0115 3.0719,0.22846 5.18188,0.84617 1.76358,0.51631 3.00669,0.6232 7.1342,0.61345 4.08351,-0.01 4.94637,-0.0629 12.31124,-0.75978 6.6844,-0.63249 7.94358,-0.69211 8.62395,-0.4083 1.7444,0.72767 2.8034,1.97738 2.8034,3.30825 0,1.34148 -0.51656,2.08491 -2.90419,4.17976 -3.93733,3.45451 -7.99749,6.08339 -10.73287,6.94933 -1.05209,0.33306 -2.88446,0.5208 -3.4724,0.35578 l 0,0 z"
       id="UBERON:0002370"
       inkscape:connector-curvature="0"
       inkscape:label="UBERON:0002370" />
    <path
       style="fill:none;fill-opacity:1;stroke:none"
       d="m 667.25841,422.44278 c -18.10047,-9.80816 -29.56512,-16.99279 -38.02957,-23.83225 -4.32725,-3.49651 -6.59741,-5.80346 -8.26863,-8.40263 -1.1354,-1.76584 -1.58916,-5.41546 -1.54452,-7.40511 0.0736,-3.28087 0.36464,-7.58685 2.22318,-8.28379 0.56869,-0.21326 2.04259,-0.28356 2.78425,-0.15624 2.67791,0.45976 18.63435,8.39544 25.34934,12.60709 1.36904,0.85867 2.56865,1.48283 2.66579,1.38701 0.49778,-0.49097 -6.99015,-7.09936 -13.02979,-11.4993 -5.37867,-4.35661 -3.90222,-10.85332 -2.10693,-12.92078 0.95446,-1.43969 5.70938,-1.16638 8.87422,0.58328 l 3.62685,3.08737 c 4.53589,3.86115 14.61315,13.96843 16.94287,16.99331 6.39053,8.29742 10.87957,17.70642 12.94121,27.12476 1.71068,7.81497 1.46351,12.3095 -0.7793,14.17088 -1.91697,1.59095 -2.84999,1.31434 -11.64897,-3.4536 z"
       id="UBERON:0000995"
       inkscape:connector-curvature="0"
       sodipodi:nodetypes="ssssscsccccsssss"
       inkscape:label="UBERON:0000995" />
  </g>
</svg>
