<?xml version="1.0" encoding="UTF-8" standalone="no"?>
<!-- Created with Inkscape (http://www.inkscape.org/) -->

<svg
   xmlns:dc="http://purl.org/dc/elements/1.1/"
   xmlns:cc="http://creativecommons.org/ns#"
   xmlns:rdf="http://www.w3.org/1999/02/22-rdf-syntax-ns#"
   xmlns:svg="http://www.w3.org/2000/svg"
   xmlns="http://www.w3.org/2000/svg"
   xmlns:xlink="http://www.w3.org/1999/xlink"
   xmlns:sodipodi="http://sodipodi.sourceforge.net/DTD/sodipodi-0.dtd"
   xmlns:inkscape="http://www.inkscape.org/namespaces/inkscape"
   width="210mm"
   height="297mm"
   id="svg2"
   version="1.1"
   inkscape:version="0.91 r13725"
   sodipodi:docname="triticum_aestivum_whole_plant.svg">
  <defs
     id="defs4" />
  <sodipodi:namedview
     id="base"
     pagecolor="#ffffff"
     bordercolor="#666666"
     borderopacity="1.0"
     inkscape:pageopacity="0.0"
     inkscape:pageshadow="2"
     inkscape:zoom="0.49497475"
     inkscape:cx="247.48544"
     inkscape:cy="753.40819"
     inkscape:document-units="px"
     inkscape:current-layer="outline"
     showgrid="false"
     inkscape:window-width="2560"
     inkscape:window-height="1351"
     inkscape:window-x="0"
     inkscape:window-y="1"
     inkscape:window-maximized="1" />
  <metadata
     id="metadata7">
    <rdf:RDF>
      <cc:Work
         rdf:about="">
        <dc:format>image/svg+xml</dc:format>
        <dc:type
           rdf:resource="http://purl.org/dc/dcmitype/StillImage" />
        <dc:title />
      </cc:Work>
    </rdf:RDF>
  </metadata>
  <g
     id="group_all">
    <g
       inkscape:label="outline"
       inkscape:groupmode="layer"
       id="outline">
      <path
         style="fill:#a0a1a2;fill-opacity:1"
         d="m 289.25801,1045.191 c -1.50791,-2.8176 -3.36317,-12.953 -3.36317,-18.3733 0,-3.3375 -0.43446,-7.1587 -1.04976,-9.2329 -3.00202,-10.12 -6.11711,-16.9106 -6.11711,-13.3346 0,1.6825 -2.00655,7.0251 -4.90254,13.0535 -1.54932,3.225 -3.01747,7.3297 -3.26255,9.1214 -0.43271,3.1635 -3.08408,8.7957 -4.14054,8.7957 -1.10746,0 -2.67965,-2.4652 -2.67965,-4.2018 0,-2.8495 3.30583,-15.3293 4.92436,-18.5899 1.85745,-3.7419 4.84865,-15.63033 4.84865,-19.27084 0,-3.13576 2.51336,-9.42776 7.84788,-19.64667 3.42108,-6.55346 3.4719,-6.73367 3.34281,-11.85596 -0.0721,-2.86076 -0.40199,-5.87658 -0.73309,-6.70181 -0.37688,-0.93938 -0.61744,-1.11471 -0.6433,-0.46891 -0.0629,1.57248 -4.2796,5.4635 -9.08538,8.38381 -6.99253,4.24917 -10.72249,7.38885 -12.45345,10.48259 -1.59612,2.85274 -1.62684,3.17883 -1.68588,17.89099 -0.0631,15.7184 -0.63335,19.4736 -3.40571,22.4255 -0.60559,0.6447 -1.9204,2.2404 -2.92181,3.5458 -1.00141,1.3055 -3.02327,2.987 -4.49302,3.7368 -4.16889,2.1269 -7.70309,5.769 -9.73793,10.0355 -1.02545,2.15 -1.86469,4.259 -1.86497,4.6866 -2.8e-4,0.4276 -0.64955,1.2321 -1.44282,1.7877 -1.21012,0.8477 -1.52337,0.8654 -1.94594,0.1103 -0.76392,-1.365 0.47409,-9.646 1.81979,-12.1725 0.65343,-1.2268 1.20036,-2.4377 1.21538,-2.6909 0.0151,-0.2533 2.22464,-2.9566 4.91027,-6.0075 6.03618,-6.8571 9.57861,-12.6164 10.16492,-16.5262 0.24609,-1.64102 0.1798,-6.37422 -0.14732,-10.51817 -0.67273,-8.52194 -0.17113,-15.27013 1.3543,-18.21995 1.58816,-3.0712 4.85163,-6.51339 9.12243,-9.62211 2.13218,-1.55196 3.66687,-2.8218 3.41044,-2.8218 -0.40094,0 -4.39307,1.91577 -13.35654,6.4096 -4.02229,2.01656 -5.55437,5.84328 -8.26302,20.6385 -1.7202,9.3961 -2.39235,12.03924 -4.05689,15.95313 -2.11631,4.9762 -4.96224,10.4245 -5.44523,10.4245 -1.1493,0 -1.24152,-2.7538 -0.23275,-6.9499 1.0289,-4.2799 1.4978,-18.76863 0.63533,-19.63113 -0.2039,-0.20387 -0.71766,-0.0235 -1.1417,0.4003 -0.42404,0.42402 -1.41926,0.77096 -2.2116,0.77096 -1.53109,0 -4.15922,2.70751 -5.90487,6.08324 -0.71874,1.38985 -1.20943,4.9643 -1.57687,11.48663 -0.29339,5.2078 -0.72973,10.6415 -0.96965,12.0749 -0.46167,2.7582 -5.30133,10.6947 -6.54293,10.7297 -1.29636,0.036 -1.57959,-3.903 -0.53817,-7.4854 0.61259,-2.1072 0.9296,-5.2861 0.81218,-8.1444 l -0.19257,-4.6882 -2.28037,3.2426 c -2.50781,3.5661 -10.35959,10.7086 -11.39838,10.3687 -1.7225,-0.5635 -0.98618,-3.8679 1.80843,-8.1157 3.63869,-5.5308 4.41695,-7.0572 6.94931,-13.629 2.5071,-6.50622 6.66151,-11.77785 11.38079,-14.44125 3.80528,-2.14752 10.74809,-9.33062 12.41616,-12.84584 1.69646,-3.57503 6.20444,-7.61929 12.48618,-11.20188 5.4646,-3.11655 12.69956,-6.66233 13.59406,-6.66233 1.22355,0 6.84076,-2.87776 6.84076,-3.5046 0,-0.4059 0.86843,-1.12246 1.92984,-1.59228 2.7967,-1.23792 6.94258,-7.7769 7.82271,-12.3381 0.3969,-2.05689 1.11393,-4.98593 1.59338,-6.50889 0.47945,-1.52296 0.65317,-2.76901 0.38604,-2.76901 -0.26712,0 -1.94931,1.16533 -3.73821,2.58971 -2.71652,2.1629 -4.79742,3.02957 -12.62713,5.25879 -5.78771,1.64786 -11.24428,3.68651 -14.26111,5.32812 -4.19371,2.28199 -8.64609,5.18894 -9.77301,6.38073 -0.17917,0.18946 -1.05874,0.85344 -1.9546,1.47553 -0.89586,0.62202 -2.94819,2.14869 -4.56074,3.39253 -4.93178,3.80411 -6.38434,4.36554 -11.99318,4.63547 -4.91165,0.23631 -5.52666,0.43216 -8.98695,2.86206 -4.12405,2.89594 -5.38213,3.17785 -6.32449,1.41702 -0.97301,-1.81811 1.07107,-4.60185 6.21712,-8.46694 3.14745,-2.36396 5.07675,-3.36172 6.50896,-3.36615 3.62095,-0.0111 7.27605,-1.80351 12.72884,-6.24183 7.05561,-5.74294 13.45235,-9.79144 17.29508,-10.94609 17.30556,-5.19983 26.83137,-9.2239 29.86206,-12.61493 0.88619,-0.99151 2.69804,-3.56194 4.02633,-5.712 1.3283,-2.15006 4.71564,-6.94138 7.52745,-10.64743 5.76812,-7.60249 6.07967,-8.2337 6.64418,-13.46134 1.33743,-12.38534 4.04474,-20.70718 9.74953,-29.96854 4.38364,-7.11651 16.37253,-30.82596 18.30584,-36.20196 1.91897,-5.33606 2.00619,-6.94046 2.35298,-43.28517 0.36082,-37.81457 -1.77576,-116.61393 -3.23586,-119.34217 -0.38204,-0.71384 -2.39657,-2.72455 -4.47674,-4.46825 -8.98916,-7.53514 -28.91444,-27.88744 -37.98764,-38.80176 -1.61255,-1.93976 -4.42544,-5.13986 -6.25087,-7.11133 -1.82542,-1.97147 -6.12532,-7.10277 -9.55532,-11.40289 -3.43,-4.30013 -9.49629,-11.77648 -13.48066,-16.61412 -3.98436,-4.83763 -8.84943,-10.76255 -10.81125,-13.16647 -5.28612,-6.47736 -23.10069,-25.17347 -23.10069,-24.24382 0,0.17599 -2.2167,-1.88954 -4.92602,-4.59008 -2.70931,-2.70053 -5.21873,-4.91006 -5.57649,-4.91006 -0.35775,0 -0.46926,-0.29319 -0.2478,-0.65154 0.22147,-0.35834 0.042,-0.65153 -0.39889,-0.65153 -0.44086,0 -1.27517,-0.4286 -1.85402,-0.95245 -0.57884,-0.52385 -2.15046,-1.41124 -3.49249,-1.97197 l -2.44004,-1.01952 -3.61,3.41418 c -3.82804,3.62042 -12.124,14.89142 -17.30183,23.50652 -2.69494,4.48396 -11.68536,22.23265 -15.25862,30.12325 -2.65438,5.86147 -8.39236,20.28154 -12.70356,31.92516 -2.52094,6.80852 -4.82379,12.96552 -5.11742,13.68221 -0.29364,0.71668 -0.88616,2.17267 -1.31671,3.23553 -0.80236,1.98069 -4.15824,14.08486 -6.96069,25.10619 -1.54794,6.0876 -2.53876,9.47936 -3.52117,12.05337 -0.27353,0.71669 -1.10813,3.64859 -1.85465,6.51534 -0.74653,2.86675 -1.81535,6.97141 -2.37517,9.12148 -0.55982,2.15006 -1.73767,6.69451 -2.61745,10.09877 -0.87978,3.40426 -2.06982,7.80212 -2.64454,9.77301 -0.57472,1.97089 -2.35343,8.56767 -3.95269,14.65951 -4.79864,18.27878 -7.89899,26.49449 -12.82623,33.98863 -2.04887,3.11622 -3.06703,4.08043 -4.53645,4.29608 -1.66151,0.24387 -2.01425,-0.008 -2.86652,-2.0479 -3.356298,-8.03276 -2.579338,-25.44806 2.198,-49.26749 0.93432,-4.65846 2.06482,-10.52227 2.51222,-13.03067 2.51436,-14.09705 14.28361,-59.74507 19.40197,-75.25216 4.82353,-14.61387 13.73866,-38.44574 17.47415,-46.71181 0.67935,-1.5033 1.23519,-2.88794 1.23519,-3.07697 0,-1.06971 11.01769,-23.82916 14.37676,-29.69835 3.27734,-5.72638 8.85308,-13.89425 11.66739,-17.09147 2.96356,-3.36678 6.46819,-5.19774 14.30721,-7.47463 4.34046,-1.26071 5.81916,-1.44783 7.04122,-0.89102 1.1333,0.51637 1.92894,0.49876 2.97564,-0.0659 2.47851,-1.33698 14.76863,-1.47523 22.47045,-0.25277 3.83582,0.60884 8.13504,1.4472 9.55382,1.86303 6.24281,1.82973 19.59579,13.23847 29.51298,25.21579 3.11543,3.76261 10.18338,12.8515 15.70654,20.19755 5.52317,7.34604 10.2947,13.45417 10.60341,13.57362 0.3087,0.11945 0.56129,0.50275 0.56129,0.85179 0,0.58202 1.83232,3.3333 8.32531,12.50067 1.31287,1.85363 2.57754,3.51684 2.81038,3.69601 0.56718,0.43645 5.80418,9.03908 5.80418,9.53431 0,0.21443 0.98572,1.74852 2.19049,3.40907 1.20477,1.66056 2.91789,4.33855 3.80692,5.9511 1.66459,3.01928 8.65095,13.70729 12.35063,18.89448 1.15012,1.61255 4.23569,6.2689 6.85682,10.34746 2.62114,4.07856 4.77499,7.01046 4.78633,6.51534 0.0113,-0.49512 0.12631,-3.53893 0.25548,-6.76403 0.42609,-10.63854 1.23989,-59.02814 1.2327,-73.29755 -0.0138,-27.36994 -0.59498,-39.26433 -2.59462,-53.10001 -1.48985,-10.30844 -1.48291,-21.39645 0.0152,-24.26964 0.60725,-1.16461 1.33261,-2.11748 1.61193,-2.11748 0.42593,0 2.00771,-18.60344 2.43749,-28.66749 0.11039,-2.58497 1.11154,-86.39913 1.13236,-94.79817 0.0261,-10.55021 -0.96947,-27.89357 -1.66521,-29.00762 -0.43154,-0.69102 -2.40448,-1.89315 -4.3843,-2.67141 -8.61115,-3.38499 -18.25558,-9.41701 -26.40337,-16.51372 -2.50841,-2.18482 -6.02669,-5.12357 -7.81841,-6.53055 -4.94427,-3.88258 -9.79694,-9.03292 -17.1618,-18.21449 -11.10559,-13.84506 -15.67679,-21.54268 -20.71989,-34.89106 -0.88,-2.32923 -2.18552,-5.2275 -2.90115,-6.4406 -1.22626,-2.07867 -7.43973,-18.54112 -10.23349,-27.11339 -3.91292,-12.00628 -6.48794,-21.30504 -9.92327,-35.83436 -1.52509,-6.45019 -3.29698,-13.77994 -3.93753,-16.28835 -3.5877,-14.04932 -4.27541,-32.54567 -1.82897,-49.1908 0.65835,-4.4793 1.20374,-9.4391 1.21198,-11.02179 0.0195,-3.73978 0.40876,-3.23854 2.03075,2.61459 1.45819,5.26205 5.39473,14.95077 7.12192,17.52867 0.60022,0.89586 3.97119,7.19945 7.49103,14.00798 3.51984,6.80853 7.02996,13.40531 7.80026,14.65951 2.72934,4.44392 10.1023,20.13421 10.1023,21.49856 0,0.42807 0.41384,1.55652 0.91965,2.50766 1.59359,2.99669 8.20183,17.01344 8.20183,17.39692 0,0.20159 0.55708,1.59649 1.23797,3.09979 5.54219,12.23641 11.05768,26.68044 12.48803,32.70383 0.42547,1.79172 1.58836,5.74978 2.58421,8.7957 0.99585,3.04592 2.60737,8.03016 3.58115,11.07608 0.97379,3.04592 2.28253,6.5642 2.90832,7.81841 0.6258,1.2542 2.92848,5.94524 5.11706,10.42454 2.18859,4.47929 5.59654,10.1965 7.57321,12.70491 1.97668,2.5084 4.74379,6.02668 6.14914,7.8184 16.39099,20.89733 20.76436,26.09656 21.40907,25.45186 0.18634,-0.18635 0.44494,-14.78496 0.57466,-32.44136 0.37839,-51.50728 0.68689,-62.5996 2.18841,-78.6872 0.28429,-3.04592 0.50873,-12.3896 0.49876,-20.76373 l -0.0181,-15.22569 -2.03519,-1.06265 c -2.81286,-1.4687 -6.45072,-5.26951 -7.83433,-8.18526 -1.30947,-2.75952 -2.1438,-12.09764 -1.08086,-12.09764 0.36607,0 0.85037,0.73622 1.07622,1.63605 0.45924,1.82976 3.04076,3.91827 5.65391,4.57412 0.94888,0.23816 2.06636,0.84403 2.48328,1.34639 1.18336,1.42586 1.94731,1.07244 1.19446,-0.55258 -0.37353,-0.80627 -1.64317,-2.18884 -2.82141,-3.07239 -3.05504,-2.29092 -4.96742,-6.01081 -5.65708,-11.00399 -0.43363,-3.13938 -0.95473,-4.57515 -1.89578,-5.22333 -0.71378,-0.49164 -1.29778,-1.15132 -1.29778,-1.46595 0,-0.89142 2.14394,-0.63382 3.54508,0.42595 1.92042,1.45254 2.44865,1.15149 1.46538,-0.83513 -0.48775,-0.98545 -1.25469,-3.55086 -1.70431,-5.70093 -0.44961,-2.15006 -1.57158,-5.01974 -2.49326,-6.37708 -1.21241,-1.78549 -1.47884,-2.66482 -0.96353,-3.18013 0.5153,-0.5153 1.33719,-0.0301 2.9724,1.75486 l 2.26016,2.46709 -0.579,-3.09919 c -1.0521,-5.63165 -1.87497,-7.95795 -3.25746,-9.20909 -1.87611,-1.69785 -2.70262,-3.35916 -1.91377,-3.84671 0.35106,-0.21696 2.26396,1.23119 4.2509,3.21813 1.98693,1.98694 4.0785,3.61261 4.64792,3.61261 0.8347,0 0.77804,-0.22094 -0.29235,-1.14018 -1.59398,-1.36889 -4.02896,-5.88341 -4.02896,-7.4698 0,-1.56799 -1.88122,-6.20625 -3.70882,-9.14431 -2.05589,-3.305092 -0.43396,-3.305092 2.44274,0 2.14383,2.46307 5.02952,4.71139 6.05719,4.71932 0.30589,0.003 -0.29384,-0.96379 -1.33272,-2.147 -1.19459,-1.36057 -2.42854,-4.054713 -3.3571,-7.329759 -0.80753,-2.848154 -1.74892,-5.618241 -2.09197,-6.155757 -1.28803,-2.018126 -1.456,-2.812365 -0.81102,-3.834876 1.11876,-1.773599 2.41556,-1.181615 3.76214,1.717391 1.49973,3.228702 2.64121,3.773404 1.36536,0.651534 -0.47596,-1.164617 -1.07724,-3.873564 -1.3362,-6.019879 -0.25896,-2.146322 -1.02734,-4.993245 -1.70752,-6.326498 -2.39377,-4.692191 -1.069,-6.118361 1.7402,-1.873388 0.93076,1.406479 2.10768,2.716636 2.61538,2.911457 1.20369,0.461899 1.16931,0.235399 -0.35687,-2.351288 -0.70398,-1.193149 -1.47547,-3.921917 -1.71444,-6.063933 -0.23897,-2.142015 -0.98235,-5.124545 -1.65195,-6.627845 -1.31509,-2.952451 -1.58882,-5.4109 -0.60247,-5.4109 0.65948,0 4.37951,7.81706 4.10823,8.632823 -0.0894,0.268758 0.28483,0.48865 0.83154,0.48865 0.88033,0 0.87465,-0.230867 -0.0497,-2.018317 -1.31536,-2.543626 -1.4806,-3.372941 -2.25919,-11.338126 -0.35028,-3.583436 -1.2239,-8.566737 -1.94138,-11.074002 -0.71749,-2.507265 -1.2952,-5.292572 -1.2838,-6.189572 0.0366,-2.883504 1.54638,0.01641 2.81907,5.414865 1.02303,4.339468 3.04992,7.805014 4.00582,6.849109 0.17726,-0.177256 0.0635,-1.707773 -0.25291,-3.401148 -0.31635,-1.693375 -0.43084,-4.150014 -0.25441,-5.459199 0.40253,-2.986987 4.33099,-16.41348 5.37102,-18.356777 1.38423,-2.586467 1.40157,-0.961047 0.0438,4.105684 -1.36923,5.109437 -1.63782,8.660338 -0.86965,11.496927 0.36943,1.364174 0.60966,0.948379 1.47848,-2.558982 1.07486,-4.339003 2.62339,-6.104264 2.62339,-2.990517 0,0.949279 0.33924,2.359825 0.75385,3.134548 0.73677,1.37666 0.76527,1.37938 1.25728,0.120051 1.4203,-3.635331 0.56343,-8.437465 -3.21938,-18.042467 -0.44006,-1.117369 -0.46581,-1.911265 -0.0699,-2.155936 0.84322,-0.521139 1.92971,0.211072 1.92971,1.300478 0,0.485332 1.50065,4.792584 3.33478,9.571672 1.83413,4.779088 3.69564,9.862012 4.1367,11.295386 l 0.80191,2.606135 0.4527,-3.257669 c 0.96309,-6.930513 1.13008,-7.573427 1.8987,-7.310049 0.50263,0.17223 0.662,1.164915 0.45128,2.810856 -0.35876,2.802286 -0.35613,10.799549 0.006,16.878336 0.12793,2.150062 0.0296,4.788774 -0.21851,5.863805 -0.31746,1.375535 0.0308,0.989491 1.17562,-1.303068 0.8947,-1.791718 1.6305,-3.917347 1.63511,-4.72362 0.005,-0.806273 0.33237,-1.465951 0.72835,-1.465951 0.47634,0 0.5826,0.936996 0.31404,2.769018 -0.22327,1.522961 -0.58082,4.812986 -0.79456,7.311168 -0.21375,2.498182 -0.7841,5.856189 -1.26744,7.462238 -0.48336,1.606049 -0.77942,3.019498 -0.65791,3.140999 0.1215,0.1215 1.28302,-1.257473 2.58116,-3.064385 1.2978,-1.806912 2.65359,-3.285294 3.01254,-3.285294 0.84835,0 0.84277,1.108639 -0.008,1.634589 -1.79037,1.106508 -3.39904,5.959931 -3.64919,11.009753 -0.14314,2.889612 -0.43653,5.844494 -0.65198,6.566407 -0.2559,0.857431 0.7624,0.191453 2.93667,-1.920611 3.60978,-3.50649 4.27009,-3.34162 1.70938,0.4268 -2.29436,3.37645 -4.0981,8.259631 -4.29948,11.63975 -0.0948,1.591834 -0.58273,3.727757 -1.08421,4.746502 -0.50147,1.018744 -0.77802,1.986012 -0.61456,2.149481 0.16347,0.16347 1.71192,-0.927204 3.441,-2.423712 3.27391,-2.83354 4.73825,-2.628796 2.03789,0.284942 -1.60578,1.732663 -3.05273,5.608961 -3.10248,8.311391 -0.0157,0.85428 -0.42097,2.6527 -0.90052,3.99649 -0.47956,1.34379 -0.6778,2.44326 -0.44054,2.44326 0.23727,0 1.41146,-1.03906 2.60931,-2.30901 2.88687,-3.06064 3.29265,-2.41486 0.77863,1.23915 -1.88556,2.74057 -4.5079,11.82809 -3.65833,12.67766 0.18562,0.18562 1.51013,-0.60488 2.94337,-1.75666 2.88435,-2.31792 3.48306,-1.86644 1.03205,0.77825 -2.7345,2.95057 -3.63801,4.58763 -3.65275,6.61834 -0.008,1.08488 -0.57991,3.21857 -1.27121,4.74153 -0.6913,1.52296 -1.12051,2.76902 -0.95381,2.76902 0.16671,0 1.15431,-0.95267 2.19467,-2.11703 2.44384,-2.73514 3.24834,-1.92922 1.25917,1.26137 -0.84715,1.3588 -1.85929,4.31263 -2.2492,6.56407 l -0.70891,4.09352 1.52333,-1.4311 c 1.43993,-1.35274 1.52221,-1.36245 1.50262,-0.17734 -0.0114,0.68956 -0.45119,1.82287 -0.9773,2.51846 -1.34643,1.78014 -1.18838,3.81512 0.37199,4.78958 1.34248,0.8384 1.37099,1.70837 0.23583,7.19696 -0.17331,0.83799 -2.47123,3.62449 -5.10647,6.19222 -3.65663,3.56292 -4.97036,5.33338 -5.54723,7.4757 -0.41573,1.54391 -0.94313,3.30187 -1.17199,3.90656 -0.38706,1.02268 -0.33793,1.02196 0.70378,-0.0104 1.91629,-1.89907 6.73713,-5.73132 7.20978,-5.73132 0.24748,0 1.24046,-0.73297 2.20661,-1.62883 2.65244,-2.45948 4.93545,-1.76937 2.43117,0.7349 -0.53217,0.53218 -1.722,3.44092 -2.64406,6.46388 -1.93063,6.32954 -3.75627,8.84306 -7.26375,10.00064 -2.39223,0.78951 -2.491,0.93835 -2.56416,3.86423 -0.0418,1.67371 -0.39529,15.35709 -0.78542,30.40752 -0.39013,15.05043 -0.839,36.30673 -0.99748,47.23621 -0.15849,10.92948 -0.50967,29.44406 -0.78041,41.14352 l -0.49226,21.27174 2.66654,1.36037 c 2.92688,1.49318 2.86762,0.9175 0.7622,7.40444 -1.12471,3.46526 -1.14385,3.68574 -1.54858,17.83089 -0.21411,7.48309 -0.54179,16.53752 -0.72819,20.12095 -0.18639,3.58344 -0.46417,9.88703 -0.61729,14.00798 -0.15312,4.12095 -0.45642,12.03709 -0.674,17.59141 -0.21758,5.55433 -0.49274,15.66939 -0.61147,22.47792 -0.11874,6.80853 -0.39028,14.87126 -0.60342,17.91718 l -0.38754,5.53804 1.6871,-5.21227 c 2.12383,-6.56156 12.19318,-36.36403 13.31806,-39.4178 0.46201,-1.2542 1.19499,-3.15994 1.62888,-4.23497 0.43388,-1.07503 2.89773,-8.25819 5.47521,-15.96258 2.57749,-7.70439 5.07084,-14.88755 5.54078,-15.96258 0.46993,-1.07503 1.68152,-3.86033 2.69242,-6.18957 4.7395,-10.92041 18.30818,-27.65837 29.24408,-36.0747 9.37892,-7.21807 14.06918,-9.65845 22.06347,-11.47978 6.75197,-1.5383 14.01568,-1.65949 22.26359,-0.37147 14.51089,2.26607 23.02928,5.3406 34.34788,12.39711 3.68431,2.29695 8.60449,5.26827 10.93372,6.60292 2.32923,1.33465 4.38156,2.62791 4.56074,2.8739 0.17917,0.246 2.0849,1.40953 4.23497,2.58562 2.15006,1.17609 4.20239,2.35622 4.56073,2.62252 0.35835,0.26629 2.70205,1.60204 5.20824,2.96831 2.50618,1.36629 4.85171,2.73774 5.21227,3.04768 0.36056,0.30993 1.60238,1.06099 2.75959,1.66902 5.27071,2.76934 12.41482,6.94073 14.30374,8.35183 1.1407,0.85215 2.28769,1.54937 2.54887,1.54937 0.62932,0 10.91673,5.98951 11.35649,6.61194 0.18841,0.26668 1.21458,0.63918 2.28037,0.82778 1.06579,0.1886 4.13673,0.7767 6.8243,1.3069 5.78339,1.14094 18.67323,0.88369 27.69019,-0.55262 13.93398,-2.21955 19.06563,-3.17306 21.70402,-4.03283 2.47066,-0.80512 2.9302,-0.79487 3.81001,0.0849 0.89962,0.89962 0.89848,1.15615 -0.0112,2.54455 -2.28416,3.48608 -9.00551,7.96576 -15.79359,10.5262 -10.15539,3.83059 -19.40541,4.47113 -26.64908,1.84538 -4.80577,-1.74203 -5.05807,-1.78292 -17.91718,-2.90343 -10.70848,-0.93311 -17.76894,-2.17597 -25.81615,-4.54446 -3.62777,-1.06773 -7.20205,-1.94133 -7.94286,-1.94133 -0.74082,0 -1.52814,-0.29319 -1.74961,-0.65153 -0.22147,-0.35835 -1.04505,-0.65848 -1.83017,-0.66696 -1.38535,-0.015 -8.01494,-3.22506 -31.72382,-15.36092 -19.11873,-9.78629 -26.84507,-13.17807 -40.06934,-17.58999 -6.12142,-2.04225 -8.06975,-2.40053 -13.35644,-2.45616 -7.46064,-0.0785 -12.32123,1.25351 -15.71612,4.30692 -2.40366,2.16188 -7.18351,10.58378 -11.00364,19.38796 -1.16614,2.68758 -3.22771,7.13753 -4.58127,9.88879 -1.35356,2.75125 -2.66624,5.68315 -2.91706,6.51534 -0.25083,0.83217 -1.27304,3.2722 -2.27156,5.42226 -3.05888,6.58642 -4.55698,10.00931 -4.55698,10.41185 0,0.21151 -3.92157,8.36363 -8.7146,18.11581 -4.79303,9.75218 -9.21679,19.34379 -9.83057,21.31467 -1.21872,3.91334 -4.0084,10.54945 -6.94387,16.51809 -1.03146,2.09726 -1.87538,4.05584 -1.87538,4.3524 0,0.63055 -3.19762,7.77577 -5.91993,13.22834 -1.04416,2.09138 -1.90396,4.14371 -1.91067,4.56074 -0.007,0.41703 -1.0079,2.72297 -2.22489,5.12432 -4.93496,9.73755 -4.90632,9.42736 -5.22061,56.55233 -0.11114,16.66297 -0.37311,35.57374 -0.58217,42.02393 -0.20906,6.45018 -0.52785,16.41865 -0.70843,22.15215 -0.8919,28.31781 -1.17402,36.27723 -1.46645,41.3724 -0.34393,5.99233 -0.44498,12.28876 -0.30099,18.75357 0.0873,3.91761 0.18555,4.14973 2.28078,5.38595 2.89227,1.7065 2.67235,3.63999 -0.89527,7.87098 -1.94972,2.31223 -2.53006,3.44571 -2.05641,4.01639 0.38213,0.46043 0.68842,5.46193 0.72771,11.88326 0.0373,6.09848 0.18187,11.81341 0.32122,12.69976 0.13935,0.88634 0.44144,5.27644 0.67131,9.75574 0.22987,4.4793 0.67826,11.36927 0.99643,15.31105 0.31816,3.94177 0.74989,11.71132 0.95938,17.26564 0.20949,5.55433 0.59243,13.17727 0.85096,16.93988 0.25852,3.76261 0.47005,15.25286 0.47005,25.53387 l 0,18.69283 1.62319,-1.42718 c 0.89275,-0.7849 1.77233,-1.60727 1.9546,-1.82749 0.18228,-0.22022 2.25969,-1.83674 4.61648,-3.59229 2.92378,-2.17795 5.8616,-3.6757 9.24768,-4.71463 l 4.96261,-1.52264 4.4973,1.39187 c 5.60287,1.73406 10.37129,4.18871 16.78169,8.63869 2.73901,1.90137 6.53426,4.4832 8.4339,5.73741 4.54479,3.00064 12.28175,9.5481 18.8625,15.96258 1.47054,1.43337 3.39985,3.12247 4.28737,3.75361 7.59419,5.40031 12.75983,8.53659 21.15969,12.84701 19.44291,9.97727 26.70547,15.33431 29.92726,22.07508 1.04746,2.1915 2.04188,3.84717 2.2098,3.67927 0.16793,-0.16796 1.17583,1.37474 2.23977,3.42811 3.77913,7.29373 12.65514,21.66057 15.51483,25.11253 8.39411,10.13265 9.77549,11.44927 13.4761,12.84466 2.05712,0.77572 5.35277,1.64695 7.32366,1.93603 7.83551,1.14951 10.63514,2.61037 13.01319,6.79022 3.9973,7.02595 7.0781,9.17751 12.51309,8.7389 3.56635,-0.28785 3.97348,1.03848 0.74306,2.42071 -3.31688,1.41917 -4.09643,1.51468 -6.39756,0.78399 -4.41071,-1.40067 -7.39738,-3.1976 -11.67812,-7.02627 l -4.51124,-4.03476 -4.28446,0.42102 c -10.26408,1.00858 -20.25889,-5.82119 -34.51606,-23.58591 -8.55737,-10.66274 -12.66361,-15.17273 -14.6897,-16.1342 -2.73631,-1.29844 -6.22487,-4.6324 -7.51728,-7.18413 -1.32971,-2.62536 -5.63412,-8.62116 -8.08292,-11.25909 -4.39993,-4.73972 -12.2277,-8.61888 -20.59447,-10.20583 -7.65985,-1.45285 -13.84933,-2.82172 -19.22024,-4.2508 -2.50841,-0.66743 -7.01956,-1.82299 -10.02478,-2.56789 -3.00522,-0.74496 -6.3769,-1.98027 -7.49264,-2.74524 -4.17486,-2.86212 -10.02778,-8.04331 -15.71081,-13.90757 -7.28593,-7.51838 -10.04693,-9.42685 -13.61025,-9.40776 -3.88271,0.0208 -7.37297,1.91492 -11.70473,6.35239 -3.22258,3.30113 -3.95386,4.50027 -4.71345,7.72889 -0.49449,2.10184 -0.90365,4.7571 -0.90925,5.90061 -0.006,1.14344 -0.27785,2.24447 -0.60502,2.44664 -0.32716,0.20224 -0.80162,1.61216 -1.05435,3.13323 -0.71416,4.29836 -1.97927,6.18442 -9.10067,13.5678 -5.26653,5.46024 -9.63395,13.73127 -13.56195,25.68372 -2.562,7.7958 -3.27021,13.20744 -2.84809,21.76273 0.43322,8.78033 1.08358,11.37005 3.54379,14.11105 1.92651,2.14642 9.53931,5.3259 14.14887,5.90928 1.44437,0.18276 4.09209,1.03066 5.88381,1.88417 2.95874,1.4094 3.40505,1.92314 4.86389,5.59857 1.32999,3.35084 1.62089,5.26244 1.69155,11.11582 0.0738,6.11771 0.33563,7.70373 1.94509,11.78423 2.44518,6.19947 5.13541,10.30439 10.13546,15.46545 6.60261,6.81524 5.74585,7.92819 -3.73044,4.84592 -5.87086,-1.90958 -8.06551,-3.70853 -12.27034,-10.05819 -3.7329,-5.637 -4.85879,-10.27012 -4.48132,-18.44101 0.17826,-3.85845 6.6e-4,-7.27946 -0.44824,-8.63999 -0.70712,-2.14257 -4.42686,-5.7133 -5.61639,-5.39138 -1.92675,0.52142 -11.88898,-3.53867 -15.70737,-6.40145 l -2.11748,-1.58759 0,2.52326 c 0,4.18832 1.77333,8.23728 4.88516,11.15387 1.57118,1.47266 3.03029,2.67754 3.24246,2.67754 0.56967,0 4.3366,3.88484 6.39798,6.59821 2.22695,2.93139 5.23749,11.13237 6.30768,17.18278 0.44368,2.5084 1.27594,5.73349 1.84945,7.16687 1.52519,3.81186 6.85261,9.05932 11.46513,11.29297 10.5634,5.11545 14.32046,6.78866 19.20074,8.55092 2.9092,1.05054 5.28945,1.7237 5.28945,1.49599 0,-0.22777 0.36648,0.0489 0.81441,0.61472 0.71694,0.90564 4.73915,3.37137 8.65134,5.30355 1.58496,0.78276 4.86799,4.86012 4.86799,6.04578 0,0.85736 -3.82916,-0.37026 -11.40184,-3.65536 -4.23478,-1.83707 -8.14418,-3.18737 -8.14418,-2.81294 0,0.16282 0.45577,0.75187 1.01282,1.30894 1.73579,1.73575 7.53604,10.63325 8.77645,13.46295 1.86746,4.2601 2.06544,8.5964 0.51264,11.2282 -1.44361,2.4468 -2.76288,2.8286 -3.70312,1.0717 -0.7363,-1.3757 -3.06886,-7.7714 -4.37477,-11.9952 -1.0799,-3.4928 -5.41721,-9.53783 -9.6286,-13.4198 -3.07781,-2.83697 -6.28494,-4.67176 -10.5126,-6.01411 -3.35772,-1.06617 -10.45068,-5.25078 -13.88999,-8.19474 -3.77336,-3.22984 -6.99695,-10.08874 -8.55036,-18.19277 -0.68688,-3.58344 -1.70209,-7.77782 -2.25602,-9.32085 -1.62602,-4.5294 -6.16573,-10.44923 -9.47385,-12.35399 -1.63196,-0.93964 -3.88239,-2.39035 -5.00094,-3.22386 l -2.03374,-1.51533 -0.9532,1.47943 c -1.71277,2.65826 -2.47196,5.83195 -2.47196,10.33359 0,4.27055 0.12058,4.60231 3.45807,9.51292 1.90194,2.79847 3.83447,6.01978 4.2945,7.15846 0.46004,1.13869 1.38482,2.56666 2.05508,3.17323 2.86313,2.59109 3.84311,5.87717 4.4263,14.84227 0.56412,8.67179 1.09025,10.48299 3.89517,13.40928 0.48421,0.50514 1.58497,1.97109 2.44615,3.25767 0.86117,1.28659 2.8676,4.1753 4.45872,6.4194 1.93474,2.7288 3.14236,5.2816 3.64591,7.7072 0.41412,1.9948 0.60586,3.7741 0.42607,3.9539 -0.69695,0.6969 -3.14034,-1.2593 -4.74213,-3.7967 -1.53048,-2.4244 -6.61276,-7.682 -7.44474,-7.7015 -0.1906,-0.01 -0.40961,0.7538 -0.48669,1.6852 -0.15237,1.8411 -1.70862,5.264 -4.71023,10.3601 -1.05534,1.7917 -2.40309,4.7236 -2.995,6.5153 -1.17123,3.5453 -2.58127,5.538 -3.91873,5.538 -2.22814,0 -2.23957,-4.1335 -0.0342,-12.3791 0.52712,-1.9709 1.42771,-5.3309 2.0013,-7.4667 1.49301,-5.5592 1.3143,-8.8912 -0.72754,-13.56489 -1.58399,-3.62572 -1.77741,-4.87582 -1.83667,-11.87088 -0.0813,-9.59084 -0.82708,-12.34396 -4.44022,-16.39051 -1.54965,-1.73556 -3.78305,-4.47487 -4.96312,-6.08741 l -2.14557,-2.9319 0.40051,3.10814 c 0.5078,3.94093 -0.58952,6.78742 -5.5161,14.30905 -2.04963,3.12925 -4.08087,6.76305 -4.51388,8.07504 -0.9475,2.87092 -0.44297,8.98772 0.84779,10.27847 1.65138,1.65138 6.09982,11.69619 6.76167,15.26829 0.15515,0.8372 0.68681,3.0762 1.18149,4.9753 2.02265,7.7655 2.45964,12.8851 1.89235,22.1698 l -0.55733,9.1214 -2.07419,0.201 c -1.47723,0.143 -2.25627,-0.1393 -2.70681,-0.9811 z m 2.08779,-24.6297 c -1.65077,-8.1088 -3.58571,-14.0046 -7.00002,-21.32924 -2.8772,-6.17237 -3.65201,-9.41981 -3.02261,-12.66869 0.81217,-4.19236 2.46138,-7.8717 6.95588,-15.51862 3.46824,-5.90081 3.66432,-6.79341 2.88613,-13.13851 -1.00036,-8.15661 -0.9023,-12.68354 0.31227,-14.41759 1.36503,-1.94887 2.23579,-1.25792 2.23579,1.77406 0,5.08607 3.87829,14.19738 8.75562,20.56977 1.09708,1.43337 2.15676,2.75273 2.35485,2.9319 0.19809,0.17917 1.03659,1.43872 1.86334,2.79892 1.31017,2.1556 1.52381,3.45229 1.6639,10.09878 0.16039,7.61011 0.69494,10.069 3.14407,14.46268 1.51142,2.71143 1.9551,10.47304 0.62405,10.91704 -0.44792,0.1494 -0.81441,0.9842 -0.81441,1.855 0,0.8709 -0.29307,2.0925 -0.65126,2.7148 -1.77976,3.0917 -4.30676,12.8556 -3.14067,12.1349 0.29384,-0.1816 0.53426,-0.6806 0.53426,-1.1089 0,-0.4284 1.13507,-3.123 2.52239,-5.9883 2.89629,-5.9817 3.54594,-8.3704 3.6166,-13.2978 0.0286,-1.9952 0.36977,-3.63464 0.78536,-3.77406 0.76724,-0.25736 3.3836,2.18906 9.27283,8.67046 3.40338,3.7457 3.45882,3.7767 2.17821,1.2194 -1.0662,-2.1291 -8.97938,-11.8934 -13.5096,-16.66992 -1.12576,-1.18703 -1.55442,-4.48575 -1.81579,-13.97338 -0.19961,-7.24617 0.11194,-6.50114 -7.41001,-17.71951 -8.3132,-12.39843 -8.63614,-14.48483 -3.85665,-24.9168 1.72387,-3.76261 3.20971,-6.92131 3.30186,-7.0193 0.54849,-0.58345 2.30359,0.87338 2.95925,2.45628 0.42343,1.02226 2.27506,3.12684 4.11473,4.67678 6.10033,5.13975 10.19899,9.1661 9.87097,9.69684 -0.17809,0.28811 -0.0214,0.71082 0.34824,0.93925 1.21629,0.75168 6.51609,14.90599 6.51609,17.4026 0,1.86423 3.64266,9.43825 5.92536,12.32037 2.35713,2.97615 10.08989,8.32322 13.94642,9.64381 4.10435,1.40536 11.53805,6.46335 13.68221,9.30944 4.73577,6.28624 8.88877,13.41644 10.21774,17.54274 0.79089,2.4556 1.63959,4.1386 1.88601,3.7399 0.24642,-0.3988 -0.2783,-3.0901 -1.16605,-5.9808 -1.671,-5.4412 -5.51308,-11.76622 -10.56522,-17.39293 -1.44787,-1.61255 -2.63707,-3.1518 -2.64267,-3.42056 -0.0205,-0.98179 4.08465,-0.44786 9.14107,1.18905 2.85037,0.92271 5.1825,1.88645 5.1825,2.14172 0,0.25521 0.58638,0.5082 1.30307,0.56215 0.71668,0.0541 1.30306,5.2e-4 1.30306,-0.11878 0,-0.92296 -17.3631,-8.38999 -18.24368,-7.84577 -0.46341,0.28642 -4.23517,-1.18286 -10.42381,-4.06049 -4.08834,-1.90098 -8.7311,-5.01492 -10.89748,-7.30897 -2.01279,-2.13143 -6.04239,-9.53839 -6.04239,-11.10676 0,-1.56257 -5.22567,-16.14976 -6.77497,-18.91207 -0.89968,-1.60408 -4.3089,-5.68151 -7.57604,-9.06095 -3.26715,-3.3795 -6.5631,-7.33757 -7.32433,-8.79571 -1.65784,-3.17564 -1.93765,-9.68576 -0.5296,-12.32206 1.06359,-1.99142 1.62127,-2.13462 2.79611,-0.71806 4.1432,4.99557 9.17235,7.81769 15.17386,8.5147 3.27898,0.38089 7.72029,2.82635 9.61484,5.29417 1.77412,2.31092 1.79501,2.45003 1.68062,11.18762 -0.0981,7.49479 0.089,9.40958 1.22399,12.52274 2.35723,6.46575 5.455,9.75385 13.5419,14.37388 1.07503,0.61413 2.24779,1.11998 2.60613,1.12415 0.35835,0.007 0.0652,-0.32335 -0.65153,-0.72769 -0.71669,-0.40428 -2.93891,-2.14023 -4.93829,-3.85761 -6.315,-5.42421 -9.38023,-14.58908 -8.59382,-25.69493 0.34933,-4.93315 -0.50178,-9.16499 -2.27609,-11.31701 -1.26942,-1.53964 -6.98914,-3.82392 -10.82246,-4.32214 -6.36266,-0.82693 -14.51926,-6.31819 -16.76921,-11.28952 -2.73091,-6.03399 -1.34444,-23.4362 2.77253,-34.79934 4.00831,-11.06324 8.28652,-18.81577 15.53597,-28.15264 2.22584,-2.86675 4.6435,-6.37748 5.37257,-7.8016 1.06663,-2.08347 3.75622,-10.21924 3.75622,-11.36223 0,-0.67297 -4.55991,4.9684 -4.95745,6.13315 -0.24461,0.71669 -2.59545,3.83858 -5.22409,6.93747 -4.32124,5.09434 -5.77775,6.59691 -11.36456,11.72363 -2.33487,2.14257 -6.6838,8.09349 -8.69119,11.89258 -0.92684,1.75412 -1.93792,3.51327 -2.24684,3.9092 -1.44496,1.85205 -3.45646,9.84123 -4.03625,16.03099 -0.94997,10.14178 -1.10493,11.24958 -1.82278,13.03068 -0.81353,2.01852 -3.59023,5.21227 -4.53165,5.21227 -0.85317,0 -5.83934,6.12012 -11.41255,14.00798 -6.08128,8.60695 -9.68303,10.64925 -29.7605,16.87511 -8.88894,2.75638 -14.20906,5.7464 -20.26536,11.3894 -5.21787,4.86175 -6.55765,5.63557 -11.90776,6.87753 -4.12662,0.95795 -10.17658,3.92823 -10.17658,4.99622 0,0.33502 1.23743,-0.0222 2.74985,-0.79376 1.62848,-0.83084 4.48467,-1.53013 7.00399,-1.71497 5.05703,-0.37092 8.03489,-1.90489 14.78789,-7.6176 5.98925,-5.06666 14.47587,-9.8654 22.21644,-12.56229 3.36041,-1.17081 8.01493,-3.01055 10.34338,-4.08831 2.32844,-1.0777 4.51796,-1.95949 4.86558,-1.95949 0.9191,0 5.25061,-2.38585 6.77464,-3.73153 0.71942,-0.63525 2.44058,-2.54763 3.82481,-4.24976 3.99728,-4.9153 5.88058,-3.71889 2.69706,1.71334 -0.88954,1.51788 -2.09445,5.08835 -2.67757,7.93444 -0.58313,2.84603 -1.28305,5.4678 -1.55537,5.82615 -0.27233,0.35834 -0.7051,1.81419 -0.96172,3.23512 -0.615,3.40551 -1.7251,5.4568 -5.00934,9.25648 -3.371,3.90001 -4.16835,4.38319 -14.24,8.62891 -4.4793,1.88821 -10.09972,4.57781 -12.48983,5.97678 -4.46336,2.61259 -9.46722,7.63656 -11.62218,11.66897 -0.67026,1.2542 -1.99975,3.15994 -2.95442,4.23497 -0.95468,1.07503 -2.21855,2.55362 -2.8086,3.28582 -0.59006,0.73213 -2.83197,2.63649 -4.98203,4.23184 -8.68754,6.44627 -11.18372,9.68648 -15.03849,19.52102 -0.63206,1.6125 -2.12108,4.4711 -3.30892,6.3524 -1.18785,1.8813 -1.89446,3.4206 -1.57026,3.4206 0.32421,0 2.07404,-1.6859 3.88851,-3.7463 2.40767,-2.7341 3.93126,-5.3722 5.63892,-9.7636 1.28694,-3.30946 2.63147,-6.19745 2.98785,-6.41767 1.11855,-0.69134 1.38967,0.23989 0.6705,2.30291 -0.46178,1.32463 -0.47226,1.98783 -0.0314,1.98783 0.36385,0 0.48419,0.55876 0.26743,1.24173 -0.21675,0.683 -0.49807,5.0075 -0.62514,9.6101 -0.12708,4.6026 -0.45546,9.074 -0.72973,9.9363 -1.00971,3.1744 0.91338,0.6875 2.10001,-2.7158 0.94774,-2.718 1.19,-5.4024 1.19,-13.1858 l 0,-9.77303 2.1232,-3.05759 c 1.16777,-1.68174 4.24627,-4.79333 6.84111,-6.91472 2.59484,-2.12146 5.99054,-5.23892 7.54599,-6.92783 1.55544,-1.68891 2.96545,-2.93333 3.13335,-2.76543 0.1679,0.1679 -0.33638,2.16921 -1.12062,4.44737 -1.07623,3.12638 -1.50297,6.21915 -1.74024,12.61206 -0.17289,4.65847 -0.13705,8.30097 0.0797,8.09446 0.51687,-0.49256 1.61642,-6.21381 2.36953,-12.32943 1.27535,-10.35626 2.45799,-16.74077 3.45992,-18.6783 1.27898,-2.47329 4.559,-5.30824 7.60443,-6.57267 1.2542,-0.52071 4.68172,-2.08882 7.6167,-3.48473 2.93498,-1.39585 5.55854,-2.53792 5.83013,-2.53792 0.27159,0 2.46027,-1.31936 4.86373,-2.9319 4.94706,-3.31911 6.08579,-3.62501 5.45721,-1.46596 -0.58511,2.00973 -10.85873,12.25894 -11.91112,11.88281 -0.46653,-0.16673 -0.70577,-0.0726 -0.53162,0.20914 0.17414,0.28179 -1.13869,1.91975 -2.9174,3.63986 -5.72598,5.53739 -7.3521,10.68737 -6.38553,20.22335 1.23743,12.20836 -1.50821,20.69906 -9.59818,29.68136 -4.97702,5.526 -6.82205,8.3474 -8.27766,12.658 -1.5271,4.5225 -0.80906,4.5197 1.19176,-0.01 1.3059,-2.9529 3.18804,-5.2635 8.42482,-10.3426 6.54564,-6.3487 6.78562,-6.6836 8.18903,-11.4269 0.79517,-2.6876 1.62028,-5.1745 1.83359,-5.5265 0.6399,-1.0562 0.74723,-2.7395 0.97699,-15.32256 0.21268,-11.64701 0.27649,-12.14127 1.89276,-14.65951 1.94557,-3.03139 4.51782,-5.47054 9.9589,-9.44366 5.08428,-3.71257 10.50263,-8.86177 12.34434,-11.73119 0.80499,-1.2542 1.82758,-3.80509 2.27241,-5.66867 0.44483,-1.86352 1.23504,-3.74202 1.75602,-4.17438 0.82284,-0.68293 0.88932,0.10979 0.5062,6.03555 -0.29118,4.50386 -0.1996,7.27275 0.26954,8.14932 0.39081,0.73024 0.89797,3.08502 1.12704,5.23286 0.34338,3.21969 0.15665,4.52321 -1.06391,7.42684 -0.81422,1.93701 -1.97844,4.25477 -2.58717,5.15063 -1.69513,2.49472 -6.49308,12.12576 -7.22408,14.50106 -0.35766,1.16221 -0.89705,5.19155 -1.19865,8.95416 -0.47781,5.96085 -0.90073,7.63745 -3.28703,13.03065 -3.3582,7.5897 -5.84661,15.703 -5.84661,19.0624 0,3.5139 0.93127,2.5593 1.88266,-1.9299 1.10523,-5.2151 2.245,-8.251 6.3097,-16.8067 1.31939,-2.7772 2.48006,-6.5991 2.96794,-9.773 0.86304,-5.61454 1.68767,-7.52308 2.61731,-6.05752 0.2949,0.46487 0.54068,1.55247 0.54616,2.4168 0.005,0.86439 0.71096,2.77012 1.56772,4.23492 1.77432,3.0338 3.80764,9.3812 3.27907,10.2365 -0.19414,0.3141 -0.0811,0.5711 0.25122,0.5711 0.33231,0 0.78812,1.0995 1.01292,2.4433 0.22479,1.3438 0.73245,3.9092 1.12813,5.7009 0.39569,1.7917 0.80388,5.5287 0.90711,8.3043 0.22848,6.1436 0.7734,9.2239 2.16166,12.219 l 1.05695,2.2804 0.38372,-7.8184 c 0.32254,-6.572 0.15112,-8.961 -1.07529,-14.9853 z M 516.31456,911.11817 c -2.43503,-2.15104 -6.83569,-3.85787 -11.53254,-4.47304 -7.63386,-0.99985 -15.96032,-7.9381 -23.18845,-19.32248 -1.25135,-1.97089 -3.304,-5.19598 -4.56142,-7.16687 -1.25744,-1.97089 -3.84702,-6.82814 -5.75463,-10.79396 -3.58357,-7.44997 -7.32069,-13.79193 -9.71935,-16.49391 -2.97508,-3.35123 -20.31701,-13.04247 -35.49314,-19.83477 -7.16652,-3.2075 -9.20822,-4.73411 -21.00454,-15.70575 -4.4785,-4.16538 -8.12563,-7.36917 -14.88462,-13.0753 -1.27339,-1.07503 -2.75521,-2.374 -3.29292,-2.88662 -4.2806,-4.08082 -17.16081,-10.6475 -20.88441,-10.6475 -2.6703,0 -6.48038,1.27629 -6.48038,2.17085 0,0.2926 -0.51308,0.50324 -1.14018,0.46806 -0.6271,-0.0352 -2.91513,0.98961 -5.08451,2.27724 -6.0285,3.57809 -15.77091,15.07128 -21.94077,25.88361 -1.12465,1.97089 -2.23914,3.73004 -2.47665,3.90921 -0.23751,0.17917 -2.26401,3.84405 -4.50332,8.14417 l -4.07149,7.81841 3.80877,-3.95631 c 4.17656,-4.33837 6.54142,-6.97317 11.95293,-13.31735 5.06252,-5.93509 12.30204,-13.20197 14.97657,-15.03324 1.83934,-1.25941 2.95218,-1.51989 5.84759,-1.3688 4.51205,0.23546 8.04398,2.71331 17.29057,12.13025 8.21827,8.36967 17.61324,15.44266 18.85839,14.19751 0.23799,-0.238 0.63666,-0.13128 0.88594,0.2371 0.93685,1.38464 9.36323,3.48857 19.3448,4.83008 5.68097,0.76353 11.4851,1.7865 12.89806,2.27333 1.41296,0.48676 2.90662,0.75552 3.31923,0.59719 0.41262,-0.15832 2.79699,1.01881 5.2986,2.61585 10.53259,6.72415 11.20447,7.38781 18.52142,18.295 2.16351,3.2251 4.33945,6.45716 4.83543,7.18238 0.49596,0.72516 2.49151,2.12289 4.43455,3.10593 3.89492,1.97069 9.59406,7.47641 12.95499,12.51538 1.19505,1.79172 2.49841,3.55086 2.89636,3.9092 0.39794,0.35834 1.47218,1.6777 2.38718,2.9319 2.8845,3.95384 13.31048,13.52734 16.50495,15.15553 3.44209,1.75438 7.708,2.65193 11.88198,2.50006 3.89621,-0.14184 7.9898,1.23257 7.9898,2.68243 0,0.28107 0.36649,0.49888 0.81442,0.48396 0.44793,-0.015 -0.31222,-1.02239 -1.68921,-2.23873 z M 334.29374,809.42077 c 3.791,-4.49754 4.04957,-6.13803 4.04957,-25.692 0,-25.66105 -0.84489,-53.14353 -1.96295,-63.85031 -1.26193,-12.08439 -1.60345,-17.08446 -2.06935,-30.29633 -0.73347,-20.79969 -0.72079,-20.96688 1.76358,-23.23597 2.37089,-2.16551 2.26646,-3.34341 -0.33712,-3.80268 -1.39364,-0.24582 -2.69629,-1.52479 -5.30875,-5.21227 -6.16307,-8.69912 -13.46216,-19.76765 -15.89709,-24.10675 -4.23721,-7.55084 -7.96747,-13.97074 -9.08571,-15.63682 -0.60128,-0.89585 -3.093,-4.70733 -5.53716,-8.46993 -2.44415,-3.76261 -5.27781,-8.09574 -6.29702,-9.62918 -1.0192,-1.53344 -1.8531,-2.92169 -1.8531,-3.08499 0,-0.81278 -4.63091,-7.77829 -8.44051,-12.69565 -2.35975,-3.04593 -4.78946,-6.27102 -5.39936,-7.16688 -2.6337,-3.86854 -5.5391,-7.80356 -7.66074,-10.37556 -1.25421,-1.52042 -4.60383,-5.59842 -7.44361,-9.06221 -4.84856,-5.914 -13.10291,-15.36219 -17.60089,-20.14655 -1.9596,-2.08437 -9.21197,-8.21629 -13.0647,-11.04628 -3.7804,-2.77686 -7.0075,-4.19409 -11.49875,-5.04986 l -4.53097,-0.86334 -5.90385,2.91189 -5.90384,2.91189 12.93863,13.08105 c 15.78025,15.95395 17.54569,17.80784 19.70581,20.6932 5.76991,7.7071 17.01691,20.92171 21.63141,25.41571 2.02373,1.97089 5.53897,5.92896 7.81164,8.79571 2.27268,2.86675 5.90315,7.06509 8.06771,9.32965 2.16457,2.26456 4.09131,4.55188 4.28164,5.08294 1.15843,3.23218 33.41163,37.23595 43.46747,45.82669 5.33995,4.56196 7.55476,8.44437 7.07768,12.40674 -0.36401,3.02325 -0.44684,35.43315 -0.10241,40.06933 0.10649,1.43338 0.38469,10.66887 0.61821,20.52332 0.23353,9.85445 0.75722,23.1946 1.16375,29.64479 0.85087,13.5001 1.08448,47.34416 0.37327,54.07731 -0.43588,4.12649 -0.39867,4.37466 0.39072,2.60613 0.47987,-1.07503 1.63042,-2.85378 2.55679,-3.95279 z M 108.58347,751.15208 c 3.09519,-7.22727 5.694,-15.35574 10.83193,-33.87976 1.63997,-5.91267 3.27438,-11.77647 3.63202,-13.03068 0.35764,-1.2542 2.22571,-8.43736 4.15126,-15.96257 1.92555,-7.52522 4.43448,-16.76071 5.5754,-20.52332 1.14091,-3.76261 2.65291,-9.04003 3.35999,-11.72761 1.39925,-5.31844 4.93986,-16.54969 7.49687,-23.78098 0.88698,-2.50841 2.73165,-7.93243 4.09926,-12.05338 1.36762,-4.12095 3.95111,-11.01092 5.7411,-15.31104 1.78999,-4.30013 4.78199,-11.92307 6.64889,-16.93988 3.56449,-9.57869 8.70179,-20.67538 11.43945,-24.70956 0.89091,-1.31283 1.61984,-2.61525 1.61984,-2.89427 0,-0.50968 4.00891,-7.09335 8.38392,-13.76857 2.22689,-3.39771 6.33342,-8.53947 12.84289,-16.08052 2.87585,-3.3316 10.4799,-9.44733 14.28179,-11.48646 l 1.9546,-1.04834 -3.9092,0.0128 c -4.01384,0.0131 -6.67581,0.38486 -13.95684,1.94919 -3.28934,0.70671 -4.24119,0.72679 -4.45214,0.0939 -0.32145,-0.96437 -2.52294,-1.07363 -3.09164,-0.15344 -0.22147,0.35834 -1.06327,0.65153 -1.87068,0.65153 -2.43665,0 -6.94812,2.55421 -10.58229,5.99125 -3.49877,3.30899 -7.09306,8.33426 -11.79199,16.48667 -1.44581,2.50841 -3.39387,5.88009 -4.32904,7.49264 -2.05049,3.53575 -10.19226,19.95394 -10.19226,20.55307 0,0.23365 -0.40501,1.34871 -0.90001,2.47789 -0.495,1.12919 -1.3517,3.07924 -1.90377,4.33344 -0.55208,1.2542 -1.62833,3.86929 -2.39167,5.81131 -0.76335,1.94202 -1.9349,4.73169 -2.60346,6.19926 -0.66855,1.46757 -2.081,5.15607 -3.13877,8.19666 -1.05777,3.0406 -2.72233,7.43409 -3.69902,9.76333 -3.09072,7.37083 -3.37047,8.07423 -4.53462,11.40184 -1.22361,3.49758 -4.05611,12.43823 -4.95392,15.63681 -4.17752,14.88311 -5.6144,20.82872 -8.6601,35.83436 -1.96379,9.67528 -3.7752,19.20396 -4.02535,21.17485 -0.25015,1.97089 -0.99226,5.92896 -1.64912,8.79571 -3.92854,17.14537 -5.51873,30.20172 -5.51873,45.31203 0,6.20253 0.20998,7.84323 1.19627,9.34703 1.15371,1.75908 1.23482,1.78116 2.28036,0.62111 0.59626,-0.66157 1.77471,-2.81541 2.61878,-4.7863 z m 226.4369,-103.91965 c 0.23143,-5.37515 0.8622,-17.68914 1.40171,-27.36442 0.70784,-12.69423 1.02111,-33.86097 1.12531,-76.03413 0.0794,-32.1435 -0.0369,-58.23743 -0.25859,-57.98651 -0.22163,0.25092 -0.93115,1.87507 -1.57671,3.60923 -0.77911,2.09294 -1.69472,3.3511 -2.72332,3.74217 -3.15495,1.19951 -3.61052,4.0413 -2.79377,17.42692 0.40586,6.65165 1.03205,13.57558 1.39153,15.38651 1.39753,7.0403 2.01121,70.42135 0.89298,92.22698 -0.35835,6.9877 -0.6509,17.68914 -0.65012,23.78098 0.001,9.48115 0.17232,11.38971 1.18823,13.25411 0.65274,1.19792 1.27572,2.07749 1.38439,1.9546 0.10867,-0.12288 0.38693,-4.62128 0.61836,-9.99644 z m 0.6992,-165.95933 c 1.52825,-5.14617 2.87903,-20.45164 2.91983,-33.08425 0.0203,-6.27101 0.46084,-19.61117 0.97907,-29.64479 0.51822,-10.03362 1.11249,-28.7978 1.32059,-41.69817 0.20809,-12.90037 0.49128,-24.48138 0.62931,-25.73558 0.13802,-1.25421 0.43487,-4.56292 0.65968,-7.35269 0.2248,-2.78977 0.5652,-5.48009 0.75645,-5.97847 0.23657,-0.61649 -0.23392,-0.97363 -1.47188,-1.11725 -1.34115,-0.15559 -2.88775,-1.4873 -5.88185,-5.06457 -2.64711,-3.1627 -6.06231,-6.2268 -9.80355,-8.79571 -9.17399,-6.29929 -16.86132,-12.09244 -25.76465,-19.41617 -2.50489,-2.06047 -4.75633,-3.74632 -5.00321,-3.74632 -0.24688,0 -1.02712,-0.51308 -1.73388,-1.14018 -6.53793,-5.80111 -19.80978,-16.15444 -19.80978,-15.45356 0,0.17451 1.95314,2.88003 4.34031,6.01226 9.98972,13.10766 22.07023,24.77979 35.11373,33.92674 6.00178,4.20884 13.71075,8.12834 16.57787,8.42875 1.2542,0.13142 3.30653,1.06082 4.56073,2.06533 l 2.28037,1.8264 -0.10186,7.41407 c -0.056,4.07774 -0.26465,17.52913 -0.46362,29.89198 -0.19896,12.36286 -0.52041,38.45679 -0.71433,57.98651 -0.19391,19.52973 -0.52162,36.97455 -0.72823,38.76627 -0.45788,3.97078 -0.69143,5.69949 -1.25237,9.2702 -0.48478,3.0859 0.12528,6.89488 1.01613,6.34431 0.31987,-0.1977 1.02869,-1.86499 1.57514,-3.70511 z m 9.8378,-16.47538 c 0.74264,-1.07215 1.87754,-3.12212 2.522,-4.5555 0.64447,-1.43337 2.29552,-4.95165 3.66902,-7.8184 1.3735,-2.86675 3.55282,-7.85098 4.84291,-11.07608 1.2901,-3.22509 2.9162,-7.10667 3.61355,-8.62572 0.69735,-1.51906 1.26791,-2.89125 1.26791,-3.04933 0,-0.15807 0.84102,-2.1403 1.86892,-4.40495 1.02791,-2.26465 3.08024,-6.78315 4.56074,-10.04112 1.4805,-3.25797 2.69182,-6.26317 2.69182,-6.67822 0,-0.41506 0.29319,-0.75465 0.65153,-0.75465 0.35834,0 0.65153,-0.61442 0.65153,-1.36537 0,-0.75096 0.56924,-2.16479 1.26496,-3.14185 0.69573,-0.97706 2.41802,-4.394 3.82732,-7.59322 1.4093,-3.1992 5.2742,-11.38735 8.58867,-18.19588 6.24162,-12.82145 8.91007,-18.57016 10.43385,-22.47792 2.63567,-6.75925 13.80711,-25.48353 17.27062,-28.94704 0.92128,-0.92128 1.49298,-1.67505 1.27046,-1.67505 -0.75128,0 -9.7269,5.4204 -13.33685,8.05415 -5.73486,4.18406 -15.44296,14.54231 -20.17074,21.52156 -2.56699,3.78944 -9.14829,16.47456 -9.14829,17.63285 0,0.68774 -2.76312,7.62307 -8.31754,20.87673 -1.93908,4.62694 -8.69307,24.81737 -14.05759,42.02393 -2.63581,8.45427 -3.95879,13.09183 -6.25468,21.925 -0.38665,1.48761 -1.13363,5.7724 -1.65994,9.52174 -0.52632,3.74934 -1.12159,7.36985 -1.32284,8.04556 -0.20124,0.67571 0.59896,-0.67953 1.77825,-3.01165 1.17929,-2.33211 2.75177,-5.11742 3.49441,-6.18957 z M 583.32003,378.7611 c 2.15007,-0.548 5.03472,-1.28372 6.41034,-1.63495 3.35348,-0.85623 6.81297,-2.67513 9.41457,-4.94993 l 2.1427,-1.87353 -5.0746,0.21278 c -2.79103,0.11703 -11.23159,1.07542 -18.75681,2.12976 -7.52522,1.05434 -15.07486,1.96527 -16.777,2.02428 -3.59527,0.12464 -3.99581,0.85927 -0.9773,1.79249 1.16462,0.36005 3.73003,1.24383 5.70092,1.96395 4.4159,1.61346 12.32145,1.76134 17.91718,0.33515 z m -35.2154,-4.7462 c -0.84185,-0.74891 -17.27222,-10.47352 -22.11957,-13.09186 -2.15007,-1.16138 -4.34899,-2.4517 -4.88651,-2.86738 -1.23863,-0.95788 -3.09507,-2.02809 -8.7957,-5.0706 -2.50841,-1.33876 -5.8801,-3.17903 -7.49264,-4.08948 -1.61255,-0.91045 -4.08607,-2.2844 -5.49672,-3.05324 -1.41065,-0.76884 -5.82383,-3.39293 -9.80708,-5.83132 -3.98325,-2.43838 -10.47013,-6.02417 -14.41529,-7.96842 -3.94515,-1.94425 -9.06065,-4.58233 -11.36776,-5.86238 -7.3318,-4.06791 -17.46674,-6.99507 -24.21958,-6.99507 -9.99018,0 -20.3158,4.53239 -25.11551,11.02434 l -1.36831,1.85074 2.73101,-0.62802 c 1.50205,-0.34541 4.77332,-0.43301 7.26949,-0.19466 5.13291,0.49012 22.10948,4.96035 26.12642,6.87954 1.45693,0.69608 2.86181,1.26561 3.12196,1.26561 1.60327,0 27.71941,12.96 32.01805,15.8888 9.71577,6.61964 16.32771,9.87533 27.69019,13.63454 7.63208,2.52503 11.91094,3.50348 20.52331,4.69306 6.88955,0.95162 16.49424,1.20754 15.60424,0.4158 z M 341.56105,241.32686 c 0.46066,-30.24775 0.88147,-47.34834 1.29065,-52.44848 0.14104,-1.75797 -0.1256,-3.50682 -0.66594,-4.36777 -0.67575,-1.07669 -0.7333,-1.87738 -0.23011,-3.20088 0.46174,-1.21447 0.46028,-1.97579 -0.005,-2.44076 -0.37179,-0.37166 -0.67588,-1.54554 -0.67588,-2.60863 0,-1.06308 -0.15948,-1.77339 -0.3544,-1.57847 -0.19493,0.19492 -0.47965,5.44791 -0.63272,11.67331 -0.34205,13.9117 -1.53259,38.15981 -1.97112,40.14678 -0.87124,3.94749 -1.51201,76.31441 -0.82168,92.79938 0.38077,9.09275 0.64665,11.09052 1.62883,12.23893 1.13438,1.32635 1.1875,0.32702 1.5821,-29.76098 0.22457,-17.12337 0.60925,-44.32697 0.85483,-60.45243 z m -13.89697,78.60964 c -0.75578,-1.0614 -1.37414,-2.15109 -1.37414,-2.42156 0,-0.45483 -4.97404,-7.36761 -5.83031,-8.1028 -0.20868,-0.17917 -3.16019,-3.53378 -6.55891,-7.45469 -3.39873,-3.92091 -7.80289,-8.90514 -9.78704,-11.07608 -1.98415,-2.17093 -4.78787,-5.55969 -6.2305,-7.53058 -5.82271,-7.9549 -6.55847,-9.82516 -13.84079,-35.18283 -3.86509,-13.45857 -7.38794,-25.17624 -9.25551,-30.78553 -1.77869,-5.34236 -9.31711,-23.48466 -10.35492,-24.92061 -0.25899,-0.35834 -0.86244,-1.6777 -1.34101,-2.9319 -1.35993,-3.56399 -11.22823,-23.29502 -15.68553,-31.36217 -2.21436,-4.00771 -6.2096,-10.46635 -8.87834,-14.35254 -2.66872,-3.88618 -5.82077,-9.29314 -7.00453,-12.01546 -1.18377,-2.72232 -2.30168,-4.69994 -2.48424,-4.39472 -0.87091,1.45602 -1.91248,19.97125 -1.61203,28.65577 0.35255,10.19043 1.6635,17.0607 5.70264,29.88568 1.01572,3.22509 2.48099,8.06273 3.25616,10.75031 2.80858,9.73758 7.35756,23.79843 7.94043,24.54375 0.32809,0.41953 1.59424,3.84052 2.81367,7.60221 3.35386,10.34603 6.67703,18.49735 9.60511,23.56018 6.90152,11.93319 9.27261,15.79933 11.72849,19.12372 2.99282,4.05125 10.82335,11.9198 13.95188,14.01964 7.29999,4.89969 22.09891,16.63963 27.52559,21.83595 1.64078,1.57114 6.09432,5.15692 9.89676,7.9684 3.80244,2.8115 7.2892,5.56447 7.74837,6.11774 1.44906,1.746 1.50557,0.48602 0.0687,-1.53188 z m 21.07824,-138.63111 c 0.58209,-0.22337 1.59043,-1.46943 2.24075,-2.76902 1.27915,-2.55625 2.23022,-7.2494 1.46909,-7.2494 -0.25781,0 -1.88497,1.39265 -3.61592,3.09479 -2.85436,2.80683 -4.30336,5.06975 -4.30336,6.72063 0,0.69 2.61206,0.81597 4.20944,0.203 z m -4.86228,-9.60851 c 0.38787,-1.77948 0.346,-2.31829 -0.14221,-1.83007 -0.38056,0.38056 -0.77929,2.24843 -0.88607,4.15083 -0.10677,1.90239 -0.0428,2.72593 0.14222,1.83007 0.18499,-0.89586 0.58372,-2.76374 0.88606,-4.15083 z m -5.43063,-2.08029 c 0.64661,-1.68503 -0.82945,-3.97944 -2.81892,-4.38178 -1.01636,-0.20555 -2.49533,-0.98024 -3.28663,-1.72152 -2.29906,-2.15379 -2.93447,-1.56681 -1.45121,1.34063 2.44482,4.79223 6.55207,7.38084 7.55676,4.76267 z m 4.75969,-6.25762 c 0.0266,-4.73264 -0.42129,-6.05681 -1.63722,-4.84089 -0.61386,0.61386 -0.80509,2.13522 -0.63259,5.03264 0.13598,2.28405 0.26719,4.57534 0.29158,5.09176 0.0323,0.68492 0.30314,0.59678 1.00093,-0.32577 0.57217,-0.75648 0.9649,-2.74877 0.9773,-4.95774 z m 9.57021,-4.45114 c 1.21765,0 3.04515,-3.05939 2.56888,-4.30052 -0.36974,-0.96354 -0.54654,-0.95955 -2.08277,0.047 -2.02929,1.32964 -2.81269,0.79592 -1.62447,-1.10674 1.21682,-1.94845 2.04236,-5.06432 1.34177,-5.06432 -1.88728,0 -7.14677,7.96607 -7.14677,10.82457 0,4.08668 0.52365,4.37172 3.44208,1.87364 1.46095,-1.25052 3.03653,-2.27367 3.50128,-2.27367 z m -14.74793,-5.23811 c 0.56486,-1.05548 0.40201,-1.95713 -0.7915,-4.38201 -0.82649,-1.67921 -2.13111,-3.36487 -2.89917,-3.74592 -0.76805,-0.38105 -1.86752,-1.08375 -2.44325,-1.56157 -0.88592,-0.73525 -1.04679,-0.71124 -1.04679,0.15625 0,3.15787 1.58112,7.80957 3.14846,9.26289 2.10001,1.94723 3.09896,2.01421 4.03225,0.27036 z m 10.91568,-4.7591 c 2.60508,-1.80532 3.54628,-3.76117 4.3963,-9.13563 l 0.39836,-2.51872 -2.07694,1.47891 c -5.29097,3.7675 -8.43496,8.24776 -8.43496,12.01998 0,2.77989 0.58805,3.19683 1.99183,1.41222 0.64201,-0.81619 2.31845,-2.28173 3.72541,-3.25676 z m -11.18021,-6.78976 c 0.39963,-0.26328 0.91388,-1.07979 1.14278,-1.81447 0.47333,-1.51924 -2.49071,-5.15439 -6.32372,-7.75554 l -2.27172,-1.54163 1.20221,4.33554 c 0.79605,2.87081 1.77941,4.83204 2.91071,5.80513 1.84784,1.58945 2.23156,1.70101 3.33974,0.97097 z m 11.76413,-4.10454 c 0.8776,-0.33367 1.41943,-0.8918 1.20406,-1.24029 -0.21539,-0.34849 0.0698,-1.52581 0.63367,-2.61628 1.12833,-2.18195 2.359,-7.82862 1.70622,-7.82862 -0.62025,0 -3.98131,3.23416 -3.98131,3.83099 0,0.28632 -0.72011,0.8487 -1.60026,1.24971 -1.40164,0.63864 -3.01685,3.34488 -4.50807,7.55312 -0.2401,0.67758 -0.26032,1.78723 -0.0449,2.46589 0.35915,1.13158 0.58251,1.06632 2.69329,-0.78697 1.26591,-1.11149 3.0197,-2.29388 3.89732,-2.62755 z m -9.85021,-8.05591 c 0.66491,-3.54432 -1.86338,-6.75111 -7.07731,-8.9766 -1.074,-0.45843 -1.14031,-0.22799 -0.7438,2.5849 0.46786,3.31901 1.40694,5.18513 3.67047,7.29393 2.18628,2.03682 3.65934,1.71662 4.15064,-0.90223 z m 9.54071,-3.39212 c 1.36305,-0.94459 2.47828,-1.77249 2.47828,-1.83978 0,-0.12736 2.98582,-10.16797 3.67259,-12.35004 0.28805,-0.91523 -0.45263,-0.56796 -2.77926,1.30306 -4.52094,3.63566 -4.74542,3.88384 -5.80354,6.41628 -0.9693,2.31984 -1.32761,8.18793 -0.49997,8.18793 0.2495,0 1.56886,-0.77285 2.9319,-1.71745 z m -8.98151,-9.03395 c 0.82939,-3.30455 -2.62501,-7.81785 -7.62823,-9.96657 -2.31265,-0.99321 -2.73376,-0.98626 -1.92576,0.0318 0.35553,0.44793 0.99239,1.88917 1.41525,3.20275 0.85423,2.65355 5.54984,8.36198 6.87836,8.36198 0.46821,0 1.03538,-0.73347 1.26038,-1.62992 z m 13.25677,-7.65983 c 0.45083,-0.91297 0.93925,-3.43562 1.08538,-5.60587 0.14612,-2.17025 0.45424,-4.25101 0.68471,-4.62392 0.23047,-0.372899 0.13991,-0.678006 -0.20124,-0.678006 -0.34116,0 -0.78396,0.42654 -0.98402,0.947864 -0.20005,0.521322 -1.52305,1.539312 -2.94002,2.262192 -4.89527,2.49738 -6.42693,6.40953 -4.58174,11.70265 l 0.72386,2.07647 2.69669,-2.21071 c 1.48319,-1.21589 3.06556,-2.95769 3.51638,-3.87067 z m -12.9979,-3.43022 c 0.0917,-2.44005 -0.54473,-3.45731 -4.73003,-7.560015 -3.81159,-3.736377 -4.49416,-3.224519 -2.65423,1.990395 0.8612,2.44088 5.55441,7.86505 6.80516,7.86505 0.27104,0 0.53164,-1.03294 0.5791,-2.29543 z m 11.02323,-7.477576 c -0.0139,-0.179172 0.57251,-1.645123 1.30315,-3.257669 0.73064,-1.612546 1.48005,-4.748568 1.66535,-6.968943 0.30355,-3.636999 0.23039,-3.969352 -0.73829,-3.354005 -2.14872,1.364964 -5.64636,6.467809 -6.06925,8.854677 -0.23831,1.345066 -0.27307,3.68202 -0.0772,5.193227 l 0.35603,2.747659 1.79278,-1.44459 c 0.98602,-0.794521 1.78139,-1.591184 1.76748,-1.770356 z m -11.63646,-5.16164 c 0.0805,-1.763871 -0.27907,-4.182691 -0.79899,-5.375154 -0.9045,-2.07451 -5.68476,-7.706153 -6.54114,-7.706153 -0.22568,0 -0.28301,0.806273 -0.1274,1.791718 0.15561,0.985445 0.48703,3.111074 0.73649,4.72362 0.24946,1.612546 0.7479,3.491479 1.10765,4.175407 0.81466,1.548761 4.46498,5.597601 5.04665,5.597601 0.23672,0 0.49626,-1.443167 0.57674,-3.207039 z m 10.94771,-8.03192 c 2.0148,-2.138152 3.47257,-6.435128 3.47257,-10.235844 l 0,-2.003297 -2.94063,3.069011 c -3.08017,3.214648 -4.61955,7.025717 -3.93673,9.746275 0.51089,2.035567 1.02588,1.948425 3.40479,-0.576145 z m -8.90657,-5.547687 c 0,-2.561538 -2.2692,-6.462943 -5.4302,-9.336061 -2.005,-1.822398 -2.77149,-2.208762 -2.93416,-1.479009 -0.25871,1.160631 1.29883,6.752633 1.88081,6.752633 0.21937,0 1.34634,1.319356 2.50438,2.931902 2.42083,3.370945 3.97917,3.813688 3.97917,1.130535 z m 9.67281,-11.229309 c 1.05484,-2.687577 2.12103,-6.412923 2.36932,-8.278546 l 0.45145,-3.392042 -3.06831,3.066276 c -1.68757,1.686451 -3.61906,3.765491 -4.29219,4.62009 -1.39366,1.76936 -1.59456,5.554818 -0.5034,9.485011 l 0.71321,2.568887 1.20602,-1.591586 c 0.66331,-0.875375 2.06906,-3.790513 3.1239,-6.47809 z m -9.02128,-1.193344 c 0,-1.014682 -0.60792,-3.781618 -1.35093,-6.148746 -1.06791,-3.402237 -1.85274,-4.68056 -3.74632,-6.10197 -1.31746,-0.988956 -2.61079,-2.106791 -2.87406,-2.484077 -0.26327,-0.377287 -0.48317,1.132667 -0.48865,3.355454 -0.013,5.239655 1.10558,7.789839 5.13455,11.706601 2.11951,2.060487 3.32541,1.941812 3.32541,-0.327262 z m 8.36585,-11.792044 c 0.66437,-1.279112 1.41265,-3.425121 1.66284,-4.768909 0.47842,-2.569552 -0.0714,-7.003989 -0.86835,-7.003989 -0.25721,0 -1.17437,1.539249 -2.03814,3.420553 -0.86376,1.881304 -1.84611,3.616999 -2.183,3.857101 -0.76429,0.544711 -1.03836,1.790337 -1.48083,6.730323 l -0.35015,3.909203 2.02484,-1.909312 c 1.11366,-1.050123 2.56841,-2.955859 3.23279,-4.23497 z m -7.96461,-2.407966 c -0.26552,-4.350472 -0.71377,-5.789635 -3.60203,-11.564725 l -3.29878,-6.595914 -0.008,4.692964 c -0.009,5.119681 0.54835,6.837969 3.65283,11.269615 1.12963,1.612546 2.25733,3.884771 2.50601,5.049387 0.7591,3.554997 1.06893,2.376832 0.74985,-2.851327 z m 5.29968,-7.381546 c 2.0074,-3.515547 1.87899,-5.302901 -0.89145,-12.407927 -0.52982,-1.358789 -2.4658,5.545912 -2.46619,8.795706 -3.6e-4,3.018968 0.72581,6.19182 1.41545,6.184554 0.26193,-0.0027 1.13592,-1.16031 1.94219,-2.572333 z m -5.04938,-8.824491 c 0,-0.853562 -0.29319,-1.733133 -0.65154,-1.954602 -0.38849,-0.240106 -0.65153,0.548996 -0.65153,1.954602 0,1.405605 0.26304,2.194707 0.65153,1.954601 0.35835,-0.221468 0.65154,-1.101039 0.65154,-1.954601 z"
         id="path4249"
         inkscape:connector-curvature="0" />
    </g>
    <!-- outline layer -->
    <g
       inkscape:groupmode="layer"
       id="LAYER_EFO"
       inkscape:label="LAYER_EFO">
      <path
         style="fill:none;stroke:none"
         d="m 338.57143,176.64792 c 4.28571,-4.28572 5.71429,0 5.71429,0 -3.27382,208.95468 -9.52069,451.73422 -5,647.85714 -1.19048,1.90476 -2.38095,3.80953 -3.57143,5.71429 -4.28572,2.14285 -7.14286,-14.28572 -7.14286,-14.28572 -1.42857,-136.42857 10,-639.28571 10,-639.28571 z"
         id="PO_0009047"
         inkscape:connector-curvature="0"
         sodipodi:nodetypes="cccccc"
         inkscape:label="stem">
        <title
           id="title4190">stem</title>
      </path>
      <g
         id="PO_0025034"
         inkscape:label="leaf"
         style="fill:none">
        <title
           id="title4206">leaf</title>
        <path
           inkscape:label="leaf1"
           sodipodi:nodetypes="ccccccccssc"
           inkscape:connector-curvature="0"
           id="leaf1"
           d="m 344.28572,337.3622 c -17.14286,-0.71428 -25.71429,-7.14286 -25.71429,-7.14286 C 275,307.71934 252.85714,254.50506 252.85714,254.50506 227.14286,197.3622 223.57143,144.8622 223.57143,144.8622 c 0.71428,-25 4.64286,-33.21428 4.64286,-33.21428 13.92857,34.28571 19.64286,41.42857 19.64286,41.42857 36.42857,74.28571 41.78571,103.21429 41.78571,103.21429 11.42857,28.57143 17.5,34.99999 17.5,34.99999 10.17443,9.25855 18.06261,22.02246 24.01833,29.52912 4.80625,6.05786 17.01841,6.98046 15.67067,10.28997 z"
           style="fill:none;stroke:none" />
        <path
           inkscape:label="leaf2"
           sodipodi:nodetypes="cccccccccccccccc"
           inkscape:connector-curvature="0"
           id="leaf2"
           d="m 329.28572,494.50506 c 8.57142,-2.85714 15.35714,-20.35714 15.35714,-20.35714 39.28571,-89.28572 48.21428,-105 48.21428,-105 15.35714,-32.85714 18.92858,-32.5 18.92858,-32.5 12.85714,-3.92858 28.57142,1.07142 28.57142,1.07142 71.78572,35 75,35 75,35 19.64286,6.07143 35.00001,5.35715 35.00001,5.35715 l 16.07142,3.92857 c 11.42857,3.92857 27.14286,-3.57143 27.14286,-3.57143 10,-4.64286 13.92857,-11.42857 13.92857,-11.42857 0,-1.78572 -4.28571,-1.42857 -4.28571,-1.42857 -36.07143,9.28571 -50.71429,5 -50.71429,5 -8.57143,0 -39.28571,-19.64286 -39.28571,-19.64286 C 453.57143,307.00506 422.5,317.71934 422.5,317.71934 c -38.21428,11.42858 -54.64286,55 -54.64286,55 -34.64285,98.21429 -38.57142,121.78572 -38.57142,121.78572 z"
           style="fill:none;stroke:none" />
        <path
           inkscape:label="leaf3"
           sodipodi:nodetypes="cccccccccccc"
           inkscape:connector-curvature="0"
           id="leaf3"
           d="M 338.92857,665.57649 C 323.57143,662.3622 300,635.93363 300,635.93363 252.14286,581.64792 236.07143,560.57649 236.07143,560.57649 204.64286,529.50506 200,528.43363 200,528.43363 c -39.28571,38.21429 -67.14286,147.5 -67.14286,147.5 -18.92857,81.07143 -28.92857,84.28572 -28.92857,84.28572 -13.214284,3.92857 5.35714,-78.21429 5.35714,-78.21429 27.85715,-126.07142 61.78572,-157.5 61.78572,-157.5 10.35714,-15 53.92857,-7.14286 53.92857,-7.14286 32.85715,13.21429 98.21429,123.21429 98.21429,123.21429 6.78571,13.57142 17.14285,20.71428 17.14285,20.71428 2.5,3.57143 -1.42857,4.28572 -1.42857,4.28572 z"
           style="fill:none;stroke:none" />
        <path
           inkscape:label="leaf4"
           sodipodi:nodetypes="cscccccccccccccccscccc"
           inkscape:connector-curvature="0"
           id="leaf4"
           d="m 313.92857,851.64792 c 8.17974,-5.11234 18.56068,-19.26993 27.16155,-28.9119 6.42034,-7.1975 12.48131,-11.08811 12.48131,-11.08811 7.85714,-4.28571 20,12.85715 20,12.85715 12.85714,17.85715 46.78571,18.92857 46.78571,18.92857 11.07143,1.78571 23.92858,10.35715 23.92858,10.35715 7.14285,9.64285 8.92856,16.07143 8.92856,16.07143 3.92858,3.21428 12.50001,8.57142 12.50001,8.57142 26.78572,37.85714 38.57142,34.28571 38.57142,34.28571 7.85715,-0.35714 11.42858,1.07144 11.42858,1.07144 4.28572,7.14286 13.92857,11.07142 13.92857,11.07142 4.64286,-0.35714 8.21429,-5 8.21429,-5 l -10,-0.35714 c -3.21429,0 -7.50001,-10.71428 -7.50001,-10.71428 -2.85714,-2.5 -16.78571,-5.35715 -16.78571,-5.35715 -8.57143,0 -22.14286,-22.5 -22.14286,-22.5 C 463.92857,846.29078 460,848.79078 460,848.79078 c -3.42229,-3.8703 -21.37644,-11.14643 -35.11975,-19.32737 -9.41603,-5.60505 -16.66596,-13.52978 -16.66596,-13.52978 -29.28572,-28.92857 -44.64286,-27.5 -44.64286,-27.5 C 341.78572,790.57649 325,825.21935 325,825.21935 c -8.92857,17.5 -11.07143,26.42857 -11.07143,26.42857 z"
           style="fill:none;stroke:none" />
      </g>
      <path
         style="fill:none;stroke:none"
         d="m 312.32143,900.57649 c -3.21429,-5.35714 -16.25,-5 -16.25,-5 C 282.14286,912.00506 280,917.89792 280,917.89792 c -8.39286,6.42857 -18.75,9.64285 -18.75,9.64285 -18.21429,5.17858 -23.75,10.89286 -23.75,10.89286 -12.14286,8.21429 -13.92857,9.28572 -13.92857,9.28572 C 213.21429,948.6122 206.25,958.6122 206.25,958.6122 c -0.71428,3.57143 3.75,1.96429 3.75,1.96429 7.14286,-6.07143 9.10715,-4.64285 9.10715,-4.64285 8.21428,1.42857 13.92857,-3.92858 13.92857,-3.92858 18.21428,-14.28571 27.67857,-15.71428 27.67857,-15.71428 11.78571,-2.85714 20.17857,-9.28572 20.17857,-9.28572 -0.71429,4.46429 -2.67857,10.71429 -2.67857,10.71429 C 274.64286,948.96935 265,953.07649 265,953.07649 c -26.42857,10.71429 -28.21429,17.67857 -28.21429,17.67857 -7.14285,10 -15.71428,15.53572 -15.71428,15.53572 -7.85714,7.85714 -9.64286,15.71432 -9.64286,15.71432 -7.85714,11.7857 -8.57143,17.6785 -8.57143,17.6785 1.07143,2.8572 9.64286,-6.6071 9.64286,-6.6071 l 5,-7.1429 c 0,4.2857 -1.42857,20.7143 -1.42857,20.7143 2.5,0.7143 7.5,-10.3571 7.5,-10.3571 1.07143,-7.5 1.07143,-22.14288 1.07143,-22.14288 1.07143,-3.57143 10.35714,-8.75 10.35714,-8.75 1.78571,6.07143 -1.42857,26.60718 -1.42857,26.60718 0.71429,2.5 7.85714,-11.7858 7.85714,-11.7858 2.85715,-9.64281 6.78572,-28.92853 6.78572,-28.92853 1.78571,-5.35714 6.42857,-7.49999 6.42857,-7.49999 6.78571,-2.14286 12.85714,-5.71429 12.85714,-5.71429 -7.5,5.71429 -12.5,11.07143 -12.5,11.07143 -3.21428,2.5 -2.85714,13.03571 -2.85714,13.03571 2.32143,25.35717 -6.42857,30.71427 -6.42857,30.71427 -14.82144,14.6429 -11.07143,23.75 -11.07143,23.75 0.35714,3.5714 3.57143,-2.5 3.57143,-2.5 1.78571,-8.5714 8.75,-11.9643 8.75,-11.9643 9.64286,-4.6428 11.60714,-12.6785 11.60714,-12.6785 3.57143,-6.7858 1.78572,-33.21432 1.78572,-33.21432 0,-3.57143 6.60713,-8.92858 6.60713,-8.92858 14.10715,-7.32142 16.96429,-13.57142 16.96429,-13.57142 2.5,15.71428 -3.21428,20.35714 -3.21428,20.35714 -9.28572,15.89286 -8.75,29.82138 -8.75,29.82138 -2.58753,7.7825 -7.7782,19.2726 -7.67857,26.9643 0,0 1.07142,-5.7143 0,0 -1.07143,5.7143 2.85714,3.9286 2.85714,3.9286 3.75,-4.8214 5.17857,-15.3571 5.17857,-15.3571 4.46429,-8.3929 6.60714,-17.8572 6.60714,-17.8572 8.57143,18.9286 6.78572,25.7143 6.78572,25.7143 0.71428,15.7143 5.71428,19.2857 5.71428,19.2857 C 295,1047.0051 295,1035.2193 295,1035.2193 l -0.35714,-10.7142 c -1.07143,-13.9286 -10,-30.53575 -10,-30.53575 C 281.42857,990.04077 285,980.93363 285,980.93363 c 10.71429,-13.57143 9.28572,-19.28571 9.28572,-19.28571 -0.35715,-6.42857 -1.42858,-5.89285 -1.42858,-5.89285 5.53572,10.92286 10.00001,11.90266 10.89287,16.42857 0.71428,5 1.96428,17.32142 1.96428,17.32142 0,6.42857 2.85714,11.78574 2.85714,11.78574 1.07143,6.4285 -3.92857,20.3571 -3.92857,20.3571 -1.42857,6.0714 0.35714,8.2143 0.35714,8.2143 4.96806,-3.2914 15.84625,-28.2983 11.78572,-25.7143 l 3.21428,2.5 c 5,6.7857 10,11.0714 10,11.0714 1.07143,-3.2142 -5.35714,-15 -5.35714,-15 -5.35714,-9.64281 -8.57143,-11.78567 -8.57143,-11.78567 -1.25,-5.17857 -2.14285,-18.03571 -2.14285,-18.03571 0,-3.21428 -12.14286,-20.17857 -12.14286,-20.17857 -2.5,-5.71429 -0.17858,-12.32143 -0.17858,-12.32143 1.07143,-4.64286 3.03572,-5 3.03572,-5 9.64286,6.07143 14.64286,13.75 14.64286,13.75 3.92857,8.21428 6.07142,21.42857 6.07142,21.42857 1.78572,8.92857 16.07143,15.35714 16.07143,15.35714 l 6.78572,2.85715 c 16.07143,8.57142 20.71428,27.85712 20.71428,27.85712 2.14286,5.3572 4.28572,1.7857 4.28572,1.7857 3.92857,-5.7143 -2.5,-15 -2.5,-15 -4.46429,-7.85711 -7.67857,-10.89282 -7.67857,-10.89282 7.49999,1.42857 15.53571,5.89285 15.53571,5.89285 5.35714,2.49997 2.85714,-3.92857 2.85714,-3.92857 -22.5,-11.78571 -36.78571,-17.32142 -36.78571,-17.32142 -9.10715,-5.17858 -13.57143,-15.7143 -13.57143,-15.7143 -2.85715,-19.64285 -12.14286,-26.60714 -12.14286,-26.60714 -8.92857,-6.42857 -8.74999,-9.99999 -8.74999,-9.99999 l -0.17857,-6.78572 c 0.17857,6.78572 21.07142,10.17857 21.07142,10.17857 4.10715,1.78572 3.03572,19.46428 3.03572,19.46428 0,11.07143 11.24999,19.28572 11.24999,19.28572 8.57143,5 12.85715,3.03572 12.85715,3.03572 0,-2.85715 -10,-13.75 -10,-13.75 C 342.5,953.07649 342.5,937.00506 342.5,937.00506 342.14286,919.8622 335,919.14792 335,919.14792 c -16.42857,-2.5 -20.71429,-8.21428 -20.71429,-8.21428 -1.78571,-2.14286 -1.96428,-10.35715 -1.96428,-10.35715 z"
         id="PO_0009005"
         inkscape:connector-curvature="0"
         sodipodi:nodetypes="ccccccccccccccccccccccccccccccccccccccccccsccccccccccccccccccccccccccccccccccccccccccccccccc"
         inkscape:label="root">
        <title
           id="title4210">root</title>
      </path>
      <path
         style="fill:none;stroke:none"
         d="m 340.89286,182.71934 c 3.21428,3.57143 5.98215,1.87501 5.98215,1.87501 4.46428,-0.89286 6.60714,-5.26786 6.60714,-5.26786 1.60713,-3.92858 2.76785,-8.03572 2.76785,-8.03572 1.60714,-3.39285 2.90179,-5.35714 2.90179,-5.35714 -1.07143,-1.69643 -4.95536,1.96429 -4.95536,1.96429 C 347.09822,172.63006 345,175.75506 345,175.75506 l 1.96429,-6.07143 c 0.89285,-3.39286 7.32143,-8.57143 7.32143,-8.57143 3.03571,-4.10714 2.90178,-4.0625 2.90178,-4.0625 1.51786,-6.51786 0.35715,-7.00893 0.35715,-7.00893 -2.85715,-1.42857 -1.47322,-4.10714 -1.47322,-4.10714 2.09821,-2.85715 1.60714,-4.46429 1.60714,-4.46429 -1.20535,-0.13393 -3.12499,2.58928 -3.12499,2.58928 0.80357,-5.44642 2.23213,-9.37499 2.23213,-9.37499 1.38394,-2.5 2.5443,-4.11601 1.69643,-4.41965 -1.06408,-0.38106 -4.55357,4.06251 -4.55357,4.06251 0.98215,-2.94643 2.14286,-5.89286 2.14286,-5.89286 l 0.44643,-3.39286 c 1.07959,-3.00051 5.67078,-6.88912 5.08928,-7.27678 -0.89286,-0.40179 -5.17857,3.25893 -5.17857,3.25893 -0.22554,-0.18029 -0.63372,0.67443 -0.53571,-1.33929 0,-3.92857 3.75,-11.42857 3.75,-11.42857 1.60714,-2.14286 1.60714,-3.16964 1.60714,-3.16964 -1.02678,0.26785 -5.13392,4.41964 -5.13392,4.41964 -0.0359,-1.41516 0.53584,-2.93157 1.20535,-4.46429 0,-1.25 0.625,-4.46428 0.625,-4.46428 1.01377,-4.636535 5.00883,-8.05181 3.97322,-8.258933 -0.35517,-0.503149 -3.0684,1.787394 -4.94719,3.23804 -0.95511,0.73745 -1.79389,1.092317 -1.79389,1.092317 0.0354,-0.819288 1.19958,-2.673006 1.51786,-4.821428 0,-2.5 1.16071,-6.964286 1.16071,-6.964286 0.70638,-2.401681 3.58069,-7.005338 4.63863,-8.86089 0.27929,-0.489858 0.18281,-0.871253 0.18281,-0.871253 -1.54082,0.73958 -2.79979,2.31453 -4.15634,3.515877 -1.22566,1.085423 -2.09367,1.573409 -2.09367,1.573409 1.07143,-6.071429 1.07143,-10 1.07143,-10 0.98214,-7.098215 3.75,-8.4375 3.75,-8.4375 0.60926,-0.941579 0.0263,-1.285159 -0.53816,-1.173035 C 360.3664,60.677432 360,61.1122 360,61.1122 c -2.90179,3.392857 -4.82143,6.071428 -4.82143,6.071428 2.09822,-8.75 2.32143,-14.285714 2.32143,-14.285714 1.11607,-5.669643 0.17857,-6.830357 0.17857,-6.830357 -0.69094,0.163089 -0.97762,2.816304 -1.5625,4.464285 -0.84821,2.276787 -2.1875,3.794643 -2.1875,3.794643 0.92651,-2.430617 -0.0158,-18.167598 0.13393,-19.419643 0,-1.785714 0.26785,-4.866071 0.26785,-4.866071 0.35715,-3.214286 -1.20535,-1.651786 -1.20535,-1.651786 -1.11607,6.071429 -1.69643,10.580357 -1.69643,10.580357 -0.56601,-3.282891 -4.18073,-12.432469 -6.5552,-18.691187 -1.37113,-3.614048 -2.15016,-6.264169 -2.15016,-6.264169 -1.65178,-0.803572 -1.83035,0.848214 -1.83035,0.848214 5.53571,14.285714 4.24107,17.410714 4.24107,17.410714 -0.58036,2.901786 -1.38393,2.767857 -1.38393,2.767857 -1.07142,-1.607142 -1.42857,-5.892857 -1.42857,-5.892857 -1.78571,0.08929 -3.21429,7.142857 -3.21429,7.142857 -0.89285,1.428571 -1.07142,-3.75 -1.07142,-3.75 0,-2.678571 2.32142,-10.535714 2.32142,-10.535714 0.53572,-2.678572 -0.40178,-2.455358 -0.40178,-2.455358 -2.00808,2.487959 -6.30534,19.562563 -6.16072,21.160715 -0.19559,2.098215 1.44544,7.633929 0.40179,7.633929 -1.97726,-0.948172 -2.3155,-2.631002 -3.125,-4.553572 -1.25,-5.535714 -3.03571,-9.285714 -3.03571,-9.285714 -1.25,0.178571 0.35714,6.607143 0.35714,6.607143 3.21428,14.107143 3.03571,17.5 3.03571,17.5 0.40179,4.107143 2.41071,7.5 2.41071,7.5 -2.05357,1.428572 -2.17717,-3.745048 -3.48214,-5.714286 -2.74076,-4.135886 -2.14285,-3.125 -2.14285,-3.125 -2.09822,0.803572 1.60573,5.745456 2.5,14.017857 0.32172,2.976062 2.85714,6.607143 2.85714,6.607143 -1.42857,0 -4.28571,-3.928571 -4.28571,-3.928571 -2.14286,-2.321429 -2.50001,-1.607143 -2.50001,-1.607143 0.17858,1.894562 3.03572,7.520236 3.03572,11.607143 0.71429,3.75 2.14286,7.321428 2.14286,7.321428 -0.58648,0 -1.39568,-1.819499 -2.16969,-3.2241 -0.64002,-1.161432 -1.31246,-1.954472 -1.31246,-1.954472 -1.60714,-1.428571 -2.76785,1.071429 -2.76785,1.071429 0.17857,2.5 2.5,6.785715 2.5,6.785715 0.89285,2.857143 2.32143,6.964287 2.32143,6.964287 0,1.25 3.75,5.35714 3.75,5.35714 -3.90513,-0.0506 -6.55627,-7.442369 -10.35714,-7.410713 0.62373,1.727033 4.83909,8.678693 4.82142,11.874993 0,2.32143 5,8.34823 5,8.34823 -1.96429,0.40178 -8.03571,-6.38394 -8.03571,-6.38394 -2.14286,-1.60714 -1.69643,1.07143 -1.69643,1.07143 0.74721,0.71077 2.11347,1.94085 3.21733,3.54936 0.7954,1.15904 1.69338,5.28992 1.69338,5.28992 0.89286,4.82143 1.16072,6.16073 1.16072,6.16073 C 327.76786,125.39792 325,123.79077 325,123.79077 c -1.42857,0.35714 1.16072,4.375 1.16072,4.375 1.14321,2.13253 1.94,5.4463 2.72529,8.32913 0.38643,1.41859 1.26913,3.1145 1.5357,4.05657 0.2384,0.84249 -0.0964,1.02846 -0.42171,0.7393 -3.21428,-2.85715 -5.17857,-1.69642 -5.17857,-1.69642 l 0.47924,0.93528 c 0.69084,0.79481 1.59499,0.7364 2.0654,2.41293 0.63665,1.45235 0.6385,3.97027 1.2292,6.39984 0.73478,3.02214 2.2937,5.87036 3.54759,6.90373 6.01589,4.95787 4.59822,6.07143 4.59822,6.07143 0,0 -0.99688,-1.19908 -2.47599,-1.96325 -1.11402,-0.57555 -2.64282,-1.06834 -3.64009,-1.56354 -2.63392,-0.9375 -4.10714,-5.08929 -4.10714,-5.08929 -1.07143,-0.53571 -0.84822,2.94643 -0.84822,2.94643 0.0893,12.67857 8.16965,16.42858 8.16965,16.42858 l 3.4375,2.00892 c 3.03571,2.67857 3.61607,7.63393 3.61607,7.63393 z"
         id="PO_0009049"
         inkscape:connector-curvature="0"
         sodipodi:nodetypes="cccccccccccccccsccccccccccccscccscscccsccccccccccsccccccccccccccccscscccccsccccccccccsccccssscccsscscccccc"
         inkscape:label="inflorescence">
        <title
           id="title4216">inflorescence</title>
      </path>
    </g>
    <!-- LAYER_EFO -->
  </g>
  <!-- group_all -->
  <a
     id="ccLogo"
     xlink:href="http://www.ebi.ac.uk/gxa/licence.html">
    <image
       xlink:href="https://licensebuttons.net/i/l/by/ffffff/33/99/33/80x15.png"
       x="55"
       y="0"
       height="15"
       width="80"
       id="image4219" />
  </a>
</svg>
