<?xml version="1.0" standalone="no"?>
<!DOCTYPE svg PUBLIC "-//W3C//DTD SVG 20010904//EN"
 "http://www.w3.org/TR/2001/REC-SVG-20010904/DTD/svg10.dtd">
<svg version="1.0" xmlns="http://www.w3.org/2000/svg"
 width="828.000000pt" height="828.000000pt" viewBox="0 0 828.000000 828.000000"
 preserveAspectRatio="xMidYMid meet">
<metadata>
Created by potrace 1.11, written by Peter Selinger 2001-2013
</metadata>
<g transform="translate(0.000000,828.000000) scale(0.100000,-0.100000)"
fill="#000000" stroke="none">
<path d="M3825 8254 c-748 -61 -1464 -315 -2057 -731 -388 -272 -759 -643
-1031 -1031 -320 -456 -547 -990 -660 -1552 -58 -288 -71 -437 -71 -805 0
-375 13 -523 75 -825 341 -1657 1647 -2933 3309 -3234 265 -48 414 -60 720
-60 266 0 353 6 586 35 l90 12 -64 106 c-177 295 -282 599 -333 963 l-23 163
-84 95 c-112 127 -211 277 -289 435 -34 72 -63 132 -63 135 0 3 80 4 177 2 98
-2 221 2 274 8 397 46 777 197 1090 435 l96 73 6 -58 c8 -72 36 -149 85 -228
20 -34 323 -397 672 -808 509 -599 647 -755 698 -792 159 -113 358 -133 521
-51 268 134 347 465 173 724 -42 62 -131 141 -797 708 -412 351 -779 656 -815
677 -75 45 -154 75 -227 85 l-52 7 73 98 c278 373 426 792 442 1255 4 89 1
204 -5 260 -5 54 -8 101 -6 103 7 7 157 -56 252 -105 102 -52 233 -137 317
-206 78 -64 236 -219 231 -227 -2 -3 39 -12 91 -19 272 -36 617 -158 866 -304
54 -32 101 -58 105 -58 13 0 31 163 44 408 32 580 -62 1144 -287 1725 -59 153
-237 503 -332 655 -603 958 -1564 1624 -2672 1852 -277 57 -445 73 -775 76
-165 1 -322 1 -350 -1z m445 -3355 c161 -26 303 -100 423 -222 l79 -79 59 6
c76 9 236 -9 356 -39 159 -41 384 -159 405 -214 13 -36 11 -332 -5 -416 l-12
-70 -795 -547 c-437 -302 -798 -548 -803 -548 -14 0 -101 145 -139 233 -61
141 -97 307 -98 450 0 37 -3 67 -8 67 -16 0 -119 93 -165 147 -334 405 -163
1026 332 1198 123 43 246 55 371 34z"/>
</g>
</svg>
