<svg class="lds-flask" width="80px" height="80px" xmlns="http://www.w3.org/2000/svg" viewBox="0 0 100 100" preserveAspectRatio="xMidYMid"><defs>
<clipPath id="lds-flask-cpid-0.e56f9f861a5a5" clipPathUnits="userSpaceOnUse">
<rect x="0" y="50" width="100" height="50"/>
</clipPath>
<pattern id="lds-flask-patid-0.f89b8467a3f7a" patternUnits="userSpaceOnUse" x="0" y="0" width="100" height="100">
<rect x="0" y="0" width="100" height="100" fill="#fac090"/><circle cx="2" cy="0" r="2" fill="#ffffcb" transform="translate(0 65.0667)">
<animateTransform attributeName="transform" type="translate" values="0 110;0 -10" keyTimes="0;1" dur="3s" begin="-1.59s" repeatCount="indefinite"/>
</circle><circle cx="19" cy="0" r="3" fill="#ffffcb" transform="translate(0 135.111)">
<animateTransform attributeName="transform" type="translate" values="0 150;0 -50" keyTimes="0;1" dur="3s" begin="-0.69s" repeatCount="indefinite"/>
</circle><circle cx="61" cy="0" r="2" fill="#ffffcb" transform="translate(0 33.5333)">
<animateTransform attributeName="transform" type="translate" values="0 107;0 -7" keyTimes="0;1" dur="3s" begin="-2.4s" repeatCount="indefinite"/>
</circle><circle cx="84" cy="0" r="2" fill="#ffffcb" transform="translate(0 49.1556)">
<animateTransform attributeName="transform" type="translate" values="0 145;0 -45" keyTimes="0;1" dur="3s" begin="-1.98s" repeatCount="indefinite"/>
</circle><circle cx="81" cy="0" r="3" fill="#ffffcb" transform="translate(0 130.178)">
<animateTransform attributeName="transform" type="translate" values="0 138;0 -38" keyTimes="0;1" dur="3s" begin="-0.6s" repeatCount="indefinite"/>
</circle><circle cx="99" cy="0" r="3" fill="#ffffcb" transform="translate(0 -15.4822)">
<animateTransform attributeName="transform" type="translate" values="0 129;0 -29" keyTimes="0;1" dur="3s" begin="-0.21s" repeatCount="indefinite"/>
</circle><circle cx="14" cy="0" r="3" fill="#ffffcb" transform="translate(0 19.7511)">
<animateTransform attributeName="transform" type="translate" values="0 132;0 -32" keyTimes="0;1" dur="3s" begin="-2.52s" repeatCount="indefinite"/>
</circle><circle cx="33" cy="0" r="3" fill="#ffffcb" transform="translate(0 136.429)">
<animateTransform attributeName="transform" type="translate" values="0 139;0 -39" keyTimes="0;1" dur="3s" begin="-0.51s" repeatCount="indefinite"/>
</circle><circle cx="55" cy="0" r="3" fill="#ffffcb" transform="translate(0 65.1111)">
<animateTransform attributeName="transform" type="translate" values="0 150;0 -50" keyTimes="0;1" dur="3s" begin="-1.74s" repeatCount="indefinite"/>
</circle><circle cx="60" cy="0" r="3" fill="#ffffcb" transform="translate(0 71.5956)">
<animateTransform attributeName="transform" type="translate" values="0 136;0 -36" keyTimes="0;1" dur="3s" begin="-1.59s" repeatCount="indefinite"/>
</circle><circle cx="71" cy="0" r="3" fill="#ffffcb" transform="translate(0 40.3222)">
<animateTransform attributeName="transform" type="translate" values="0 115;0 -15" keyTimes="0;1" dur="3s" begin="-2.19s" repeatCount="indefinite"/>
</circle><circle cx="39" cy="0" r="3" fill="#ffffcb" transform="translate(0 50.8444)">
<animateTransform attributeName="transform" type="translate" values="0 126;0 -26" keyTimes="0;1" dur="3s" begin="-1.95s" repeatCount="indefinite"/>
</circle><circle cx="34" cy="0" r="4" fill="#ffffcb" transform="translate(0 34.5155)">
<animateTransform attributeName="transform" type="translate" values="0 154;0 -54" keyTimes="0;1" dur="3s" begin="-2.19s" repeatCount="indefinite"/>
</circle><circle cx="13" cy="0" r="3" fill="#ffffcb" transform="translate(0 53.9867)">
<animateTransform attributeName="transform" type="translate" values="0 128;0 -28" keyTimes="0;1" dur="3s" begin="-1.89s" repeatCount="indefinite"/>
</circle><circle cx="9" cy="0" r="3" fill="#ffffcb" transform="translate(0 146.138)">
<animateTransform attributeName="transform" type="translate" values="0 147;0 -47" keyTimes="0;1" dur="3s" begin="-0.48s" repeatCount="indefinite"/>
</circle><circle cx="90" cy="0" r="3" fill="#ffffcb" transform="translate(0 25.1244)">
<animateTransform attributeName="transform" type="translate" values="0 108;0 -8" keyTimes="0;1" dur="3s" begin="-2.61s" repeatCount="indefinite"/>
</circle><circle cx="95" cy="0" r="3" fill="#ffffcb" transform="translate(0 -0.888885)">
<animateTransform attributeName="transform" type="translate" values="0 150;0 -50" keyTimes="0;1" dur="3s" begin="-2.73s" repeatCount="indefinite"/>
</circle><circle cx="9" cy="0" r="3" fill="#ffffcb" transform="translate(0 72.5022)">
<animateTransform attributeName="transform" type="translate" values="0 133;0 -33" keyTimes="0;1" dur="3s" begin="-1.56s" repeatCount="indefinite"/>
</circle><circle cx="48" cy="0" r="3" fill="#ffffcb" transform="translate(0 -2.13333)">
<animateTransform attributeName="transform" type="translate" values="0 110;0 -10" keyTimes="0;1" dur="3s" begin="-0.27s" repeatCount="indefinite"/>
</circle><circle cx="51" cy="0" r="3" fill="#ffffcb" transform="translate(0 99.0667)">
<animateTransform attributeName="transform" type="translate" values="0 146;0 -46" keyTimes="0;1" dur="3s" begin="-1.2s" repeatCount="indefinite"/>
</circle><circle cx="60" cy="0" r="3" fill="#ffffcb" transform="translate(0 70.3778)">
<animateTransform attributeName="transform" type="translate" values="0 120;0 -20" keyTimes="0;1" dur="3s" begin="-1.53s" repeatCount="indefinite"/>
</circle><circle cx="56" cy="0" r="2" fill="#ffffcb" transform="translate(0 95.5622)">
<animateTransform attributeName="transform" type="translate" values="0 151;0 -51" keyTimes="0;1" dur="3s" begin="-1.29s" repeatCount="indefinite"/>
</circle><circle cx="68" cy="0" r="3" fill="#ffffcb" transform="translate(0 75.8267)">
<animateTransform attributeName="transform" type="translate" values="0 128;0 -28" keyTimes="0;1" dur="3s" begin="-1.47s" repeatCount="indefinite"/>
</circle><circle cx="95" cy="0" r="4" fill="#ffffcb" transform="translate(0 29.9378)">
<animateTransform attributeName="transform" type="translate" values="0 111;0 -11" keyTimes="0;1" dur="3s" begin="-2.46s" repeatCount="indefinite"/>
</circle><circle cx="37" cy="0" r="3" fill="#ffffcb" transform="translate(0 -11.04)">
<animateTransform attributeName="transform" type="translate" values="0 113;0 -13" keyTimes="0;1" dur="3s" begin="-0.42s" repeatCount="indefinite"/>
</circle><circle cx="77" cy="0" r="4" fill="#ffffcb" transform="translate(0 -16.2556)">
<animateTransform attributeName="transform" type="translate" values="0 117;0 -17" keyTimes="0;1" dur="3s" begin="-0.45s" repeatCount="indefinite"/>
</circle><circle cx="20" cy="0" r="2" fill="#ffffcb" transform="translate(0 6.94222)">
<animateTransform attributeName="transform" type="translate" values="0 106;0 -6" keyTimes="0;1" dur="3s" begin="-0.12s" repeatCount="indefinite"/>
</circle><circle cx="16" cy="0" r="2" fill="#ffffcb" transform="translate(0 136.429)">
<animateTransform attributeName="transform" type="translate" values="0 139;0 -39" keyTimes="0;1" dur="3s" begin="-0.51s" repeatCount="indefinite"/>
</circle><circle cx="27" cy="0" r="3" fill="#ffffcb" transform="translate(0 72.3489)">
<animateTransform attributeName="transform" type="translate" values="0 139;0 -39" keyTimes="0;1" dur="3s" begin="-1.59s" repeatCount="indefinite"/>
</circle><circle cx="89" cy="0" r="2" fill="#ffffcb" transform="translate(0 38.5356)">
<animateTransform attributeName="transform" type="translate" values="0 127;0 -27" keyTimes="0;1" dur="3s" begin="-2.19s" repeatCount="indefinite"/>
</circle><circle cx="85" cy="0" r="4" fill="#ffffcb" transform="translate(0 85.5911)">
<animateTransform attributeName="transform" type="translate" values="0 141;0 -41" keyTimes="0;1" dur="3s" begin="-1.38s" repeatCount="indefinite"/>
</circle><circle cx="82" cy="0" r="3" fill="#ffffcb" transform="translate(0 -6.66222)">
<animateTransform attributeName="transform" type="translate" values="0 111;0 -11" keyTimes="0;1" dur="3s" begin="-0.36s" repeatCount="indefinite"/>
</circle><circle cx="81" cy="0" r="2" fill="#ffffcb" transform="translate(0 5.22222)">
<animateTransform attributeName="transform" type="translate" values="0 115;0 -15" keyTimes="0;1" dur="3s" begin="0s" repeatCount="indefinite"/>
</circle><circle cx="16" cy="0" r="2" fill="#ffffcb" transform="translate(0 -5.18222)">
<animateTransform attributeName="transform" type="translate" values="0 147;0 -47" keyTimes="0;1" dur="3s" begin="-2.82s" repeatCount="indefinite"/>
</circle><circle cx="66" cy="0" r="3" fill="#ffffcb" transform="translate(0 -17.9467)">
<animateTransform attributeName="transform" type="translate" values="0 134;0 -34" keyTimes="0;1" dur="3s" begin="-0.18s" repeatCount="indefinite"/>
</circle><circle cx="38" cy="0" r="4" fill="#ffffcb" transform="translate(0 81.5778)">
<animateTransform attributeName="transform" type="translate" values="0 120;0 -20" keyTimes="0;1" dur="3s" begin="-1.29s" repeatCount="indefinite"/>
</circle><circle cx="12" cy="0" r="3" fill="#ffffcb" transform="translate(0 12.8444)">
<animateTransform attributeName="transform" type="translate" values="0 126;0 -26" keyTimes="0;1" dur="3s" begin="-2.7s" repeatCount="indefinite"/>
</circle><circle cx="68" cy="0" r="2" fill="#ffffcb" transform="translate(0 88.3289)">
<animateTransform attributeName="transform" type="translate" values="0 148;0 -48" keyTimes="0;1" dur="3s" begin="-1.38s" repeatCount="indefinite"/>
</circle><circle cx="40" cy="0" r="3" fill="#ffffcb" transform="translate(0 50.9778)">
<animateTransform attributeName="transform" type="translate" values="0 138;0 -38" keyTimes="0;1" dur="3s" begin="-1.95s" repeatCount="indefinite"/>
</circle><circle cx="17" cy="0" r="4" fill="#ffffcb" transform="translate(0 92.2622)">
<animateTransform attributeName="transform" type="translate" values="0 124;0 -24" keyTimes="0;1" dur="3s" begin="-1.11s" repeatCount="indefinite"/>
</circle><circle cx="20" cy="0" r="3" fill="#ffffcb" transform="translate(0 134.498)">
<animateTransform attributeName="transform" type="translate" values="0 147;0 -47" keyTimes="0;1" dur="3s" begin="-0.66s" repeatCount="indefinite"/>
</circle><circle cx="100" cy="0" r="4" fill="#ffffcb" transform="translate(0 -22.1156)">
<animateTransform attributeName="transform" type="translate" values="0 126;0 -26" keyTimes="0;1" dur="3s" begin="-0.39s" repeatCount="indefinite"/>
</circle><circle cx="6" cy="0" r="4" fill="#ffffcb" transform="translate(0 97.9644)">
<animateTransform attributeName="transform" type="translate" values="0 126;0 -26" keyTimes="0;1" dur="3s" begin="-1.02s" repeatCount="indefinite"/>
</circle><circle cx="40" cy="0" r="3" fill="#ffffcb" transform="translate(0 21.2222)">
<animateTransform attributeName="transform" type="translate" values="0 124;0 -24" keyTimes="0;1" dur="3s" begin="-2.55s" repeatCount="indefinite"/>
</circle><circle cx="40" cy="0" r="4" fill="#ffffcb" transform="translate(0 107.062)">
<animateTransform attributeName="transform" type="translate" values="0 124;0 -24" keyTimes="0;1" dur="3s" begin="-0.81s" repeatCount="indefinite"/>
</circle><circle cx="92" cy="0" r="4" fill="#ffffcb" transform="translate(0 13.0556)">
<animateTransform attributeName="transform" type="translate" values="0 145;0 -45" keyTimes="0;1" dur="3s" begin="-2.55s" repeatCount="indefinite"/>
</circle><circle cx="50" cy="0" r="3" fill="#ffffcb" transform="translate(0 50.6667)">
<animateTransform attributeName="transform" type="translate" values="0 110;0 -10" keyTimes="0;1" dur="3s" begin="-1.95s" repeatCount="indefinite"/>
</circle><circle cx="32" cy="0" r="2" fill="#ffffcb" transform="translate(0 104.827)">
<animateTransform attributeName="transform" type="translate" values="0 146;0 -46" keyTimes="0;1" dur="3s" begin="-1.11s" repeatCount="indefinite"/>
</circle><circle cx="41" cy="0" r="4" fill="#ffffcb" transform="translate(0 49.3244)">
<animateTransform attributeName="transform" type="translate" values="0 126;0 -26" keyTimes="0;1" dur="3s" begin="-1.98s" repeatCount="indefinite"/>
</circle><circle cx="50" cy="0" r="4" fill="#ffffcb" transform="translate(0 -9.03999)">
<animateTransform attributeName="transform" type="translate" values="0 131;0 -31" keyTimes="0;1" dur="3s" begin="-0.06s" repeatCount="indefinite"/>
</circle><circle cx="3" cy="0" r="3" fill="#ffffcb" transform="translate(0 19.4667)">
<animateTransform attributeName="transform" type="translate" values="0 110;0 -10" keyTimes="0;1" dur="3s" begin="-2.73s" repeatCount="indefinite"/>
</circle><circle cx="98" cy="0" r="3" fill="#ffffcb" transform="translate(0 -17.8222)">
<animateTransform attributeName="transform" type="translate" values="0 120;0 -20" keyTimes="0;1" dur="3s" begin="-0.42s" repeatCount="indefinite"/>
</circle><circle cx="72" cy="0" r="2" fill="#ffffcb" transform="translate(0 103.689)">
<animateTransform attributeName="transform" type="translate" values="0 130;0 -30" keyTimes="0;1" dur="3s" begin="-0.96s" repeatCount="indefinite"/>
</circle><circle cx="1" cy="0" r="2" fill="#ffffcb" transform="translate(0 108.267)">
<animateTransform attributeName="transform" type="translate" values="0 110;0 -10" keyTimes="0;1" dur="3s" begin="-0.51s" repeatCount="indefinite"/>
</circle><circle cx="17" cy="0" r="2" fill="#ffffcb" transform="translate(0 95.4222)">
<animateTransform attributeName="transform" type="translate" values="0 106;0 -6" keyTimes="0;1" dur="3s" begin="-0.75s" repeatCount="indefinite"/>
</circle><circle cx="32" cy="0" r="2" fill="#ffffcb" transform="translate(0 71.4667)">
<animateTransform attributeName="transform" type="translate" values="0 119;0 -19" keyTimes="0;1" dur="3s" begin="-1.5s" repeatCount="indefinite"/>
</circle><circle cx="71" cy="0" r="2" fill="#ffffcb" transform="translate(0 4.94222)">
<animateTransform attributeName="transform" type="translate" values="0 124;0 -24" keyTimes="0;1" dur="3s" begin="-2.88s" repeatCount="indefinite"/>
</circle><circle cx="29" cy="0" r="3" fill="#ffffcb" transform="translate(0 77.1111)">
<animateTransform attributeName="transform" type="translate" values="0 150;0 -50" keyTimes="0;1" dur="3s" begin="-1.56s" repeatCount="indefinite"/>
</circle><circle cx="63" cy="0" r="3" fill="#ffffcb" transform="translate(0 115.413)">
<animateTransform attributeName="transform" type="translate" values="0 116;0 -16" keyTimes="0;1" dur="3s" begin="-0.48s" repeatCount="indefinite"/>
</circle><circle cx="4" cy="0" r="2" fill="#ffffcb" transform="translate(0 11.3689)">
<animateTransform attributeName="transform" type="translate" values="0 103;0 -3" keyTimes="0;1" dur="3s" begin="-0.06s" repeatCount="indefinite"/>
</circle><circle cx="62" cy="0" r="4" fill="#ffffcb" transform="translate(0 34.5155)">
<animateTransform attributeName="transform" type="translate" values="0 154;0 -54" keyTimes="0;1" dur="3s" begin="-2.19s" repeatCount="indefinite"/>
</circle><circle cx="72" cy="0" r="3" fill="#ffffcb" transform="translate(0 51.0667)">
<animateTransform attributeName="transform" type="translate" values="0 146;0 -46" keyTimes="0;1" dur="3s" begin="-1.95s" repeatCount="indefinite"/>
</circle><circle cx="82" cy="0" r="3" fill="#ffffcb" transform="translate(0 76.3111)">
<animateTransform attributeName="transform" type="translate" values="0 114;0 -14" keyTimes="0;1" dur="3s" begin="-1.35s" repeatCount="indefinite"/>
</circle><circle cx="86" cy="0" r="3" fill="#ffffcb" transform="translate(0 77.3244)">
<animateTransform attributeName="transform" type="translate" values="0 108;0 -8" keyTimes="0;1" dur="3s" begin="-1.26s" repeatCount="indefinite"/>
</circle><circle cx="45" cy="0" r="3" fill="#ffffcb" transform="translate(0 110.916)">
<animateTransform attributeName="transform" type="translate" values="0 127;0 -27" keyTimes="0;1" dur="3s" begin="-0.78s" repeatCount="indefinite"/>
</circle><circle cx="41" cy="0" r="3" fill="#ffffcb" transform="translate(0 -0.537781)">
<animateTransform attributeName="transform" type="translate" values="0 133;0 -33" keyTimes="0;1" dur="3s" begin="-2.88s" repeatCount="indefinite"/>
</circle><circle cx="62" cy="0" r="3" fill="#ffffcb" transform="translate(0 79.3333)">
<animateTransform attributeName="transform" type="translate" values="0 125;0 -25" keyTimes="0;1" dur="3s" begin="-1.38s" repeatCount="indefinite"/>
</circle><circle cx="59" cy="0" r="4" fill="#ffffcb" transform="translate(0 -10.3778)">
<animateTransform attributeName="transform" type="translate" values="0 115;0 -15" keyTimes="0;1" dur="3s" begin="-0.36s" repeatCount="indefinite"/>
</circle><circle cx="48" cy="0" r="3" fill="#ffffcb" transform="translate(0 5.03333)">
<animateTransform attributeName="transform" type="translate" values="0 107;0 -7" keyTimes="0;1" dur="3s" begin="-0.15s" repeatCount="indefinite"/>
</circle><circle cx="65" cy="0" r="3" fill="#ffffcb" transform="translate(0 -11.6911)">
<animateTransform attributeName="transform" type="translate" values="0 121;0 -21" keyTimes="0;1" dur="3s" begin="-0.27s" repeatCount="indefinite"/>
</circle><circle cx="87" cy="0" r="3" fill="#ffffcb" transform="translate(0 3.45778)">
<animateTransform attributeName="transform" type="translate" values="0 138;0 -38" keyTimes="0;1" dur="3s" begin="-2.76s" repeatCount="indefinite"/>
</circle><circle cx="9" cy="0" r="4" fill="#ffffcb" transform="translate(0 85.1867)">
<animateTransform attributeName="transform" type="translate" values="0 128;0 -28" keyTimes="0;1" dur="3s" begin="-1.29s" repeatCount="indefinite"/>
</circle><circle cx="47" cy="0" r="2" fill="#ffffcb" transform="translate(0 -9.69778)">
<animateTransform attributeName="transform" type="translate" values="0 142;0 -42" keyTimes="0;1" dur="3s" begin="-2.94s" repeatCount="indefinite"/>
</circle><circle cx="94" cy="0" r="3" fill="#ffffcb" transform="translate(0 52.8622)">
<animateTransform attributeName="transform" type="translate" values="0 142;0 -42" keyTimes="0;1" dur="3s" begin="-1.92s" repeatCount="indefinite"/>
</circle><circle cx="23" cy="0" r="2" fill="#ffffcb" transform="translate(0 117.262)">
<animateTransform attributeName="transform" type="translate" values="0 142;0 -42" keyTimes="0;1" dur="3s" begin="-0.87s" repeatCount="indefinite"/>
</circle><circle cx="34" cy="0" r="4" fill="#ffffcb" transform="translate(0 117.244)">
<animateTransform attributeName="transform" type="translate" values="0 135;0 -35" keyTimes="0;1" dur="3s" begin="-0.78s" repeatCount="indefinite"/>
</circle><circle cx="52" cy="0" r="4" fill="#ffffcb" transform="translate(0 131.007)">
<animateTransform attributeName="transform" type="translate" values="0 137;0 -37" keyTimes="0;1" dur="3s" begin="-0.57s" repeatCount="indefinite"/>
</circle><circle cx="80" cy="0" r="3" fill="#ffffcb" transform="translate(0 7.33334)">
<animateTransform attributeName="transform" type="translate" values="0 125;0 -25" keyTimes="0;1" dur="3s" begin="-2.82s" repeatCount="indefinite"/>
</circle><circle cx="31" cy="0" r="3" fill="#ffffcb" transform="translate(0 70.04)">
<animateTransform attributeName="transform" type="translate" values="0 104;0 -4" keyTimes="0;1" dur="3s" begin="-1.41s" repeatCount="indefinite"/>
</circle><circle cx="11" cy="0" r="3" fill="#ffffcb" transform="translate(0 117.971)">
<animateTransform attributeName="transform" type="translate" values="0 123;0 -23" keyTimes="0;1" dur="3s" begin="-0.57s" repeatCount="indefinite"/>
</circle><circle cx="37" cy="0" r="3" fill="#ffffcb" transform="translate(0 21.6889)">
<animateTransform attributeName="transform" type="translate" values="0 148;0 -48" keyTimes="0;1" dur="3s" begin="-2.4s" repeatCount="indefinite"/>
</circle><circle cx="12" cy="0" r="4" fill="#ffffcb" transform="translate(0 20.6933)">
<animateTransform attributeName="transform" type="translate" values="0 134;0 -34" keyTimes="0;1" dur="3s" begin="-2.49s" repeatCount="indefinite"/>
</circle><circle cx="57" cy="0" r="3" fill="#ffffcb" transform="translate(0 -33.5022)">
<animateTransform attributeName="transform" type="translate" values="0 138;0 -38" keyTimes="0;1" dur="3s" begin="-0.39s" repeatCount="indefinite"/>
</circle><circle cx="12" cy="0" r="2" fill="#ffffcb" transform="translate(0 16.4311)">
<animateTransform attributeName="transform" type="translate" values="0 141;0 -41" keyTimes="0;1" dur="3s" begin="-2.52s" repeatCount="indefinite"/>
</circle><circle cx="22" cy="0" r="4" fill="#ffffcb" transform="translate(0 102.142)">
<animateTransform attributeName="transform" type="translate" values="0 106;0 -6" keyTimes="0;1" dur="3s" begin="-0.57s" repeatCount="indefinite"/>
</circle><circle cx="5" cy="0" r="2" fill="#ffffcb" transform="translate(0 36.1511)">
<animateTransform attributeName="transform" type="translate" values="0 132;0 -32" keyTimes="0;1" dur="3s" begin="-2.22s" repeatCount="indefinite"/>
</circle><circle cx="74" cy="0" r="2" fill="#ffffcb" transform="translate(0 8.18889)">
<animateTransform attributeName="transform" type="translate" values="0 103;0 -3" keyTimes="0;1" dur="3s" begin="-0.15s" repeatCount="indefinite"/>
</circle><circle cx="24" cy="0" r="2" fill="#ffffcb" transform="translate(0 135.6)">
<animateTransform attributeName="transform" type="translate" values="0 140;0 -40" keyTimes="0;1" dur="3s" begin="-0.54s" repeatCount="indefinite"/>
</circle><circle cx="97" cy="0" r="4" fill="#ffffcb" transform="translate(0 -13.1111)">
<animateTransform attributeName="transform" type="translate" values="0 130;0 -30" keyTimes="0;1" dur="3s" begin="-0.15s" repeatCount="indefinite"/>
</circle><circle cx="89" cy="0" r="3" fill="#ffffcb" transform="translate(0 145.111)">
<animateTransform attributeName="transform" type="translate" values="0 150;0 -50" keyTimes="0;1" dur="3s" begin="-0.54s" repeatCount="indefinite"/>
</circle><circle cx="80" cy="0" r="3" fill="#ffffcb" transform="translate(0 72.5156)">
<animateTransform attributeName="transform" type="translate" values="0 118;0 -18" keyTimes="0;1" dur="3s" begin="-1.47s" repeatCount="indefinite"/>
</circle><circle cx="39" cy="0" r="2" fill="#ffffcb" transform="translate(0 30.1133)">
<animateTransform attributeName="transform" type="translate" values="0 107;0 -7" keyTimes="0;1" dur="3s" begin="-2.49s" repeatCount="indefinite"/>
</circle><circle cx="37" cy="0" r="2" fill="#ffffcb" transform="translate(0 104.833)">
<animateTransform attributeName="transform" type="translate" values="0 125;0 -25" keyTimes="0;1" dur="3s" begin="-0.87s" repeatCount="indefinite"/>
</circle><circle cx="95" cy="0" r="2" fill="#ffffcb" transform="translate(0 58.6667)">
<animateTransform attributeName="transform" type="translate" values="0 128;0 -28" keyTimes="0;1" dur="3s" begin="-1.8s" repeatCount="indefinite"/>
</circle><circle cx="90" cy="0" r="3" fill="#ffffcb" transform="translate(0 10.6133)">
<animateTransform attributeName="transform" type="translate" values="0 134;0 -34" keyTimes="0;1" dur="3s" begin="-2.67s" repeatCount="indefinite"/>
</circle><circle cx="17" cy="0" r="3" fill="#ffffcb" transform="translate(0 51.0889)">
<animateTransform attributeName="transform" type="translate" values="0 148;0 -48" keyTimes="0;1" dur="3s" begin="-1.95s" repeatCount="indefinite"/>
</circle><circle cx="67" cy="0" r="4" fill="#ffffcb" transform="translate(0 15.6222)">
<animateTransform attributeName="transform" type="translate" values="0 115;0 -15" keyTimes="0;1" dur="3s" begin="-2.76s" repeatCount="indefinite"/>
</circle><circle cx="58" cy="0" r="3" fill="#ffffcb" transform="translate(0 6)">
<animateTransform attributeName="transform" type="translate" values="0 140;0 -40" keyTimes="0;1" dur="3s" begin="-2.7s" repeatCount="indefinite"/>
</circle><circle cx="22" cy="0" r="4" fill="#ffffcb" transform="translate(0 74.1289)">
<animateTransform attributeName="transform" type="translate" values="0 139;0 -39" keyTimes="0;1" dur="3s" begin="-1.56s" repeatCount="indefinite"/>
</circle><circle cx="64" cy="0" r="4" fill="#ffffcb" transform="translate(0 76.2978)">
<animateTransform attributeName="transform" type="translate" values="0 111;0 -11" keyTimes="0;1" dur="3s" begin="-1.32s" repeatCount="indefinite"/>
</circle>      </pattern></defs>

      <path fill="url(#lds-flask-patid-0.f89b8467a3f7a)" clip-path="url(#lds-flask-cpid-0.e56f9f861a5a5)" d="M59,37.3V18.9c3-0.8,5.1-3.6,5.1-6.8C64.1,8.2,61,5,57.1,5H42.9c-3.9,0-7.1,3.2-7.1,7.1c0,3.2,2.2,6,5.1,6.8v18.4c-11.9,3.8-20.6,15-20.6,28.2C20.4,81.8,33.7,95,50,95s29.6-13.2,29.6-29.6C79.6,52.2,70.9,41.1,59,37.3z"/>

      <path fill="none" stroke="#ff7c81" stroke-width="5" d="M59,37.3V18.9c3-0.8,5.1-3.6,5.1-6.8C64.1,8.2,61,5,57.1,5H42.9c-3.9,0-7.1,3.2-7.1,7.1c0,3.2,2.2,6,5.1,6.8v18.4c-11.9,3.8-20.6,15-20.6,28.2C20.4,81.8,33.7,95,50,95s29.6-13.2,29.6-29.6C79.6,52.2,70.9,41.1,59,37.3z"/>
</svg>